<svg width="1448" height="966" viewBox="0 0 1448 966" fill="none" xmlns="http://www.w3.org/2000/svg">
<g clip-path="url(#clip0_503_181)">
<rect width="1448" height="966" rx="50" fill="url(#paint0_linear_503_181)"/>
<path d="M624.176 96.088C624.176 92.4613 624.816 89.1973 626.096 86.296C627.376 83.352 629.125 80.856 631.344 78.808C633.605 76.76 636.272 75.1813 639.344 74.072C642.416 72.9627 645.744 72.408 649.328 72.408C652.912 72.408 656.24 72.9627 659.312 74.072C662.384 75.1813 665.051 76.76 667.312 78.808C669.573 80.856 671.344 83.352 672.624 86.296C673.904 89.1973 674.544 92.4613 674.544 96.088C674.544 99.7147 673.904 103.021 672.624 106.008C671.344 108.995 669.573 111.555 667.312 113.688C665.051 115.779 662.384 117.4 659.312 118.552C656.24 119.704 652.912 120.28 649.328 120.28C645.744 120.28 642.416 119.704 639.344 118.552C636.272 117.4 633.605 115.779 631.344 113.688C629.125 111.555 627.376 108.995 626.096 106.008C624.816 103.021 624.176 99.7147 624.176 96.088ZM640.368 96.088C640.368 97.5813 640.581 98.9467 641.008 100.184C641.477 101.421 642.096 102.488 642.864 103.384C643.675 104.28 644.635 104.984 645.744 105.496C646.853 105.965 648.048 106.2 649.328 106.2C650.608 106.2 651.781 105.965 652.848 105.496C653.957 104.984 654.917 104.28 655.728 103.384C656.539 102.488 657.157 101.421 657.584 100.184C658.053 98.9467 658.288 97.5813 658.288 96.088C658.288 94.6373 658.053 93.3147 657.584 92.12C657.157 90.8827 656.539 89.8587 655.728 89.048C654.917 88.1947 653.957 87.5333 652.848 87.064C651.781 86.5947 650.608 86.36 649.328 86.36C648.048 86.36 646.853 86.5947 645.744 87.064C644.635 87.5333 643.675 88.1947 642.864 89.048C642.096 89.8587 641.477 90.8827 641.008 92.12C640.581 93.3147 640.368 94.6373 640.368 96.088ZM717.198 102.04C717.198 104.941 716.665 107.523 715.598 109.784C714.574 112.045 713.166 113.965 711.374 115.544C709.625 117.08 707.577 118.253 705.23 119.064C702.926 119.875 700.494 120.28 697.934 120.28C695.417 120.28 692.985 119.875 690.638 119.064C688.334 118.253 686.307 117.08 684.558 115.544C682.809 113.965 681.401 112.045 680.334 109.784C679.31 107.523 678.798 104.941 678.798 102.04C678.798 99.1813 679.31 96.6427 680.334 94.424C681.401 92.1627 682.809 90.264 684.558 88.728C686.307 87.192 688.334 86.04 690.638 85.272C692.985 84.4613 695.417 84.056 697.934 84.056C700.494 84.056 702.926 84.4613 705.23 85.272C707.577 86.04 709.625 87.192 711.374 88.728C713.166 90.264 714.574 92.1627 715.598 94.424C716.665 96.6427 717.198 99.1813 717.198 102.04ZM697.934 96.472C696.313 96.472 694.99 97.0267 693.966 98.136C692.985 99.2453 692.494 100.547 692.494 102.04C692.494 103.619 693.006 104.963 694.03 106.072C695.054 107.181 696.377 107.736 697.998 107.736C699.619 107.736 700.942 107.181 701.966 106.072C702.99 104.963 703.502 103.619 703.502 102.04C703.502 100.547 702.969 99.2453 701.902 98.136C700.878 97.0267 699.555 96.472 697.934 96.472ZM746.322 119.896C744.658 119.896 743.015 119.597 741.394 119C739.773 118.36 738.45 117.485 737.426 116.376H737.298V134.36H722.642V85.336H736.53V88.728H736.658C737.895 87.32 739.389 86.2533 741.138 85.528C742.887 84.8027 744.594 84.44 746.258 84.44C748.775 84.44 750.994 84.952 752.914 85.976C754.834 87 756.434 88.344 757.714 90.008C758.994 91.672 759.954 93.5493 760.594 95.64C761.277 97.7307 761.618 99.864 761.618 102.04C761.618 104.259 761.277 106.435 760.594 108.568C759.954 110.701 758.994 112.621 757.714 114.328C756.434 115.992 754.834 117.336 752.914 118.36C751.037 119.384 748.839 119.896 746.322 119.896ZM747.922 102.04C747.922 100.547 747.453 99.2453 746.514 98.136C745.575 97.0267 744.21 96.472 742.418 96.472C740.669 96.472 739.261 97.0267 738.194 98.136C737.17 99.2453 736.658 100.547 736.658 102.04C736.658 103.619 737.17 104.963 738.194 106.072C739.261 107.181 740.669 107.736 742.418 107.736C744.21 107.736 745.575 107.203 746.514 106.136C747.453 105.027 747.922 103.661 747.922 102.04ZM794.664 108.312C794.664 110.573 794.173 112.472 793.192 114.008C792.253 115.544 791.037 116.781 789.544 117.72C788.093 118.616 786.493 119.256 784.744 119.64C782.994 120.067 781.33 120.28 779.752 120.28C776.85 120.28 773.992 119.853 771.176 119C768.402 118.189 765.992 117.016 763.944 115.48L771.176 107.096C772.2 108.035 773.394 108.803 774.76 109.4C776.168 109.955 777.512 110.232 778.792 110.232C779.304 110.232 779.773 110.147 780.2 109.976C780.669 109.763 780.904 109.4 780.904 108.888C780.904 108.333 780.498 107.907 779.688 107.608C778.92 107.267 777.554 106.861 775.592 106.392C774.525 106.136 773.437 105.773 772.328 105.304C771.218 104.792 770.194 104.131 769.256 103.32C768.36 102.509 767.613 101.528 767.016 100.376C766.418 99.1813 766.12 97.7733 766.12 96.152C766.12 93.976 766.589 92.12 767.528 90.584C768.509 89.048 769.725 87.8107 771.176 86.872C772.669 85.8907 774.269 85.1867 775.976 84.76C777.725 84.2907 779.368 84.056 780.904 84.056C783.506 84.056 786.088 84.44 788.648 85.208C791.208 85.976 793.512 87.0427 795.56 88.408L788.648 96.664C787.581 95.9813 786.493 95.448 785.384 95.064C784.274 94.68 783.186 94.488 782.12 94.488C781.394 94.488 780.797 94.5947 780.328 94.808C779.858 94.9787 779.624 95.3413 779.624 95.896C779.624 96.3227 779.88 96.664 780.392 96.92C780.946 97.1333 782.184 97.432 784.104 97.816C785.426 98.072 786.706 98.4773 787.944 99.032C789.224 99.544 790.354 100.227 791.336 101.08C792.36 101.891 793.17 102.893 793.768 104.088C794.365 105.283 794.664 106.691 794.664 108.312ZM810.836 120.024C809.727 120.024 808.681 119.811 807.7 119.384C806.761 119 805.929 118.467 805.204 117.784C804.479 117.101 803.903 116.291 803.476 115.352C803.092 114.413 802.9 113.389 802.9 112.28C802.9 111.213 803.092 110.211 803.476 109.272C803.903 108.333 804.479 107.523 805.204 106.84C805.929 106.115 806.761 105.56 807.7 105.176C808.681 104.749 809.727 104.536 810.836 104.536C811.945 104.536 812.969 104.749 813.908 105.176C814.889 105.56 815.743 106.115 816.468 106.84C817.193 107.523 817.748 108.333 818.132 109.272C818.559 110.211 818.772 111.213 818.772 112.28C818.772 113.389 818.559 114.413 818.132 115.352C817.748 116.291 817.193 117.101 816.468 117.784C815.743 118.467 814.889 119 813.908 119.384C812.969 119.811 811.945 120.024 810.836 120.024ZM803.156 73.688H818.516V102.36H803.156V73.688Z" fill="black"/>
<path fill-rule="evenodd" clip-rule="evenodd" d="M766.217 725.78C838.646 725.78 902.206 671.904 866.511 598.725C830.815 525.547 963.447 527.911 1002.41 477.334C1049.92 415.655 1036.16 153.834 731.141 313.453C682.281 339.022 556.796 287.148 515.172 312.887C466.176 343.184 397.242 405.223 466.176 468.772C500.132 500.075 378.393 581.324 431.712 654.102C483.738 725.115 520.208 657.419 599.416 671.904C678.625 686.388 712.425 725.78 766.217 725.78Z" fill="#EEDCFC"/>
<path d="M682.15 598.471C682.15 598.471 698.827 590.626 705.053 585.169C711.279 579.711 719.019 566.151 719.019 566.151C719.019 566.151 804.042 627.555 859.48 618.796C872.253 616.778 897.142 608.287 898.729 593.328C903.063 552.479 843.099 542.04 856.198 521.325C864.193 508.681 889.03 527.5 889.03 527.5L992.048 578.172C992.048 578.172 956.458 665.901 870.09 669.417C763.846 673.742 682.15 598.471 682.15 598.471Z" fill="white"/>
<path fill-rule="evenodd" clip-rule="evenodd" d="M600.473 254.901C599.506 254.522 594.313 248.163 587.721 247.006C584.726 246.48 587.445 250.295 584.148 250.329C574.329 250.431 558.372 248.587 555.416 250.329C553.219 251.62 558.057 256.13 555.416 256.337C530.494 258.29 492.474 283.174 484.226 295.246C481.601 299.088 502.832 292.569 499.449 294.469C495.652 296.601 491.442 310.559 488.924 321.34C487.181 328.764 486.084 338.318 485.696 348.711C485.373 357.684 485.503 359.169 486.794 364.075C488.278 369.562 489.44 371.176 491.442 370.402C492.152 370.143 492.474 369.175 492.474 367.368C492.474 365.947 493.249 361.687 494.217 357.878L495.896 351.035L496.606 353.876C497.51 357.168 502.803 367.368 507.58 374.791C507.838 375.185 508.946 374.684 509.946 372.268C510.857 370.066 510.487 366.549 512.035 362.78C515.559 354.193 522.48 343.028 530.494 334.092C542.338 320.884 546.267 305.599 557.37 293.329C578.089 270.431 604.093 256.322 600.473 254.901Z" fill="white"/>
<path fill-rule="evenodd" clip-rule="evenodd" d="M499.744 297.584C496.42 300.257 491.487 321.935 491.402 322.298C489.659 329.722 487.979 355.502 489.696 360.383C491.414 365.264 496.223 347.669 496.223 347.669C496.223 347.669 503.491 366.543 509.914 371.718C510.188 371.939 502.28 348.367 499.744 334.605C496.396 316.44 501.635 296.063 499.744 297.584Z" fill="#E7EAEE"/>
<path fill-rule="evenodd" clip-rule="evenodd" d="M623.624 677.248C629.821 675.892 640.278 671.171 644.282 669.557C648.285 667.942 660.485 650.715 664.875 631.284C668.038 616.953 669.652 596.554 667.844 593.132C667.577 592.647 666.601 583.37 669.2 586.399C674.978 593.132 681.837 603.702 703.478 584.762C709.372 579.603 717.185 572.946 715.128 567.06C709.372 550.592 684.423 517.432 680.62 514.92C676.072 511.916 653.087 514.469 618.88 504.372C580.086 492.922 563.933 459.205 548.752 463.594C536.475 467.144 507.06 488.956 499.678 502.769C464.826 567.98 507.06 613.675 516.678 626.799L526.017 630.832L526.339 639.16L526.791 644.389C527.631 654.395 527.953 655.299 532.472 658.656C543.769 667.242 566.041 675.246 586.182 678.087C595.543 679.378 615.877 678.926 623.624 677.248Z" fill="white"/>
<path fill-rule="evenodd" clip-rule="evenodd" d="M529.689 636.112L530.141 641.341C530.981 651.347 531.303 652.25 535.822 655.607C542.487 660.672 552.971 665.535 564.583 669.255C572.655 671.84 581.273 673.874 589.532 675.038C598.893 676.329 619.227 675.878 626.974 674.199C630.803 673.37 599.307 648.625 580.752 655.607C566.503 660.969 532.919 620.07 546.574 609.385C561.892 597.398 533.823 550.122 532.919 539.858C532.015 529.594 528.456 527.142 528.352 527.502C528.248 527.862 528.248 529.09 528.527 532.049C529.732 544.803 529.689 636.112 529.689 636.112Z" fill="#E7EAEE"/>
<path fill-rule="evenodd" clip-rule="evenodd" d="M526.327 536.928C527.682 536.664 528.994 537.549 529.258 538.904C534.13 563.935 554.739 580.881 591.59 589.742C628.661 598.656 653.911 598.176 667.216 588.661C668.339 587.858 667.502 594.736 666.679 595.263C658.002 600.828 628.499 609.131 593.291 601.626C548.274 592.031 527.137 554.179 524.35 539.86C524.086 538.504 524.971 537.192 526.327 536.928Z" fill="#FFB61D"/>
<path fill-rule="evenodd" clip-rule="evenodd" d="M507.554 491.767C508.752 491.081 553.464 542.324 614.824 553.923C676.183 565.523 691.04 558.146 693.428 542.324C693.634 540.959 694.908 540.019 696.273 540.225C697.638 540.431 698.578 541.705 698.372 543.07C695.345 563.122 666.953 567.891 613.983 558.852C561.678 549.927 525.818 528.721 506.626 495.178C505.94 493.98 506.356 492.452 507.554 491.767Z" fill="#FFB61D"/>
<path fill-rule="evenodd" clip-rule="evenodd" d="M765.091 488.925C763.412 488.344 761.605 487.053 760.443 485.568L758.506 483.179L765.349 476.401C775.871 466.072 783.941 455.485 790.913 442.897C793.237 438.701 799.111 424.693 799.111 423.337C799.111 422.885 799.821 421.077 800.661 419.205C801.952 416.494 802.92 415.461 805.696 413.912C808.988 411.975 812.732 411.33 814.346 412.427C817.445 414.493 817.445 421.013 814.346 432.245C810.925 444.576 806.341 453.42 796.852 466.137C795.367 468.074 792.591 471.882 790.59 474.529C785.232 481.63 781.746 485.052 777.033 487.698C772.385 490.281 769.674 490.603 765.091 488.925ZM811.441 483.115L816.089 485.181C817.053 485.626 827.685 490.734 840.457 496.871C861.048 506.765 887.199 519.33 887.358 519.33C887.616 519.33 888.828 516.529 889.101 513.262C889.747 506.226 892.135 496.672 894.911 490.022C896.202 487.053 897.235 483.341 897.235 483.019C897.235 482.871 896.186 482.448 894.467 481.755C892.422 480.93 889.429 479.723 886.132 478.144C869.864 470.333 838.038 454.388 834.1 451.999C830.227 449.74 829.452 449.546 829.452 451.031C829.452 452.968 825.514 461.941 822.48 466.783C820.866 469.429 817.703 474.206 815.444 477.37L811.441 483.115ZM886.261 507.71C888.112 508.783 884.905 510.357 884.13 510.615C879.569 511.003 874.199 510.145 869.799 507.581C867.499 505.95 849.384 495.886 837.368 489.211C831.875 486.159 827.656 483.815 826.805 483.309C824.094 481.695 821.512 479.952 821.06 479.435C819.704 477.692 820.996 476.918 824.804 477.24C827.094 477.434 882.262 505.393 886.261 507.71ZM623.844 676.716C628.824 675.626 636.554 672.364 641.476 670.287C642.68 669.779 643.715 669.342 644.502 669.025C648.505 667.41 660.705 650.184 665.095 630.753C668.258 616.421 669.872 596.022 668.064 592.6C666.975 590.619 673.449 597.266 678.271 602.217C679.733 603.717 681.043 605.062 681.944 605.963C710.09 633.916 751.986 656.381 795.496 666.903C817.187 672.197 832.615 674.069 853.338 674.069C888.133 674.069 915.569 667.226 940.487 652.185C941.671 651.47 942.78 650.814 943.837 650.188C952.523 645.045 957.698 641.982 971.861 626.04C987.747 608.158 1001.88 566.649 1006.59 552.318C1008.66 545.863 1013.69 520.186 1013.69 513.779C1013.69 506.193 1011.05 502.611 1007.43 498.931C1001.04 492.669 992.389 490.41 985.224 493.121L981.867 494.412L980.834 490.991C979.349 485.826 976.251 481.695 971.473 478.596C964.372 473.884 963.34 473.561 956.949 473.561C951.978 473.561 950.622 473.819 947.459 475.304L943.779 476.982L943.005 474.658C941.52 469.881 936.54 463.222 932.676 461.295C929.249 459.587 923.317 459.43 919.184 460.198C910.146 461.876 903.691 466.072 901.044 471.947C900.269 473.754 899.301 475.175 898.914 475.175C898.591 475.175 885.873 471.623 870.703 464.909C868.144 463.773 865.74 462.708 863.483 461.707C836.241 449.632 830.336 447.015 830.872 443.736C831.324 440.96 831.195 439.411 830.421 437.023C829.065 433.02 827.516 431.923 823.126 431.923C819.64 431.923 819.64 431.923 820.027 430.18C822.093 420.303 822.028 414.622 819.833 411.007C818.349 408.618 816.606 407.65 812.603 407.069C810.279 406.746 809.182 406.94 806.6 408.36C804.857 409.264 803.372 409.909 803.243 409.78C803.114 409.651 803.566 406.101 804.276 401.905C809.569 370.854 805.48 344.1 791.988 315.696C791.858 315.424 791.709 315.103 791.537 314.735C787.436 305.929 770.943 270.52 723.775 252.653C721.641 251.844 719.621 251.063 717.679 250.311L717.679 250.311C701.612 244.092 690.931 239.957 665.159 240C636.274 240.048 626.491 244.132 607.447 252.847C604.8 254.073 602.476 254.783 602.283 254.525C602.089 254.202 600.863 253.428 599.636 252.782C598.409 252.137 595.763 250.523 593.826 249.232C588.274 245.488 584.853 243.938 583.11 244.326C581.109 244.842 581.109 246.52 583.11 247.295C583.949 247.618 584.917 248.715 585.305 249.813C586.144 252.137 587.112 252.395 587.693 250.458C587.951 249.748 588.339 249.232 588.532 249.361C588.606 249.398 588.852 249.513 589.227 249.688L589.227 249.688C590.171 250.13 591.932 250.955 593.826 251.878C596.473 253.17 599.378 254.525 600.152 254.848C601.573 255.364 601.121 255.752 594.988 259.367C571.038 273.44 551.542 295.324 540.633 320.242C538.954 323.987 537.469 326.311 535.92 327.602C531.982 330.894 524.236 340.254 522.428 343.934C521.46 345.935 519.394 349.034 517.78 350.841C516.231 352.649 514.552 354.973 513.971 355.941C513.455 356.974 512.938 357.684 512.745 357.555C512.616 357.362 512.809 354.198 513.261 350.519C514.23 341.933 514.23 339.673 513.455 339.48C512.293 339.157 510.614 343.676 509.904 349.292C509.388 352.714 509.259 357.878 509.582 363.172L509.969 371.564L505.385 364.14C503.809 361.658 502.257 359.175 501.155 357.412L501.155 357.411L501.154 357.411L501.154 357.41L501.151 357.406L501.15 357.405L501.15 357.404L501.149 357.403L501.149 357.402L501.147 357.399C500.447 356.28 499.93 355.453 499.705 355.102C498.026 352.649 497.058 348.969 497.768 347.743C498.155 347.033 498.091 346.71 497.445 346.71C496.09 346.71 493.443 351.035 491.7 356.006C490.861 358.33 490.021 360.267 489.763 360.267C488.795 360.267 489.247 337.156 490.28 329.732C492.41 315.078 498.026 297.003 500.544 297.003C501.06 297.003 501.512 296.744 501.512 296.357C501.512 295.195 499.834 295.647 498.478 297.132C495.444 300.424 491.442 310.559 488.924 321.34C487.181 328.764 486.084 338.318 485.696 348.711C485.373 357.684 485.503 359.169 486.794 364.075C488.278 369.562 489.44 371.176 491.442 370.402C492.152 370.143 492.474 369.175 492.474 367.368C492.474 365.947 493.249 361.687 494.217 357.878L495.896 351.035L496.606 353.876C497.51 357.168 502.803 367.368 507.58 374.791C510.873 379.827 510.937 380.15 512.035 388.025C512.616 392.48 514.423 403.314 518.619 419.98C522.327 434.706 543.169 449.313 548.373 452.961L548.374 452.961L548.377 452.963C549.061 453.442 549.474 453.732 549.541 453.807C550.187 454.517 551.091 454.904 551.607 454.711C552.188 454.517 552.511 454.775 552.511 455.485C552.511 456.131 552.963 456.97 553.479 457.357C554.125 457.809 554.576 459.552 554.706 462.586C555.028 468.655 559.547 480.275 563.033 484.083C565.293 486.536 570.005 487.569 575.234 486.665C578.656 486.149 579.624 485.762 579.301 484.987C579.107 484.471 580.334 485.116 582.012 486.407C601.637 501.384 621.52 510.357 643.856 514.23C652.507 515.715 666.838 516.554 674.649 515.973C681.556 515.522 681.556 515.522 681.234 516.877C680.782 518.685 681.363 519.782 690.852 535.856C698.405 548.574 699.051 549.413 707.443 557.999C725.26 576.397 744.691 590.664 766.705 601.703C787.427 612.032 820.511 620.617 850.755 623.329C881 626.04 902.722 598.281 902.658 591.18C902.529 581.432 901.173 575.041 897.881 568.844C894.653 562.841 892.523 560.775 882.839 554.319C872.059 547.154 865.409 541.279 861.02 535.017C858.244 531.079 857.211 526.625 857.211 524.237C857.211 522.687 859.212 519.201 862.182 518.491C864.893 517.781 865.409 517.846 868.444 519.33C870.251 520.17 874.964 522.364 878.837 524.237C882.775 526.044 886.583 527.852 887.358 528.239C889.642 528.873 890.608 533.344 891.131 535.767C891.248 536.308 891.343 536.747 891.425 537.018C892.329 540.375 896.606 544.71 899.365 546.185C904.211 548.777 916.151 549.123 919.443 545.573C920.283 544.669 923.065 543.558 923.638 543.894C924.211 544.231 926.285 547.025 926.285 549.284C926.349 553.157 928.351 556.708 932.611 560.258C940.681 566.972 946.943 568.586 953.269 565.616C956.561 564.067 959.26 563.462 959.26 563.462C959.26 563.462 961.951 566.896 962.113 568.069C963.381 577.242 976.96 581.087 980.575 581.474C981.404 581.557 983.016 581.202 984.654 580.842C986.844 580.361 989.079 579.87 989.549 580.4C990.471 581.44 974.12 608.481 971.861 611.902C950.364 644.18 908.532 663.934 857.34 666C824.094 667.355 783.231 658.059 747.79 641.146C725.131 630.236 705.054 616.873 683.558 598.152C679.813 594.924 675.488 591.245 673.939 589.954C672.39 588.727 668.71 584.531 665.87 580.658C661.092 574.202 658.381 571.878 658.381 574.073C658.381 575.041 661.48 580.98 665.03 586.855C666.451 589.179 667.354 590.793 667.032 590.535C666.709 590.276 665.676 594.924 664.708 600.863C661.544 619.907 656.315 638.693 651.022 650.377C648.117 656.704 642.547 661.428 640.868 662.719C634.671 667.432 625.393 669.55 612.547 670.841C596.279 672.455 572.329 668.84 554.06 661.997C549.218 660.19 536.759 654.961 535.92 654.38C535.87 654.329 535.584 652.472 535.184 649.88C535.072 649.149 534.95 648.36 534.823 647.537C532.499 631.592 529.271 570.2 529.271 541.796C529.271 530.047 529.142 527.464 528.367 527.464C526.753 527.464 526.108 529.014 525.398 534.565C523.784 547.218 524.106 613.258 525.849 627.137L526.237 630.301L524.042 629.074C520.685 627.137 507.903 614.162 503.449 608.158C499.678 603.026 497.437 596.452 495.76 591.534C495.37 590.39 495.01 589.336 494.669 588.41C485.309 562.459 488.601 533.339 501.512 507.129C512.487 484.793 525.979 472.399 545.732 466.395C548.96 465.427 551.801 464.394 552.123 464.136C553.35 462.974 545.474 463.555 541.149 464.91C527.076 469.236 512.357 481.049 502.351 496.155C488.278 517.329 481.952 548.574 486.406 575.235C487.439 581.561 491.635 595.247 492.797 596.216C492.9 596.318 493.431 597.432 494.234 599.117C496.454 603.775 500.755 612.796 503.836 616.873C507.58 621.973 518.878 633.076 523.59 636.498L526.56 638.628L527.011 643.857C527.851 653.863 528.173 654.767 532.692 658.124C543.989 666.71 566.261 674.715 586.402 677.555C595.763 678.846 616.098 678.394 623.844 676.716ZM842.04 616.099C804.534 612.806 759.216 594.923 726.422 567.294C712.607 555.609 694.661 532.887 687.56 520.299C686.075 517.716 684.978 516.49 683.687 516.167C682.331 515.78 683.493 515.392 689.045 514.489C712.478 510.486 735.266 500.738 753.664 486.859L756.376 484.858L757.15 486.73C758.893 490.926 765.607 495.187 770.578 495.187C772.579 495.187 779.293 492.153 783.36 489.377L786.136 487.505L788.395 489.764C790.461 491.83 790.848 491.959 794.722 491.959C799.176 491.959 804.534 489.958 807.503 487.117L809.117 485.633L813.701 488.667C816.154 490.41 822.997 494.218 828.871 497.253C837.651 501.771 846.947 507 855.791 512.423L857.211 513.327L855.855 515.134C854.435 517.071 851.789 520.751 851.789 526.367C851.789 532.693 858.368 544.06 870.961 551.866C880.855 557.999 897.881 570.062 897.235 587.694C897.157 589.824 894.782 595.118 891.619 599.895C889.553 602.929 883.808 607.448 878.579 610.095C869.67 614.549 853.983 617.131 842.04 616.099ZM497.833 326.311C499.576 326.698 500.738 327.279 500.479 327.537C499.64 328.376 495.186 327.989 494.153 326.956C492.539 325.407 492.926 324.309 495.186 323.857C496.348 323.664 498.091 322.695 499.059 321.727C500.027 320.759 500.867 320.307 500.867 320.63C500.867 321.469 497.639 324.438 496.025 325.084C494.992 325.536 495.315 325.73 497.833 326.311ZM523.525 327.343C525.398 326.311 525.01 325.6 522.815 325.923C520.62 326.246 520.491 325.988 521.912 323.793C522.493 322.954 522.815 321.727 522.686 321.082C522.493 320.242 522.041 320.63 521.008 322.695C520.233 324.18 519.136 325.407 518.619 325.407C517.005 325.407 516.876 326.698 518.426 327.279C520.427 328.118 521.976 328.118 523.525 327.343ZM501.189 292.096C499.64 292.355 494.798 294.291 490.538 296.422C486.213 298.487 482.533 300.23 482.275 300.166C475.69 299.456 484.857 288.481 501.512 277.249C517.457 266.468 528.238 260.787 538.244 257.882C544.506 256.075 551.542 255.816 553.544 257.301C554.641 258.14 554.254 258.205 549.477 258.269C539.148 258.269 527.205 263.563 507.774 276.539C497.703 283.252 486.019 292.871 486.019 294.42C486.019 294.743 487.891 294.098 490.215 293.065C495.186 290.805 500.286 289.643 502.545 290.16C504.934 290.805 504.417 291.644 501.189 292.096ZM526.172 297.648C532.24 296.422 532.499 296.357 532.499 295.711C532.499 295.389 530.175 295.066 527.27 294.937L522.041 294.743L526.882 289.256C529.529 286.222 532.628 283.188 533.725 282.478C536.114 280.928 536.243 279.831 534.306 279.185L532.821 278.733L534.435 278.152C535.339 277.83 537.017 277.701 538.179 277.894C539.922 278.152 540.31 278.023 540.116 277.12C539.922 276.216 539.212 276.022 536.049 276.087C526.818 276.216 522.88 278.669 530.11 279.831C532.111 280.154 533.79 280.67 533.79 280.993C533.79 281.251 533.467 281.509 533.08 281.509C531.853 281.509 521.46 292.032 520.169 294.614C518.167 298.423 519.265 299.004 526.172 297.648ZM568.779 272.601C566.907 272.73 566.455 273.053 566.584 273.956L566.604 274.088C566.676 274.565 566.718 274.84 566.611 274.923C566.466 275.035 566.051 274.8 565.075 274.246L564.905 274.15C563.679 273.504 563.55 273.182 564.26 272.665C564.712 272.278 565.938 271.697 566.907 271.503L568.714 271.051L567.358 269.631C566.648 268.792 566.261 268.017 566.455 267.759C566.971 267.243 573.297 267.953 574.201 268.663C574.589 268.986 575.17 268.921 575.557 268.534C576.461 267.63 577.687 268.34 577.687 269.76C577.687 270.535 577.494 270.599 576.913 270.018C576.396 269.502 575.944 269.502 575.363 269.954C574.847 270.406 574.459 270.406 574.137 269.889C573.943 269.567 572.716 269.244 571.425 269.244C570.234 269.244 569.671 269.244 569.556 269.471C569.453 269.674 569.71 270.061 570.199 270.793C571.229 272.402 571.168 272.407 568.801 272.599L568.779 272.601ZM558.966 255.429C558.966 254.59 558.192 253.105 557.223 252.137L555.416 250.329L565.099 250.716C570.457 250.975 576.525 251.556 578.656 252.137C580.786 252.653 583.239 253.04 584.143 253.04C585.498 253.04 585.24 252.782 582.723 251.427C578.333 249.167 572.716 248.07 561.936 247.295C549.025 246.391 542.505 247.618 543.731 250.846C543.925 251.491 544.958 251.814 546.507 251.814C549.67 251.814 554.835 253.686 556.578 255.429C558.45 257.301 558.966 257.301 558.966 255.429ZM527.463 426.371C532.692 433.085 539.6 440.702 542.827 443.284C544.764 444.834 546.443 446.125 546.572 446.125C546.636 446.125 545.216 443.155 543.408 439.54C536.114 425.015 531.853 410.555 529.852 393.9C529.4 390.22 528.69 387.121 527.915 385.83C526.366 383.248 526.366 379.891 527.98 376.728C528.819 375.05 529.271 372.919 529.271 370.595V367.045L526.172 370.273C523.138 373.436 520.233 374.727 520.233 372.79C520.233 371.37 525.01 364.527 527.528 362.397C529.529 360.718 529.787 360.137 530.433 355.102C530.885 352.068 531.918 346.71 532.757 343.159C533.661 339.609 534.177 336.575 534.048 336.446C533.596 335.994 518.426 353.417 516.36 358.975C515.906 360.196 514.681 362.332 513.713 363.623L512.035 365.778C512.035 365.778 512.556 368.796 513.132 372.589C513.714 376.42 513.987 379.054 514.23 381.4C514.556 384.539 514.828 387.162 515.714 391.447C516.747 396.74 517.78 401.324 518.038 401.646C518.232 402.034 519.071 405.003 519.91 408.296C521.718 415.59 524.752 422.82 527.463 426.371ZM789.428 487.44L788.072 486.084C788.072 486.084 810.573 457.497 814.605 446.964C817.681 438.926 819.492 436.646 821.935 436.646C823.301 436.646 824.417 436.958 824.933 437.733C825.837 439.088 826.708 440.767 825.546 446.512C823.609 455.808 820.64 461.941 811.731 475.175C809.665 478.209 807.019 481.566 805.857 482.728C803.145 485.245 797.046 487.827 793.495 488.408C791.236 488.731 790.59 488.602 789.428 487.44Z" fill="#00160A"/>
<path d="M968.181 550.592C976.213 528.709 974.997 524.047 973.604 523.591C973.604 523.591 970.537 525.334 969.181 529.014C966.664 535.921 958.046 553.996 954.818 557.224C951.01 561.033 951.01 561.033 947.136 561.033C943.263 561.033 932.092 555.2 930.571 549.45C928.138 540.251 938.615 508.291 938.873 506.484L937.13 505.257C935.968 506.355 920.854 552.189 900.979 540.246C898.704 538.879 893.878 532.435 893.491 529.014C891.34 519.072 901.21 484.309 902.888 477.169C904.39 470.778 912.212 464.846 921.831 464.846C936.614 464.846 934.628 477.768 941.25 482.322C944.184 484.34 949.006 480.681 950.493 480.404C958.821 478.854 962.012 480.658 968.117 485.503C972.829 489.243 976.316 496.646 980.154 499.254C982.285 500.703 984.547 498.722 985.288 498.35C988.326 496.825 994.842 497.963 996.65 499.254C999.3 500.409 1005.79 506.651 1006.82 510.281C1011.47 526.735 996.787 563.213 991.245 570.056C982.07 581.383 960.15 572.474 968.181 550.592Z" fill="white"/>
<path fill-rule="evenodd" clip-rule="evenodd" d="M597.054 490.633C614.742 501.801 632.981 509.095 653.767 511.097C670.164 512.646 692.273 510.516 708.153 505.351C721.516 501.026 739.591 489.044 751.663 478.909C775.097 459.284 789.88 428.63 796.335 396.095C797.239 391.511 798.618 379.99 798.553 368.564C798.553 355.265 792.7 318.925 774.968 297.971C738.394 254.754 678.274 235.285 627.748 251.92C609.522 257.92 590.116 268.792 575.462 282.994C556.999 301.005 543.378 325.536 537.955 350.583C532.275 377.051 539.664 408.683 552.511 434.634C562.775 455.292 579.688 479.594 597.054 490.633ZM769.416 412.621C757.28 449.094 725.648 476.337 685.882 484.6C679.813 485.826 675.617 486.278 667.096 486.407C661.092 486.601 655.089 486.536 653.862 486.407C626.039 483.05 604.865 472.786 585.369 453.29C576.848 444.705 573.233 440.057 567.939 430.89C559.612 416.365 555.157 401.517 553.802 383.635C549.154 322.373 592.987 271.31 654.701 266.016C678.91 263.95 705.765 271.374 726.164 285.834C733.717 291.193 747.403 304.749 751.663 311.076C753.406 313.593 770.32 338.318 773.289 352.52C777.098 370.983 775.613 394.093 769.416 412.621Z" fill="white"/>
<path fill-rule="evenodd" clip-rule="evenodd" d="M798.576 368.564C798.576 411.894 778.08 459.265 751.628 479.496C739.008 489.148 722.515 500.836 708.153 505.351C687.105 511.968 653.767 511.097 653.767 511.097C653.767 511.097 687.779 506.55 700.383 501.478C736.526 486.932 756.256 464.604 768.44 443.18C792.489 400.891 798.576 367.511 798.576 368.564Z" fill="#E7EAEE"/>
<path fill-rule="evenodd" clip-rule="evenodd" d="M654.508 478.661C637.272 476.466 620.165 470.333 606.35 461.231C598.151 455.873 585.757 443.284 579.753 434.311C571.167 421.4 565.486 407.585 562.71 392.738C560.709 381.957 560.774 365.366 562.775 355.748C564.841 345.935 567.488 338.447 572.2 328.957C577.687 317.983 583.497 309.914 592.212 301.199C607.06 286.351 624.296 276.926 644.825 272.407C651.474 270.987 675.553 269.825 676.392 270.922C676.586 271.245 677.877 272.084 679.232 272.794C680.588 273.569 684.203 276.28 687.173 278.927C691.627 282.8 693.628 285.253 697.502 291.322C700.148 295.453 702.279 299.197 702.279 299.52C702.279 300.23 704.344 301.521 705.506 301.521C707.12 301.521 708.218 296.68 708.54 288.158C708.734 283.446 709.121 279.573 709.38 279.573C710.283 279.573 720.225 285.06 724.873 288.158C733.975 294.227 743.077 302.748 749.791 311.656C752.825 315.659 753.277 316.692 753.277 319.145C753.277 321.404 753.923 323.147 755.924 326.633C760.959 335.413 764.897 346.452 767.286 358.653C768.835 366.851 768.835 382.344 767.221 390.93C762.831 414.557 749.791 438.055 732.813 452.968C718.417 465.556 703.118 473.303 685.042 477.111C678.845 478.467 660.253 479.371 654.508 478.661ZM608.351 434.505C608.932 433.859 609.319 432.891 609.126 432.439C609.067 432.303 608.259 431.923 607.076 431.367C604.318 430.071 599.523 427.816 597.445 425.467C589.182 416.042 586.148 409.006 584.275 394.481C582.468 380.343 583.986 370.786 587.245 355.425C588.835 347.932 593.06 341.742 595.688 337.891C597.475 335.273 598.525 333.736 597.506 333.605C594.988 333.218 594.601 333.412 591.954 335.929C586.273 341.352 583.691 345.677 580.98 354.005C576.783 367.045 575.973 402.286 584.275 418.172C592.578 434.059 606.866 436.183 608.351 434.505ZM700.148 380.279C699.052 390.307 694.403 404.81 688.98 411.136C686.463 414.105 677.221 419.205 669.42 418.172C661.885 417.175 655.993 413.654 650.957 406.101C646.632 399.581 644.398 391.666 642.888 381.699C640.28 364.487 651.667 344.45 656.574 339.48C661.544 334.38 665.095 332.572 669.614 332.508C674.003 332.508 676.844 333.476 681.298 336.639C689.432 342.32 702.279 360.791 700.148 380.279ZM613.128 326.891C614.419 325.407 614.613 324.697 614.225 321.921C613.967 319.339 613.451 318.306 612.095 317.208C609.707 315.272 606.737 315.272 604.542 317.337C602.993 318.822 602.799 319.339 602.993 322.889C603.187 326.698 603.316 326.956 605.446 328.118C608.286 329.667 611.062 329.215 613.128 326.891ZM653.41 287.061C641.79 295.389 636.755 298.81 631.526 302.038C627.395 304.62 626.104 304.685 626.104 302.361C626.104 301.134 627.007 299.778 629.331 297.648L632.559 294.678L626.297 293.839C619.261 292.936 612.418 290.999 610.933 289.514C608.48 286.996 610.61 286.415 617.582 287.707C620.681 288.223 626.685 288.869 630.945 288.998L638.692 289.32L644.308 285.253C656.638 276.345 669.42 271.31 675.553 272.859C679.362 273.763 678.91 274.796 674.584 275.312C669.614 275.893 666.58 277.571 653.41 287.061Z" fill="white"/>
<path d="M670.001 409.328C670.001 409.006 670.388 408.683 670.905 408.683C671.421 408.683 672.067 409.006 672.26 409.328C672.454 409.716 672.067 409.974 671.357 409.974C670.582 409.974 670.001 409.716 670.001 409.328Z" fill="white"/>
<path d="M673.874 408.747C673.874 408.037 675.488 407.392 677.296 407.392C678.716 407.456 678.716 407.456 677.489 408.36C676.069 409.457 673.874 409.651 673.874 408.747Z" fill="white"/>
<path d="M663.868 407.069C663.675 406.553 663.416 405.649 663.223 405.132C663.029 404.487 663.352 404.164 664.191 404.164C664.901 404.164 665.482 404.551 665.482 405.068C665.482 405.584 665.676 406.423 665.87 407.004C666.128 407.715 665.934 408.037 665.224 408.037C664.643 408.037 663.997 407.585 663.868 407.069Z" fill="white"/>
<path d="M667.29 405.455C666.967 403.518 667.677 402.873 670.001 402.873C670.711 402.873 671.292 403.518 671.55 404.616C672.067 406.488 671.228 407.392 668.968 407.392C667.935 407.392 667.483 406.94 667.29 405.455Z" fill="white"/>
<path d="M660.705 405.778C659.479 404.81 659.479 404.81 660.834 404.81C661.673 404.81 662.254 405.197 662.254 405.778C662.254 406.94 662.254 406.94 660.705 405.778Z" fill="white"/>
<path d="M673.681 405.713C672.841 404.874 673.229 402.356 674.262 401.969C676.134 401.259 676.973 401.582 677.36 403.26C677.619 404.229 677.748 405.068 677.619 405.132C677.102 405.713 674.068 406.101 673.681 405.713Z" fill="white"/>
<path d="M679.426 404.358C679.232 404.164 679.039 403.325 679.039 402.55C679.039 401.453 679.555 401.001 681.105 400.678C682.46 400.42 683.299 400.549 683.687 401.065C684.332 402.098 684.332 403.389 683.751 403.712C682.589 404.358 679.878 404.745 679.426 404.358Z" fill="white"/>
<path d="M657.736 402.356C657.736 401.582 658.317 400.936 659.156 400.743C660.834 400.291 660.77 400.226 661.092 401.905C661.222 402.873 660.899 403.26 659.543 403.389C658.123 403.583 657.736 403.325 657.736 402.356Z" fill="white"/>
<path d="M662.642 402.421C661.738 401.453 662.319 399.645 663.546 399.645C664.385 399.645 664.837 400.097 664.837 400.872C664.837 402.098 663.352 403.131 662.642 402.421Z" fill="white"/>
<path d="M666.515 400.484C665.999 399.258 667.096 398.354 669.226 398.354C670.195 398.354 670.647 398.741 670.647 399.581C670.647 400.291 670.066 400.936 669.226 401.194C667.096 401.711 666.967 401.711 666.515 400.484Z" fill="white"/>
<path d="M685.172 400.291C685.365 399.968 685.688 399.645 685.882 399.645C686.075 399.645 686.011 399.968 685.817 400.291C685.623 400.678 685.301 400.936 685.107 400.936C684.913 400.936 684.978 400.678 685.172 400.291Z" fill="white"/>
<path d="M672.325 399.193C671.809 397.902 672.454 397.257 674.52 396.934C675.682 396.805 676.198 397.063 676.327 397.967C676.779 400.097 673.1 401.259 672.325 399.193Z" fill="white"/>
<path d="M656.832 398.096C656.251 395.966 656.38 395.772 658.058 395.772C658.962 395.772 659.672 396.03 659.672 396.353C659.672 396.676 659.866 397.386 660.06 397.902C660.253 398.548 659.866 398.935 658.768 399.129C657.542 399.387 657.09 399.129 656.832 398.096Z" fill="white"/>
<path d="M678.393 397.386C678.393 396.224 678.845 395.707 680.072 395.385C681.879 394.933 682.912 395.836 682.912 397.902C682.912 398.741 682.396 399 680.653 399C678.651 399 678.393 398.806 678.393 397.386Z" fill="white"/>
<path d="M654.895 397.386C654.701 396.869 654.831 396.417 655.153 396.417C655.541 396.417 655.799 396.869 655.799 397.386C655.799 397.902 655.67 398.354 655.541 398.354C655.412 398.354 655.153 397.902 654.895 397.386Z" fill="white"/>
<path d="M661.415 397.902C660.511 397.063 661.028 395.255 662.19 394.933C662.9 394.739 663.61 394.803 663.804 394.997C664.578 395.707 664.127 397.579 663.158 397.967C661.932 398.419 661.932 398.419 661.415 397.902Z" fill="white"/>
<path d="M684.461 397.45C683.751 395.578 684.526 394.158 686.334 393.964C687.689 393.771 688.076 394.029 688.076 395.062C688.076 397.192 687.366 398.354 686.075 398.354C685.365 398.354 684.655 397.967 684.461 397.45Z" fill="white"/>
<path d="M665.934 396.611C665.159 395.901 665.418 394.61 666.515 394.223C667.742 393.771 670.324 395.062 669.614 395.772C668.71 396.546 666.386 397.127 665.934 396.611Z" fill="white"/>
<path d="M671.55 394.997C670.969 394.093 673.035 392.544 674.714 392.544C675.488 392.544 675.811 392.931 675.682 393.642C675.424 394.933 672.131 395.965 671.55 394.997Z" fill="white"/>
<path d="M653.862 394.545C653.862 394.223 653.669 393.512 653.475 392.931C653.281 392.35 653.346 391.899 653.733 391.899C654.572 391.899 655.218 394.352 654.443 394.868C654.12 395.062 653.862 394.933 653.862 394.545Z" fill="white"/>
<path d="M655.605 393.061C655.218 391.64 655.993 390.607 657.477 390.607C658.317 390.607 659.156 393.125 658.639 393.964C657.929 395.062 655.928 394.416 655.605 393.061Z" fill="white"/>
<path d="M660.124 393.383C659.156 392.415 659.737 390.091 661.028 389.768C661.996 389.51 662.513 389.833 663.029 390.995C663.416 391.834 663.61 392.673 663.481 392.802C662.835 393.383 660.511 393.835 660.124 393.383Z" fill="white"/>
<path d="M677.554 393.383C676.715 392.544 677.102 392.028 679.039 391.318C680.653 390.801 681.105 390.866 681.427 391.64C682.008 393.19 678.781 394.674 677.554 393.383Z" fill="white"/>
<path d="M683.235 391.899C682.589 390.866 683.493 389.962 685.172 389.962C687.173 389.962 687.754 391.64 685.946 392.157C684.01 392.673 683.687 392.609 683.235 391.899Z" fill="white"/>
<path d="M688.722 390.349C688.722 389.381 689.884 388.348 690.4 388.864C690.852 389.316 689.949 391.253 689.303 391.253C688.98 391.253 688.722 390.866 688.722 390.349Z" fill="white"/>
<path d="M653.023 389.51C652.765 389.316 652.571 388.477 652.636 387.767C652.636 386.54 652.7 386.54 653.281 387.961C653.927 389.51 653.798 390.285 653.023 389.51Z" fill="white"/>
<path d="M654.25 388.542C653.669 386.282 653.733 386.089 655.412 386.089C657.284 386.089 658.446 388.477 657.025 389.381C655.541 390.285 654.701 390.026 654.25 388.542Z" fill="white"/>
<path d="M676.457 389.833C676.457 389.639 676.779 388.606 677.167 387.444C678.07 384.862 680.072 384.733 680.524 387.251C680.717 388.219 680.782 389.058 680.717 389.123C680.394 389.51 676.457 390.091 676.457 389.833Z" fill="white"/>
<path d="M658.833 388.219C658.575 388.025 658.381 387.251 658.381 386.54C658.381 385.508 658.575 385.443 659.349 386.089C659.866 386.54 660.318 387.315 660.318 387.767C660.318 388.735 659.543 388.994 658.833 388.219Z" fill="white"/>
<path d="M682.073 386.928C681.686 384.927 682.525 384.023 684.526 384.281C685.494 384.41 685.817 384.991 685.817 386.411C685.817 388.025 685.559 388.413 684.139 388.542C682.718 388.735 682.396 388.413 682.073 386.928Z" fill="white"/>
<path d="M688.399 387.186C687.56 384.604 687.818 383.829 689.561 383.635C691.111 383.442 691.304 383.635 691.304 385.314C691.304 386.734 690.917 387.315 689.949 387.573C689.238 387.767 688.528 387.573 688.399 387.186Z" fill="white"/>
<path d="M652.055 383.506C652.055 382.28 652.184 381.763 652.378 382.409C652.507 382.99 652.507 384.023 652.378 384.668C652.184 385.249 652.055 384.733 652.055 383.506Z" fill="white"/>
<path d="M653.669 384.346C652.829 383.571 653.217 381.053 654.25 380.666C655.734 380.085 656.444 380.795 656.444 382.925C656.444 384.281 656.122 384.797 655.282 384.797C654.637 384.797 653.862 384.604 653.669 384.346Z" fill="white"/>
<path d="M657.542 382.603C657.284 381.634 657.155 380.601 657.413 380.408C658.058 379.762 658.446 380.795 658.252 382.667L658.058 384.475L657.542 382.603Z" fill="white"/>
<path d="M678.393 382.151C678.393 381.441 678.716 381.053 679.039 381.247C679.426 381.441 679.684 382.086 679.684 382.603C679.684 383.119 679.426 383.506 679.039 383.506C678.716 383.506 678.393 382.925 678.393 382.151Z" fill="white"/>
<path d="M681.298 382.99C680.394 382.022 681.105 380.279 682.589 379.891C684.461 379.439 684.526 379.439 685.107 381.311C685.494 382.473 685.236 382.732 683.558 382.99C682.525 383.184 681.492 383.119 681.298 382.99Z" fill="white"/>
<path d="M687.237 381.763C686.527 381.118 686.721 378.988 687.431 378.988C687.818 378.988 688.076 378.729 688.076 378.342C688.076 378.019 687.689 377.696 687.173 377.696C686.075 377.696 685.172 374.533 686.075 373.629C687.237 372.467 688.528 373.694 689.303 376.857C689.755 378.536 690.207 380.472 690.4 381.118C690.659 381.957 690.4 382.215 689.174 382.215C688.335 382.215 687.431 382.022 687.237 381.763Z" fill="white"/>
<path d="M690.723 378.342C690.271 376.405 689.109 372.532 688.27 369.692C686.979 365.56 686.85 364.527 687.56 364.075C688.012 363.752 688.593 363.494 688.787 363.494C689.497 363.494 692.079 376.728 691.821 379.31L691.627 381.892L690.723 378.342Z" fill="white"/>
<path d="M651.409 378.019C651.409 376.986 651.538 376.599 651.732 377.245C651.861 377.826 651.861 378.729 651.732 379.181C651.538 379.569 651.409 379.117 651.409 378.019Z" fill="white"/>
<path d="M652.7 377.89C652.958 375.631 654.831 375.114 655.347 377.18C655.799 378.858 655.928 378.665 653.991 379.31C652.636 379.698 652.507 379.568 652.7 377.89Z" fill="white"/>
<path d="M679.943 377.309C679.426 375.437 680.524 374.34 682.589 374.598C684.139 374.791 684.72 377.567 683.429 378.407C681.815 379.439 680.33 378.988 679.943 377.309Z" fill="white"/>
<path d="M656.444 376.793C656.444 375.695 656.767 375.114 657.477 375.114C658.123 375.114 658.381 375.566 658.252 376.534C657.929 378.6 656.444 378.794 656.444 376.793Z" fill="white"/>
<path d="M650.699 374.081C650.699 373.371 650.893 373.178 651.086 373.694C651.28 374.146 651.216 374.727 651.022 374.921C650.828 375.179 650.635 374.791 650.699 374.081Z" fill="white"/>
<path d="M651.926 373.888C651.926 372.919 652.313 372.532 653.281 372.532C654.185 372.532 654.508 372.855 654.379 373.629C654.056 375.308 651.926 375.502 651.926 373.888Z" fill="white"/>
<path d="M655.476 373.307C655.024 372.145 655.024 372.145 656.961 371.628C658.123 371.241 658.381 371.435 658.381 372.403C658.381 373.952 656.057 374.727 655.476 373.307Z" fill="white"/>
<path d="M678.845 372.403C678.393 370.789 679.232 369.95 681.492 369.95C682.589 369.95 682.912 370.337 682.912 371.564C682.912 372.532 682.525 373.178 682.008 373.178C681.492 373.178 680.653 373.371 680.136 373.565C679.555 373.759 679.103 373.371 678.845 372.403Z" fill="white"/>
<path d="M684.461 370.918C683.945 369.627 684.72 368.659 686.204 368.659C687.108 368.659 687.431 369.111 687.431 370.273C687.431 371.435 687.108 371.886 686.14 371.886C685.43 371.886 684.655 371.435 684.461 370.918Z" fill="white"/>
<path d="M651.28 370.014C651.28 368.659 652.765 367.109 653.41 367.819C653.669 368.013 653.862 368.917 653.862 369.756C653.862 370.789 653.475 371.241 652.571 371.241C651.732 371.241 651.28 370.789 651.28 370.014Z" fill="white"/>
<path d="M654.831 369.24C654.314 367.626 654.895 366.916 657.09 366.593C659.091 366.335 659.737 368.465 657.994 369.756C656.315 370.983 655.282 370.789 654.831 369.24Z" fill="white"/>
<path d="M678.2 368.852C677.748 368.465 677.554 366.077 677.941 366.077C678.006 366.077 678.974 365.818 680.136 365.496C682.073 364.915 682.202 364.979 682.137 366.722C682.073 368.013 681.686 368.659 680.717 368.917C678.974 369.369 678.716 369.369 678.2 368.852Z" fill="white"/>
<path d="M675.811 367.368C675.811 366.916 676.005 366.722 676.263 366.916C676.457 367.174 676.457 367.561 676.263 367.819C676.005 368.013 675.811 367.819 675.811 367.368Z" fill="white"/>
<path d="M683.041 366.335C683.235 365.237 685.236 363.623 685.688 364.14C685.882 364.333 686.204 365.108 686.398 365.947C686.85 367.238 686.656 367.368 684.849 367.368C683.299 367.368 682.848 367.109 683.041 366.335Z" fill="white"/>
<path d="M651.926 366.27C651.926 365.947 652.248 365.302 652.571 364.785C653.088 364.011 653.217 364.075 653.217 365.302C653.217 366.076 652.959 366.722 652.571 366.722C652.248 366.722 651.926 366.528 651.926 366.27Z" fill="white"/>
<path d="M653.862 364.85C653.862 363.042 655.218 362.461 656.251 363.817C656.896 364.785 656.896 365.108 656.251 365.56C654.895 366.399 653.862 366.141 653.862 364.85Z" fill="white"/>
<path d="M673.487 364.011C672.325 362.72 672.325 362.655 673.422 363.042C674.068 363.301 674.907 363.494 675.23 363.494C675.553 363.494 675.811 363.946 675.811 364.463C675.811 365.818 674.907 365.689 673.487 364.011Z" fill="white"/>
<path d="M659.608 363.946C656.832 361.816 656.444 357.039 659.027 357.039C660.77 357.039 662.384 359.75 662.125 362.268C661.932 364.592 661.157 365.108 659.608 363.946Z" fill="white"/>
<path d="M677.296 364.333C677.554 364.14 677.941 364.14 678.2 364.333C678.393 364.592 678.2 364.785 677.748 364.785C677.296 364.785 677.102 364.592 677.296 364.333Z" fill="white"/>
<path d="M687.044 361.816C687.237 361.235 687.431 360.654 687.431 360.525C687.431 360.396 687.754 360.267 688.076 360.267C688.464 360.267 688.722 360.848 688.722 361.558C688.722 362.332 688.27 362.849 687.689 362.849C686.979 362.849 686.785 362.526 687.044 361.816Z" fill="white"/>
<path d="M653.217 361.622C653.217 360.137 654.572 357.684 655.347 357.684C656.703 357.684 655.734 361.816 654.314 362.074C653.733 362.203 653.217 362.01 653.217 361.622Z" fill="white"/>
<path d="M667.742 360.912L665.805 360.46L667.548 360.008C669.356 359.492 670.647 359.879 670.647 360.977C670.647 361.622 670.582 361.622 667.742 360.912Z" fill="white"/>
<path d="M665.482 357.813C665.482 355.167 666.967 354.779 668.323 357.103C669.226 358.653 669.291 358.975 668.452 358.975C667.935 358.975 667.096 359.169 666.515 359.363C665.74 359.686 665.482 359.298 665.482 357.813Z" fill="white"/>
<path d="M676.715 358.717C673.81 357.426 671.938 354.005 671.938 349.938C671.938 347.033 672.196 346.323 673.939 344.709C675.036 343.676 676.134 342.837 676.457 342.837C677.877 342.837 683.106 347.807 684.849 350.906L686.85 354.457L684.72 356.716C682.267 359.298 679.555 360.008 676.715 358.717Z" fill="white"/>
<path d="M663.223 357.039C663.029 356.716 663.158 356.393 663.481 356.393C663.868 356.393 664.191 356.716 664.191 357.039C664.191 357.426 664.062 357.684 663.933 357.684C663.739 357.684 663.416 357.426 663.223 357.039Z" fill="white"/>
<path d="M654.766 356.006C654.96 355.425 655.153 354.844 655.153 354.715C655.153 354.586 655.734 354.457 656.444 354.457C658.058 354.457 658.123 355.489 656.509 356.393C654.766 357.297 654.314 357.232 654.766 356.006Z" fill="white"/>
<path d="M659.866 355.231C658.381 355.038 657.929 354.198 658.898 353.617C659.156 353.424 660.318 353.101 661.48 352.843C663.223 352.455 663.546 352.584 663.546 353.682C663.546 355.038 662.19 355.619 659.866 355.231Z" fill="white"/>
<path d="M664.837 353.036C664.837 352.262 664.901 351.81 665.03 351.939C665.095 352.068 665.611 352.714 666.063 353.359C666.838 354.263 666.773 354.457 665.87 354.457C665.224 354.457 664.837 353.94 664.837 353.036Z" fill="white"/>
<path d="M655.799 352.584C655.799 352.197 656.122 351.745 656.444 351.552C656.832 351.358 657.09 351.616 657.09 352.133C657.09 352.714 656.832 353.165 656.444 353.165C656.122 353.165 655.799 352.907 655.799 352.584Z" fill="white"/>
<path d="M658.187 351.616C657.671 350.325 662.254 348.905 663.029 350.131C663.61 351.164 663.029 351.616 660.576 352.133C659.091 352.455 658.446 352.326 658.187 351.616Z" fill="white"/>
<path d="M664.256 349.55C664.256 348.84 664.449 348.647 664.643 349.163C664.837 349.615 664.772 350.196 664.578 350.39C664.385 350.648 664.191 350.26 664.256 349.55Z" fill="white"/>
<path d="M658.768 348.518C659.543 347.097 661.803 344.773 662.384 344.773C663.029 344.773 663.094 347.807 662.448 348.195C662.125 348.324 661.092 348.647 660.124 348.905C658.704 349.228 658.381 349.163 658.768 348.518Z" fill="white"/>
<path d="M663.933 347.033C663.223 345.096 663.546 344.257 665.095 343.999C666.709 343.676 666.709 343.676 665.676 345.677C664.385 348.259 664.449 348.259 663.933 347.033Z" fill="white"/>
<path d="M663.546 343.159C663.546 343.03 664.837 342.127 666.451 341.223C668.387 340.061 669.743 339.673 670.711 339.932C671.873 340.319 671.55 340.577 668.71 341.933C665.547 343.353 663.546 343.87 663.546 343.159Z" fill="white"/>
<path d="M699.374 285.964C697.631 283.446 693.951 279.379 691.304 276.926C688.657 274.473 686.914 272.472 687.431 272.472C688.851 272.472 699.696 275.441 702.408 276.603C704.667 277.571 704.732 277.701 704.151 279.702C703.828 280.864 703.57 283.769 703.57 286.157C703.57 288.61 703.376 290.547 703.118 290.547C702.795 290.547 701.181 288.481 699.374 285.964Z" fill="white"/>
<path d="M568.004 481.501C565.357 480.145 564.776 479.371 561.419 472.722C556.578 463.297 556.449 461.102 561.032 466.46C562.84 468.59 567.036 472.98 570.328 476.208C575.944 481.63 576.202 482.017 574.33 481.759C572.975 481.566 572.458 481.695 572.781 482.211C573.556 483.373 571.103 483.05 568.004 481.501Z" fill="white"/>
<path fill-rule="evenodd" clip-rule="evenodd" d="M676.191 599.115C675.655 597.842 676.252 596.377 677.525 595.841L678.916 595.251C692.438 589.465 700.2 585.989 705.474 580.47C710.748 574.951 711.379 566.845 712.369 561.912C712.641 560.559 715.706 562.936 717.06 563.208C718.414 563.48 719.291 564.798 719.019 566.151C717.828 572.082 714.619 577.736 709.455 583.103C704.308 588.452 694.342 594.186 679.465 600.449C678.193 600.985 676.727 600.387 676.191 599.115Z" fill="#00160A"/>
<path fill-rule="evenodd" clip-rule="evenodd" d="M737.341 341.54C738.528 340.834 740.062 341.223 740.768 342.409C747.84 354.288 751.628 367.868 751.628 381.996C751.628 424.798 716.93 459.496 674.128 459.496C662.754 459.496 651.723 457.043 641.622 452.369C640.368 451.789 635.635 447.173 640.402 449.051C645.17 450.928 663.616 455.142 674.261 455.142C714.301 455.142 742.628 422.037 742.628 381.996C742.628 368.774 737.341 357.039 736.472 344.967C736.371 343.567 736.155 342.246 737.341 341.54Z" fill="#00160A"/>
<path fill-rule="evenodd" clip-rule="evenodd" d="M489.747 530.752C490.63 529.691 492.207 527.547 493.268 528.431C497.62 532.056 502.264 536.256 507.232 537.066C512.402 537.91 518.535 537.91 525.623 537.052C526.994 536.886 528.239 537.863 528.405 539.233C528.571 540.604 527.595 541.85 526.224 542.016C518.696 542.927 512.1 542.927 506.427 542.001C500.552 541.043 495.088 538.454 490.068 534.273C489.007 533.389 488.863 531.812 489.747 530.752Z" fill="#00160A"/>
<path d="M542.827 443.284C539.6 440.702 532.692 433.085 527.463 426.371C524.752 422.82 521.718 415.59 519.91 408.296C519.071 405.003 518.232 402.034 518.038 401.646C517.78 401.324 516.747 396.74 515.714 391.447C514.165 383.958 514.493 381.546 513.132 372.589C512.556 368.796 512.035 365.778 512.035 365.778L513.713 363.623C514.681 362.332 515.906 360.196 516.36 358.975C518.426 353.417 533.596 335.994 534.048 336.446C534.177 336.575 533.661 339.609 532.757 343.159C531.918 346.71 530.885 352.068 530.433 355.102C529.787 360.137 529.529 360.718 527.528 362.397C525.01 364.527 520.233 371.37 520.233 372.79C520.233 374.727 523.138 373.436 526.172 370.273L529.271 367.045V370.595C529.271 372.919 528.819 375.05 527.98 376.728C526.366 379.891 526.366 383.248 527.915 385.83C528.69 387.121 529.4 390.22 529.852 393.9C531.853 410.555 536.114 425.015 543.408 439.54C545.216 443.155 546.636 446.125 546.572 446.125C546.443 446.125 544.764 444.834 542.827 443.284Z" fill="white"/>
<path fill-rule="evenodd" clip-rule="evenodd" d="M811.441 483.115L816.089 485.181C817.053 485.626 827.685 490.734 840.457 496.871C861.048 506.765 887.199 519.33 887.358 519.33C887.616 519.33 888.828 516.529 889.101 513.262C889.747 506.226 892.135 496.672 894.911 490.022C896.202 487.053 897.235 483.341 897.235 483.019C897.235 482.871 896.186 482.448 894.467 481.755C892.422 480.93 889.429 479.723 886.132 478.144C869.864 470.333 838.038 454.388 834.1 451.999C830.227 449.74 829.452 449.546 829.452 451.031C829.452 452.968 825.514 461.941 822.48 466.783C820.866 469.429 817.703 474.206 815.444 477.37L811.441 483.115ZM886.261 507.71C888.112 508.783 884.905 510.357 884.13 510.615C879.569 511.003 874.199 510.145 869.799 507.581C867.499 505.95 849.384 495.886 837.368 489.211C831.875 486.159 827.656 483.815 826.805 483.309C824.094 481.695 821.512 479.952 821.06 479.435C819.704 477.692 820.996 476.918 824.804 477.24C827.094 477.434 882.262 505.393 886.261 507.71Z" fill="white"/>
<path d="M765.091 488.925C763.412 488.344 761.605 487.053 760.443 485.568L758.506 483.179L765.349 476.401C775.871 466.072 783.618 454.784 790.59 442.196C792.914 438 799.821 421.077 800.661 419.205C801.952 416.494 802.92 415.461 805.696 413.912C808.988 411.975 812.732 411.33 814.346 412.427C817.445 414.493 817.445 421.013 814.346 432.245C810.925 444.576 806.341 453.42 796.852 466.137C795.367 468.074 792.591 471.882 790.59 474.529C785.232 481.63 781.746 485.052 777.033 487.698C772.385 490.281 769.674 490.603 765.091 488.925Z" fill="white"/>
<path d="M789.428 487.44L788.072 486.084C788.072 486.084 810.573 457.497 814.605 446.964C817.681 438.926 819.492 436.646 821.935 436.646C823.301 436.646 824.417 436.958 824.933 437.733C825.837 439.088 826.708 440.767 825.546 446.512C823.609 455.808 820.64 461.941 811.731 475.175C809.665 478.209 807.019 481.566 805.857 482.728C803.145 485.245 797.046 487.827 793.495 488.408C791.236 488.731 790.59 488.602 789.428 487.44Z" fill="white"/>
<path fill-rule="evenodd" clip-rule="evenodd" d="M827.223 457.547C828.524 454.569 829.452 451.971 829.452 451.031C829.452 449.546 830.227 449.74 834.1 451.999C838.038 454.388 869.864 470.333 886.132 478.144C892.2 481.049 897.235 482.696 897.235 483.019C897.235 483.341 825.842 460.705 827.223 457.547Z" fill="#E7EAEE"/>
<path fill-rule="evenodd" clip-rule="evenodd" d="M606.35 461.231C598.151 455.873 585.757 443.284 579.753 434.311C571.167 421.4 565.486 407.585 562.71 392.738C560.709 381.957 560.774 365.366 562.775 355.748C564.841 345.935 567.488 338.447 572.2 328.957C577.687 317.983 583.497 309.914 592.212 301.199C600.758 292.652 562.775 327.994 572.2 391.229C579.753 444.219 612.213 465.094 606.35 461.231Z" fill="#E7EAEE"/>
</g>
<defs>
<linearGradient id="paint0_linear_503_181" x1="724" y1="0" x2="724" y2="966" gradientUnits="userSpaceOnUse">
<stop offset="0.15" stop-color="#FAF9F6"/>
<stop offset="1" stop-color="white"/>
</linearGradient>
<clipPath id="clip0_503_181">
<rect width="1448" height="966" rx="50" fill="white"/>
</clipPath>
</defs>
</svg>
