<svg width="48" height="33" viewBox="0 0 48 33" fill="none" xmlns="http://www.w3.org/2000/svg">
<path fill-rule="evenodd" clip-rule="evenodd" d="M12.7059 23.1781C12.3983 23.1369 12.0846 23.1014 11.7647 23.072V16.2824L12.2353 15.5294L12.7059 15.7182V23.1781C20.1428 24.1745 23.9859 28.4706 23.9859 28.4706C30.2226 21.912 40.4706 23.0588 40.4706 23.0588C39.2235 19.2362 35.7647 15.5294 35.7647 15.5294L23.9859 20.2426L12.2353 15.5294L7.52941 23.0588C9.41285 22.9048 11.1391 22.9682 12.7059 23.1781ZM24 0L48 9.41176L24 18.8235L0 9.41176L24 0ZM21.6471 9.41176C21.6471 8.63205 22.7005 8 24 8C25.2995 8 26.3529 8.63205 26.3529 9.41176C26.3529 10.1915 25.2995 10.8235 24 10.8235C23.6508 10.8235 23.3194 10.7779 23.0215 10.696L13.1829 14.5812L11.4344 13.8956L21.7368 9.79939C21.6784 9.67624 21.6471 9.54616 21.6471 9.41176ZM10.8235 26.3574C10.8235 25.5752 11.4572 24.9412 12.2353 24.9412C13.015 24.9412 13.6471 25.5702 13.6471 26.3574V32.4706H10.8235V26.3574Z" fill="#F57064"/>
</svg>
