<svg width="111" height="44" viewBox="0 0 111 44" fill="none" xmlns="http://www.w3.org/2000/svg">
<path d="M48.919 25.728C48.919 24.2347 49.0897 22.7733 49.431 21.344C49.7937 19.8933 50.295 18.528 50.935 17.248C51.575 15.9467 52.3323 14.7627 53.207 13.696C54.103 12.608 55.0737 11.6693 56.119 10.88C57.1857 10.0907 58.3163 9.48267 59.511 9.056C60.7057 8.608 61.9323 8.384 63.191 8.384C64.663 8.384 65.8043 8.69333 66.615 9.312C67.447 9.93067 67.863 10.7947 67.863 11.904C67.863 12.3307 67.799 12.768 67.671 13.216C67.5643 13.664 67.3937 14.112 67.159 14.56C66.9457 14.9867 66.6897 15.4027 66.391 15.808C66.0923 16.2133 65.7617 16.5653 65.399 16.864C64.8443 16.7787 64.3643 16.5333 63.959 16.128C63.5537 15.7013 63.2977 15.2107 63.191 14.656C63.9377 14.0373 64.5243 13.3973 64.951 12.736C65.399 12.0533 65.623 11.4347 65.623 10.88C65.623 9.94133 65.0363 9.472 63.863 9.472C63.3723 9.472 62.8603 9.57867 62.327 9.792C61.815 9.984 61.2923 10.2613 60.759 10.624C60.2257 10.9867 59.703 11.424 59.191 11.936C58.7003 12.448 58.2417 13.0133 57.815 13.632C54.8497 17.8987 53.367 22.2613 53.367 26.72C53.367 28.2987 53.6123 29.568 54.103 30.528C54.5937 31.488 55.2443 32.0533 56.055 32.224C56.9723 32.0107 58.135 31.424 59.543 30.464C60.951 29.504 62.487 28.256 64.151 26.72C64.3643 26.9333 64.4923 27.1573 64.535 27.392C63.9163 28.2027 63.2763 28.9813 62.615 29.728C61.9537 30.4747 61.2923 31.1573 60.631 31.776C59.991 32.3947 59.351 32.9387 58.711 33.408C58.0923 33.8773 57.5163 34.24 56.983 34.496C54.3377 34.4533 52.3323 33.696 50.967 32.224C49.6017 30.752 48.919 28.5867 48.919 25.728ZM87.7835 10.432C87.8475 10.7947 87.8902 11.0507 87.9115 11.2C87.9542 11.328 87.9755 11.5093 87.9755 11.744C87.9755 12.448 87.8155 13.1093 87.4955 13.728C87.1968 14.3253 86.7808 14.752 86.2475 15.008C85.8208 14.432 85.2982 13.9413 84.6795 13.536C84.0608 13.1093 83.3782 12.768 82.6315 12.512C81.9062 12.2347 81.1488 12.032 80.3595 11.904C79.5702 11.776 78.8022 11.712 78.0555 11.712C77.3088 11.712 76.6048 11.776 75.9435 11.904C75.3035 12.0107 74.7275 12.1707 74.2155 12.384C73.7248 12.576 73.3302 12.8213 73.0315 13.12C72.7542 13.4187 72.6155 13.76 72.6155 14.144C72.6795 14.6133 72.9675 15.0933 73.4795 15.584C73.9915 16.0533 74.6208 16.5227 75.3675 16.992C76.1142 17.44 76.9355 17.888 77.8315 18.336C78.7488 18.784 79.6448 19.2107 80.5195 19.616C81.6075 20.128 82.5462 20.608 83.3355 21.056C84.1248 21.4827 84.7755 21.9627 85.2875 22.496C85.7995 23.008 86.1835 23.5947 86.4395 24.256C86.6955 24.9173 86.8235 25.7173 86.8235 26.656C86.8235 27.744 86.6422 28.768 86.2795 29.728C85.9168 30.6667 85.3835 31.488 84.6795 32.192C83.9968 32.896 83.1648 33.44 82.1835 33.824C81.2022 34.2293 80.1035 34.432 78.8875 34.432C77.6928 34.432 76.4022 34.2507 75.0155 33.888C73.6288 33.5253 72.3275 33.024 71.1115 32.384C69.9168 31.7653 68.9142 31.0507 68.1035 30.24C67.3142 29.408 66.9195 28.5333 66.9195 27.616C66.9195 27.1893 67.0368 26.6453 67.2715 25.984C67.5275 25.3227 67.9755 24.6293 68.6155 23.904C68.6795 24.544 69.0208 25.3013 69.6395 26.176C70.2795 27.0507 71.2288 27.8613 72.4875 28.608C73.6608 29.2907 74.8662 29.792 76.1035 30.112C77.3622 30.4107 78.5355 30.56 79.6235 30.56C80.8182 30.56 81.7888 30.4107 82.5355 30.112C83.2822 29.8133 83.8688 29.4613 84.2955 29.056C84.7222 28.6293 85.0208 28.2027 85.1915 27.776C85.3622 27.3493 85.4582 27.008 85.4795 26.752C85.4582 26.3253 85.2555 25.92 84.8715 25.536C84.5088 25.1307 84.0075 24.7467 83.3675 24.384C82.7488 24 82.0235 23.616 81.1915 23.232C80.3595 22.848 79.4955 22.464 78.5995 22.08C77.2555 21.4827 76.0928 20.928 75.1115 20.416C74.1515 19.8827 73.3515 19.3493 72.7115 18.816C72.0928 18.2613 71.6342 17.6853 71.3355 17.088C71.0582 16.4907 70.9195 15.808 70.9195 15.04C70.9195 13.8453 71.2822 12.7147 72.0075 11.648C72.7328 10.5813 73.7782 9.77067 75.1435 9.216C75.8262 8.91733 76.5515 8.704 77.3195 8.576C78.1088 8.448 78.8768 8.384 79.6235 8.384C81.0315 8.384 82.4075 8.576 83.7515 8.96C85.0955 9.344 86.4395 9.83467 87.7835 10.432ZM110.252 10.432C110.316 10.7947 110.359 11.0507 110.38 11.2C110.423 11.328 110.444 11.5093 110.444 11.744C110.444 12.448 110.284 13.1093 109.964 13.728C109.666 14.3253 109.25 14.752 108.716 15.008C108.29 14.432 107.767 13.9413 107.148 13.536C106.53 13.1093 105.847 12.768 105.1 12.512C104.375 12.2347 103.618 12.032 102.828 11.904C102.039 11.776 101.271 11.712 100.524 11.712C99.7776 11.712 99.0736 11.776 98.4123 11.904C97.7723 12.0107 97.1963 12.1707 96.6843 12.384C96.1936 12.576 95.7989 12.8213 95.5003 13.12C95.2229 13.4187 95.0843 13.76 95.0843 14.144C95.1483 14.6133 95.4363 15.0933 95.9483 15.584C96.4603 16.0533 97.0896 16.5227 97.8363 16.992C98.5829 17.44 99.4043 17.888 100.3 18.336C101.218 18.784 102.114 19.2107 102.988 19.616C104.076 20.128 105.015 20.608 105.804 21.056C106.594 21.4827 107.244 21.9627 107.756 22.496C108.268 23.008 108.652 23.5947 108.908 24.256C109.164 24.9173 109.292 25.7173 109.292 26.656C109.292 27.744 109.111 28.768 108.748 29.728C108.386 30.6667 107.852 31.488 107.148 32.192C106.466 32.896 105.634 33.44 104.652 33.824C103.671 34.2293 102.572 34.432 101.356 34.432C100.162 34.432 98.8709 34.2507 97.4843 33.888C96.0976 33.5253 94.7963 33.024 93.5803 32.384C92.3856 31.7653 91.3829 31.0507 90.5723 30.24C89.7829 29.408 89.3883 28.5333 89.3883 27.616C89.3883 27.1893 89.5056 26.6453 89.7403 25.984C89.9963 25.3227 90.4443 24.6293 91.0843 23.904C91.1483 24.544 91.4896 25.3013 92.1083 26.176C92.7483 27.0507 93.6976 27.8613 94.9563 28.608C96.1296 29.2907 97.3349 29.792 98.5723 30.112C99.8309 30.4107 101.004 30.56 102.092 30.56C103.287 30.56 104.258 30.4107 105.004 30.112C105.751 29.8133 106.338 29.4613 106.764 29.056C107.191 28.6293 107.49 28.2027 107.66 27.776C107.831 27.3493 107.927 27.008 107.948 26.752C107.927 26.3253 107.724 25.92 107.34 25.536C106.978 25.1307 106.476 24.7467 105.836 24.384C105.218 24 104.492 23.616 103.66 23.232C102.828 22.848 101.964 22.464 101.068 22.08C99.7243 21.4827 98.5616 20.928 97.5803 20.416C96.6203 19.8827 95.8203 19.3493 95.1803 18.816C94.5616 18.2613 94.1029 17.6853 93.8043 17.088C93.5269 16.4907 93.3883 15.808 93.3883 15.04C93.3883 13.8453 93.7509 12.7147 94.4763 11.648C95.2016 10.5813 96.2469 9.77067 97.6123 9.216C98.2949 8.91733 99.0203 8.704 99.7883 8.576C100.578 8.448 101.346 8.384 102.092 8.384C103.5 8.384 104.876 8.576 106.22 8.96C107.564 9.344 108.908 9.83467 110.252 10.432Z" fill="white"/>
<path d="M36.7064 9.16314C36.2742 8.73092 35.842 8.2987 35.4098 7.86648C34.1131 6.48337 32.73 5.10027 31.0011 4.23583C29.0129 3.1985 26.8518 3.45783 24.6907 3.45783C21.4058 3.45783 13.1936 3.45783 8.35278 3.45783L11.6377 7.86648C17.6023 7.86648 26.9382 7.86648 31.2604 7.86648C33.0758 7.86648 34.6318 8.21226 36.1013 9.16314C36.3607 9.24958 36.62 9.24958 36.7064 9.16314Z" fill="#66C61C"/>
<path d="M40.3371 16.2516C39.9049 15.8194 39.4727 15.3872 39.0405 14.955C37.7438 13.5719 36.3607 12.1888 34.6318 11.3243C32.6436 10.287 30.4825 10.5463 28.3214 10.5463C25.4688 10.5463 18.6397 10.5463 13.7988 10.5463L17.0837 14.955C22.9619 14.955 31.0012 14.955 34.9776 14.955C36.7929 14.955 38.3489 15.3007 39.8185 16.2516C39.9914 16.3381 40.1643 16.3381 40.3371 16.2516Z" fill="#4CA30D"/>
<path d="M44.3999 23.1669C43.9676 22.7347 43.5354 22.3025 43.1032 21.8703C41.8065 20.4872 40.4234 19.104 38.6946 18.2396C36.7064 17.2023 34.5453 17.4616 32.3842 17.4616C29.7044 17.4616 23.8262 17.4616 19.0718 17.4616L22.3566 21.8703C28.0619 21.8703 35.3233 21.8703 38.9539 21.8703C40.7692 21.8703 42.3252 22.216 43.7948 23.1669C44.0541 23.2534 44.227 23.3398 44.3999 23.1669Z" fill="#3B7C0F"/>
<path d="M8.00708 34.8369C8.4393 35.2691 8.87152 35.7013 9.30374 36.1335C10.6004 37.5166 11.9835 38.8997 13.7124 39.7642C15.7006 40.8015 17.8617 40.5422 20.0228 40.5422H36.3607L33.0758 36.1335C27.1112 36.1335 17.7753 36.1335 13.4531 36.1335C11.6377 36.1335 10.0817 35.7878 8.61219 34.8369C8.35285 34.7504 8.17997 34.7504 8.00708 34.8369Z" fill="#66C61C"/>
<path d="M4.37646 27.7487C4.80868 28.1809 5.24091 28.6131 5.67313 29.0453C6.96979 30.4284 8.35288 31.8116 10.0818 32.676C12.07 33.7133 14.2311 33.454 16.3922 33.454H30.9148L27.6299 29.0453C21.7517 29.0453 13.7124 29.0453 9.73599 29.0453C7.92067 29.0453 6.36467 28.6996 4.89512 27.7487C4.72223 27.6622 4.54935 27.6622 4.37646 27.7487Z" fill="#4CA30D"/>
<path d="M0.399902 20.7465C0.832122 21.1787 1.26434 21.6109 1.69656 22.0431C2.99322 23.4262 4.37633 24.8094 6.10521 25.6738C8.09343 26.7111 10.2545 26.4518 12.4156 26.4518H25.728L22.4431 22.0431C16.7378 22.0431 9.47653 22.0431 5.84588 22.0431C4.03055 22.0431 2.47456 21.6974 1.00501 20.7465C0.745676 20.66 0.57279 20.66 0.399902 20.7465Z" fill="#3B7C0F"/>
</svg>
