<svg width="1000" height="1000" viewBox="0 0 1000 1000" fill="none" xmlns="http://www.w3.org/2000/svg">
<path d="M622.5 622.667H604.667C608.167 617.833 610.333 611.167 610.333 604C610.333 588.833 601 576.667 589.333 576.667H167.833C156.167 576.667 146.833 589 146.833 604C146.833 619.167 156.167 631.333 167.833 631.333H179.833C181.667 631.333 183.333 631.833 184.667 632.667C181.667 637.333 179.833 643.5 179.833 650C179.833 665.167 189.167 677.333 200.833 677.333H212.833C219.5 677.333 224.833 684.5 224.833 693.333V693.5C224.833 708.667 234.167 720.833 245.833 720.833H545.333C557 720.833 566.333 708.5 566.333 693.5V693.333C566.333 684.667 571.667 677.333 578.333 677.333H622.5C634.167 677.333 643.5 665 643.5 650C643.5 634.833 634.167 622.667 622.5 622.667Z" fill="#E1ECFF"/>
<path d="M592.167 473.833L367.667 388.5L364.5 544.833L563.167 637.833C568.333 640.333 574.333 636.833 575 631.167L592.167 473.833Z" fill="#FC7EC1"/>
<path d="M238.166 599.167L364.5 544.833L367.667 388.5L217.167 452.5L226.166 591.833C226.666 597.833 232.666 601.5 238.166 599.167Z" fill="#F969BB"/>
<path d="M367.667 388.5H321.833C313.167 388.5 304.667 390.333 296.833 393.833L171.667 449.167C168.333 450.667 169.5 455.667 173.167 455.333L217 452.5L367.667 388.5Z" fill="#FF97C9"/>
<path d="M367.667 388.5L592.166 473.833H616.333C619.166 473.833 619.833 469.833 617.166 468.833L406.666 391C402.333 389.333 397.667 388.5 393 388.5H367.667Z" fill="#FF97C9"/>
<path d="M421.667 581.667L405.167 628.833C405.167 628.833 374.167 597.333 348 543.167C341.333 529.5 338.833 515 338.667 501.167C338.167 466.333 353.5 435.833 360.333 435.167C367.5 434.5 358.167 463 360.667 491.667C361.5 501.167 363.5 510.5 367.833 519C390.167 562.833 421.667 581.667 421.667 581.667Z" fill="#FF8D76"/>
<path d="M360.5 491.667C355.333 494.833 346.5 499.5 338.5 501C338 466.167 353.333 435.667 360.167 435C367.333 434.5 358.167 463 360.5 491.667Z" fill="#FFD3B3"/>
<path d="M530.333 595.833C529 629.667 502.5 658.333 467.167 663.333C461.333 664.167 455.167 664.667 448.5 664.667C442 664.667 436.167 664.5 430.667 663.833C397.5 660.333 371.333 635.333 367.333 604C363.5 573.667 360.833 528.333 373 497.667C376 490 380.167 483.5 385 477.833C401.667 458.833 426.667 452 446.333 451.667C466.167 451.333 494 456.333 511.667 475.667C519.833 484.5 525.833 496.333 528 512.167C531.5 538.333 531.333 570.833 530.333 595.833Z" fill="#FEA691"/>
<path d="M446 632.833C478 633.333 501 619.833 503.167 585.5C505.333 551.167 510.333 495.667 448.5 494.333C386.667 493 393.167 555.333 392.667 578.667C392.167 602 406.5 632.167 446 632.833Z" fill="#FFD3B3"/>
<path d="M511.5 475.833C494.5 484.5 471.333 490 445.833 490C422.5 490 401.167 485.5 384.833 478.167C401.5 459.167 426.5 452.333 446.167 452C466 451.5 493.833 456.5 511.5 475.833Z" fill="#FF8D76"/>
<path d="M217.167 452.5L226.167 591.5C226.667 599.333 231.167 606.333 238.167 610L432.5 712.833L435.5 545.167L217.167 452.5Z" fill="#FF97C9"/>
<path d="M222.833 540.333L382.167 618C390.5 622 400.333 619.5 405.667 612L435.333 569.667V545.167L217 452.5L222.833 540.333Z" fill="#FC7EC1"/>
<path d="M194.667 514.167L384.167 603.5C389.667 606.167 396.167 604.333 399.667 599.167L435.667 545.167L217.333 452.5L189.667 496.5C185.5 502.833 188 511 194.667 514.167Z" fill="#FF97C9"/>
<path d="M560.5 649.5L432.5 712.833L435.5 545.167L592.167 473.833L575.333 628.333C574.333 637.5 568.667 645.333 560.5 649.5Z" fill="#FC7EC1"/>
<path d="M435.5 569.667L453.167 608C457.5 617.333 468.667 621.167 477.833 616.667L582.5 563.833L592.333 474L435.667 545.333V569.667H435.5Z" fill="#F969BB"/>
<path d="M466 599.167L435.5 545.167L592.167 473.833L620.667 521.667C623.5 526.333 621.667 532.5 616.833 534.833L478.333 602.833C473.833 605 468.5 603.333 466 599.167Z" fill="#FF97C9"/>
<path d="M628.5 382.5C628.167 389.167 620.667 427.333 583.167 459.5C548.167 489.5 500.833 512.333 500.833 512.333L498.167 442C498.167 442 541.167 429.333 566.333 407.5C591.5 385.667 600.333 364.167 606.667 361.5C609.333 360.333 611.667 360.5 613.333 360.833C615.667 361.333 617 362.667 617 362.667C617 362.667 617.167 362.667 617.5 362.5C618.667 362.167 621.5 361.833 624.167 364.833C626 366.833 625.5 372.667 625.5 372.667C625.5 372.667 627.5 374.667 628 378.833C628.5 380 628.667 381.167 628.5 382.5Z" fill="#FEA691"/>
<path d="M594.691 412.956C600.312 416.29 608.218 413.346 612.351 406.38C616.483 399.414 615.277 391.063 609.657 387.729C604.037 384.395 596.13 387.339 591.997 394.305C587.865 401.271 589.071 409.621 594.691 412.956Z" fill="#FFD3B3"/>
<path d="M617.833 362.667C617.5 364.167 616.833 366.667 615.333 370.333C612.667 376.667 610.667 379.5 609.667 379.833C607.167 380.833 606.833 377.333 609.333 372.5C611.167 368.667 612.833 363.167 613.5 361C615.833 361.5 617.167 362.833 617.167 362.833C617.167 362.833 617.5 362.667 617.833 362.667Z" fill="#FF8D76"/>
<path d="M628.5 379C628.167 379.667 628 380.333 627.667 381.167C624.833 387.5 622.667 390.167 621.667 390.5C619.167 391.334 619 388 621.5 383.167C624.167 378.333 626 372.833 626 372.833C626 372.833 627.833 374.833 628.5 379Z" fill="#FF8D76"/>
<path d="M502.833 511.667C502 511.667 501.167 511.167 500.833 510.333C500.333 509.167 500.833 507.833 502 507.333C502.333 507.167 542.167 489.833 576 462C618.833 426.833 624.167 391.5 624.167 391.167C624.333 390 625.5 389 626.667 389.167C627.833 389.333 628.833 390.5 628.667 391.667C628.5 393.167 623.167 428.833 578.833 465.333C544.5 493.5 504.333 511.167 503.833 511.333C503.5 511.5 503.167 511.667 502.833 511.667Z" fill="#FF8D76"/>
<path d="M464.5 308.5C464.5 308.5 481.167 270.667 491 268.833C500.667 267 505.667 290.833 509.667 310.667C513.833 330.5 514.833 347 514.833 347L464.5 308.5Z" fill="#FEA691"/>
<path d="M473.167 308.333C473.167 308.333 484.166 283.667 490.5 282.5C496.833 281.333 500 297 502.667 309.833C505.333 322.833 506.167 333.5 506.167 333.5L473.167 308.333Z" fill="#FFD3B3"/>
<path d="M429.167 308.5C429.167 308.5 412.5 270.667 402.667 268.833C393 267 388 290.833 384 310.667C380 330.5 378.833 347 378.833 347L429.167 308.5Z" fill="#FEA691"/>
<path d="M420.5 308.333C420.5 308.333 409.5 283.667 403.167 282.5C396.833 281.333 393.667 297 391 309.833C388.333 322.833 387.5 333.5 387.5 333.5L420.5 308.333Z" fill="#FFD3B3"/>
<path d="M519.667 412.5L476 411.333L412.833 409.667L372.333 408.667C372.333 408.667 370.5 351.833 387 324.5C395.667 310 411.833 299.833 429.667 295.667C438.667 293.5 448.167 292.833 457.333 294C469.333 295.5 480.833 300 489.833 308C519 333.833 516 357.833 517.833 377.667C519.667 397.5 519.667 412.5 519.667 412.5Z" fill="#FEA691"/>
<path d="M476 411.333L412.833 409.667C416.167 401.167 422 383.5 425.333 359.5C428.667 336.167 429.333 310.167 429.5 295.667C438.5 293.5 448 292.833 457.167 294C457.333 307.5 458.333 331 462.333 357.333C466.833 386.667 473 404 476 411.333Z" fill="#FFD3B3"/>
<path d="M525.667 429C525.667 456.5 490 478.833 446 478.833C402 478.833 366.333 456.5 366.333 429C366.333 394.833 402 379.167 446 379.167C490 379.167 525.667 396.5 525.667 429Z" fill="#FFD3B3"/>
<path d="M426 398.5C430.333 392.333 462.5 390.166 467 397C471.5 403.666 459.667 418.166 448.167 418.166C436.667 418.166 420.167 406.666 426 398.5Z" fill="#413F4C"/>
<path d="M390.333 322.833C389.833 322.833 389.333 322.667 389 322.333C388 321.667 387.833 320.167 388.5 319.167C388.667 318.833 394.167 311.667 403.667 305.5C415 298 420.833 296.5 421 296.5C422.167 296.167 423.5 296.833 423.667 298.167C424 299.333 423.333 300.667 422 300.833C422 300.833 416.5 302.333 406 309.333C397.167 315.167 391.833 322 391.833 322C391.667 322.5 391 322.833 390.333 322.833Z" fill="#FF8D76"/>
<path d="M500.333 322.833C500.833 322.833 501.333 322.667 501.667 322.333C502.667 321.667 502.833 320.167 502.167 319.167C502 318.833 496.5 311.667 487 305.5C475.667 298 469.833 296.5 469.667 296.5C468.5 296.167 467.167 296.833 467 298.167C466.667 299.333 467.333 300.667 468.667 300.833C468.667 300.833 474.167 302.333 484.667 309.333C493.5 315.167 498.833 322 498.833 322C499 322.5 499.667 322.833 500.333 322.833Z" fill="#FF8D76"/>
<path d="M430.167 442.5C430.167 442.5 443 441.167 449.167 431.167C456.5 441.333 467.167 439 467.167 439C467.167 439 469.333 459 451.167 460.5C432 462.167 430.167 442.5 430.167 442.5Z" fill="#FF6EA9"/>
<path d="M449 454C447.667 453.833 446.5 452.667 446.667 451.333C446.834 444.667 446.333 432.833 446.333 432.667C446.333 431.167 447.333 430 448.833 430C450.167 430 451.5 431 451.5 432.5C451.5 433 452 444.833 451.834 451.667C451.667 452.833 450.5 454 449 454C449.167 454 449 454 449 454Z" fill="#EA4E95"/>
<path d="M428.167 445.167C420.333 445.167 414.333 442.333 414.167 442.167C412.667 441.5 412.167 439.667 412.833 438.167C413.5 436.667 415.333 436.167 416.833 436.833C417.5 437.167 434.833 445.5 446.833 429.5C447.333 428.667 448.333 428.333 449.167 428.333C450.167 428.333 451 428.833 451.5 429.667C459.5 441.167 475.667 435.333 476.333 435.167C477.833 434.667 479.5 435.333 480.167 436.833C480.667 438.333 480 440 478.5 440.667C471.833 443.167 458 445 449.167 436C442.333 443.167 434.667 445.167 428.167 445.167Z" fill="#413F4C"/>
<path d="M481 376C485.05 376 488.333 372.12 488.333 367.333C488.333 362.547 485.05 358.667 481 358.667C476.95 358.667 473.667 362.547 473.667 367.333C473.667 372.12 476.95 376 481 376Z" fill="#413F4C"/>
<path d="M407 376C411.05 376 414.333 372.12 414.333 367.333C414.333 362.547 411.05 358.667 407 358.667C402.95 358.667 399.667 362.547 399.667 367.333C399.667 372.12 402.95 376 407 376Z" fill="#413F4C"/>
<path d="M468.667 340.667C470 336.167 478 336.667 483.833 338.667C489.667 340.667 494.333 344.5 493 346.833C491.667 349.333 466 349.333 468.667 340.667Z" fill="#FFD3B3"/>
<path d="M416.5 340.5C415 336 407 336.667 401.167 338.833C395.333 341 390.833 344.833 392.333 347.167C393.833 349.5 419.5 349 416.5 340.5Z" fill="#FFD3B3"/>
<path d="M844.5 668.167L759.333 697.667L720 711.333L710.5 714.667L641.167 738.667C631.333 742.167 620.333 739.667 612.667 732.5L603.833 724C598.833 719.167 599.167 711.333 603.667 706.833C604.833 705.667 606.333 704.667 608 704.167L811 633.5C817 631.5 823.5 632.667 828.167 636.833L847 653.167C847.667 653.667 848.167 654.333 848.667 655C852 659.667 850.167 666.167 844.5 668.167Z" fill="#BBCBFF"/>
<path d="M794.5 763.167L699.167 793.667C690.333 796.5 680.667 794.5 673.667 788.333L664.833 780.5C660 776.333 659.667 769.5 662.833 764.833C664.333 762.667 666.5 761 669.167 760.167L732.333 741.167C732.833 741 733.167 740.833 733.5 740.5C735.5 739 735.667 736.167 733.667 734.333L710.5 714.5L703 708.167L701.667 707C694.333 700.833 697 688.833 706.333 686.5L738.833 678L759.333 697.667L800.5 737C801.833 738.167 802.833 739.667 803.5 741.167C807.833 749.333 804 760.167 794.5 763.167Z" fill="#BBCBFF"/>
<path d="M733.667 740.5C735.667 739 735.833 736.167 733.833 734.333L710.667 714.5L641.333 738.5C631.5 742 620.5 739.5 612.833 732.333L604 723.833C599 719 599.333 711.167 603.833 706.667C608.167 713 623.167 727.667 633 728C642.5 728.333 712.333 703.5 712.333 703.5C712.333 703.5 742.833 729.5 744 730.833C747.167 734.167 739 739.167 733.667 740.5Z" fill="#99ADF9"/>
<path d="M844.5 668.167L759.333 697.667L750.333 689.333C750.333 689.333 834 659 844.833 656C846.333 655.667 847.667 655.333 849 655C852 659.667 850.167 666.167 844.5 668.167Z" fill="#99ADF9"/>
<path d="M794.5 763.167L699.167 793.667C690.333 796.5 680.667 794.5 673.667 788.334L664.833 780.5C660 776.333 659.667 769.5 662.833 764.834C670.333 770 685.667 780.667 689.5 781.667C694.5 782.834 715 776.167 737.333 768.167C759.667 760.167 796.333 745.333 803.667 741.333C807.833 749.333 804 760.167 794.5 763.167Z" fill="#99ADF9"/>
<path d="M807.667 526.667C804.5 516.833 796.167 508 780.333 500.333C731 476.333 677.5 525.333 645.667 559.667C629.667 577 619.5 592.667 617.167 606.333C614.833 619.833 620.167 631.167 635.333 639.5C693.667 671.833 744.5 629.5 776 595.167C797 571.667 814.333 547.333 807.667 526.667ZM738.333 570.833C709.167 597 683.5 619.667 663 607.833C661.333 606.833 660.167 605.667 659.5 604.167C656.167 596.5 667.333 582.167 693.5 560.333C724.667 534.167 742.833 520.167 758.833 526.167C762.833 527.667 765.333 529.5 766.333 531.833C769.833 539 760.333 551 738.333 570.833Z" fill="#BBCBFF"/>
<path d="M775.667 595C744.167 629.5 693.333 671.833 635 639.333C619.833 631 614.5 619.667 616.833 606.167C621.5 615.333 631.167 627.333 651.167 632.833C685.667 642.333 721 633.333 757.5 598C789.5 566.833 800.333 543.333 807.5 526.667C814.333 547.333 797 571.667 775.667 595Z" fill="#99ADF9"/>
<path d="M766.333 531.667C765.167 529.333 762.667 527.5 758.833 526C742.833 520 724.667 534 693.5 560.167C667.333 582.167 656.167 596.333 659.5 604C657.833 602.667 656 600.167 655.333 594.833C654.167 584.833 660.333 575.167 678.333 558.5C696.333 541.833 722.167 520.667 738 517.333C753.667 514.167 764.667 522.333 766.167 528.833C766.333 529.833 766.333 530.667 766.333 531.667Z" fill="#99ADF9"/>
<path d="M669 475.333L654 482.333C645.333 486.333 634.833 482.5 631 473.667L551.667 292.667C549.333 287.167 550.5 281 554.333 276.833C555.667 275.333 557.333 274.167 559.167 273.333L578.167 264.833C585.667 261.5 594.333 264.833 597.667 272.333L677.5 452.833C678.333 454.5 678.667 456.333 678.833 458.167C679.5 465.167 675.833 472.167 669 475.333Z" fill="#BBCBFF"/>
<path d="M717.167 338.5L642 372.333L626 379.5L599.667 342.5L660.333 315C661.167 314.667 661.833 314.167 662.5 313.5C665.167 311 665.667 306.667 663.167 303.5L632.667 265C627.833 258.833 628.5 250.5 633.167 245C634.667 243.167 636.667 241.833 639 240.833L651.333 236C657.667 233.5 665 235.333 669.333 240.833L724.167 310C724.833 310.833 725.333 311.667 725.833 312.667C730.833 322 727.167 333.833 717.167 338.5Z" fill="#BBCBFF"/>
<path d="M717.167 338.5L642 372.333L635.667 359C635.667 359 698.5 333.5 714.667 324.166C720.667 320.666 724 316.5 725.833 312.667C730.833 322 727.167 333.833 717.167 338.5Z" fill="#99ADF9"/>
<path d="M669 475.333L654 482.333C645.333 486.333 634.833 482.5 631 473.667L551.667 292.667C549.333 287.167 550.5 281 554.333 276.833C570.333 312.167 641 468.167 641.833 470.333C642.833 472.833 643.167 474.5 650.333 471.333C657 468.333 673.167 462.333 679 458.167C679.5 465.167 675.833 472.167 669 475.333Z" fill="#99ADF9"/>
<path d="M662.333 313.666C665 311.166 665.5 306.833 663 303.666L632.5 265.167C627.667 259 628.333 250.667 633 245.167C639.5 253.667 672.167 296 675.167 301.5C677.5 305.5 668.667 310.666 662.333 313.666Z" fill="#99ADF9"/>
<path d="M350.5 308.333C355.379 308.333 359.333 304.379 359.333 299.5C359.333 294.622 355.379 290.667 350.5 290.667C345.622 290.667 341.667 294.622 341.667 299.5C341.667 304.379 345.622 308.333 350.5 308.333Z" fill="#BBCBFF"/>
<path d="M350.5 273.833C355.379 273.833 359.333 269.879 359.333 265C359.333 260.122 355.379 256.167 350.5 256.167C345.622 256.167 341.667 260.122 341.667 265C341.667 269.879 345.622 273.833 350.5 273.833Z" fill="#BBCBFF"/>
<path d="M350.5 239.333C355.379 239.333 359.333 235.379 359.333 230.5C359.333 225.622 355.379 221.667 350.5 221.667C345.622 221.667 341.667 225.622 341.667 230.5C341.667 235.379 345.622 239.333 350.5 239.333Z" fill="#BBCBFF"/>
</svg>
