<svg width="76" height="47" viewBox="0 0 76 47" fill="none" xmlns="http://www.w3.org/2000/svg">
<g filter="url(#filter0_d_115_175)">
<mask id="mask0_115_175" style="mask-type:luminance" maskUnits="userSpaceOnUse" x="28" y="9" width="16" height="19">
<path d="M43.1333 9.75555H28.8815V27.1749H43.1333V9.75555Z" fill="white"/>
</mask>
<g mask="url(#mask0_115_175)">
<path d="M42.4855 9.75555V14.5697H34.4313C34.334 14.5686 34.2376 14.5868 34.1474 14.6232C34.0572 14.6596 33.9751 14.7135 33.9059 14.7818C33.8496 14.8375 33.8036 14.9028 33.7701 14.9747C33.845 13.7552 34.3071 12.5914 35.0892 11.6527C35.8713 10.714 36.9325 10.0494 38.1184 9.75555H42.4855Z" fill="url(#paint0_linear_115_175)"/>
<path d="M38.2656 21.8971C38.1992 23.1227 37.7419 24.2948 36.9608 25.2416C36.1797 26.1884 35.1158 26.8601 33.9252 27.1583H29.7585V22.3451H37.5816C37.6811 22.3464 37.7799 22.3276 37.872 22.2897C37.96 22.2538 38.0399 22.2006 38.1069 22.1331C38.1743 22.0652 38.2282 21.9851 38.2656 21.8971Z" fill="url(#paint1_linear_115_175)"/>
<path d="M43.1333 21.6078C43.1368 22.3502 42.9885 23.0855 42.6976 23.7686C42.6384 23.9062 42.5735 24.0417 42.5029 24.1736C42.5009 24.1792 42.4989 24.1812 42.4989 24.185C42.4983 24.1878 42.4969 24.1905 42.4951 24.1928C41.8967 25.324 40.9275 26.215 39.7499 26.7163C39.0653 27.0115 38.327 27.1617 37.5815 27.1576H33.9269L33.9689 27.1462C35.1497 26.8406 36.2025 26.1671 36.9749 25.2233C37.7474 24.2794 38.1994 23.1142 38.2655 21.8964V21.8944C38.3354 21.7126 38.3367 21.5116 38.2693 21.3289C38.2675 21.3252 38.2655 21.3194 38.2635 21.3156C38.2272 21.2278 38.174 21.1479 38.1069 21.0806C38.0381 21.0118 37.9561 20.9576 37.8658 20.9215C37.7755 20.8853 37.6787 20.8679 37.5815 20.8703H34.4313C34.2747 20.8703 34.118 20.8648 33.9631 20.8494C33.9576 20.8494 33.9518 20.8474 33.9443 20.8474C33.3656 20.8016 32.7986 20.6596 32.2667 20.4273C30.943 19.8575 29.889 18.8008 29.3228 17.4756C29.2482 17.3049 29.1831 17.1302 29.1278 16.9523C28.9625 16.4196 28.8795 15.8649 28.8815 15.3072C28.8782 14.563 29.0284 13.8262 29.3228 13.1427C29.8923 11.8217 30.9456 10.7684 32.2667 10.1988C32.6523 10.03 33.0572 9.9094 33.4723 9.83971C33.4876 9.83568 33.499 9.83391 33.5065 9.8319C33.5103 9.83093 33.5142 9.83034 33.5181 9.83014C33.8199 9.77967 34.1254 9.7544 34.4313 9.75458H38.1184C36.9325 10.0484 35.8713 10.7131 35.0893 11.6518C34.3072 12.5905 33.8451 13.7542 33.7702 14.9737C33.7622 14.9879 33.7552 15.0026 33.7493 15.0178C33.7116 15.1092 33.6928 15.2073 33.6939 15.3062C33.6928 15.4097 33.7122 15.5124 33.7511 15.6084C33.7551 15.6191 33.7603 15.6293 33.7664 15.6389C33.7994 15.7154 33.8467 15.7848 33.906 15.8434C33.9749 15.912 34.057 15.9661 34.1472 16.0026C34.2374 16.039 34.334 16.057 34.4313 16.0554H37.5815C38.3254 16.0515 39.0624 16.199 39.7474 16.4891C41.0794 17.049 42.1389 18.1086 42.6989 19.4406C42.7729 19.6132 42.8374 19.7898 42.8921 19.9695C43.0538 20.5004 43.1352 21.0527 43.1333 21.6078Z" fill="url(#paint2_linear_115_175)"/>
<g style="mix-blend-mode:multiply" opacity="0.16">
<path d="M38.2655 21.8971C38.199 23.1227 37.7418 24.2948 36.9607 25.2416C36.1796 26.1884 35.1157 26.8601 33.9251 27.1583H32.7635C33.7383 26.6996 34.5987 26.0298 35.2826 25.1975C35.9665 24.3651 36.4567 23.3911 36.7176 22.3459H37.581C37.6805 22.3472 37.7793 22.3283 37.8713 22.2905C37.9594 22.2546 38.0393 22.2013 38.1063 22.1338C38.174 22.0658 38.228 21.9854 38.2655 21.8971Z" fill="url(#paint3_linear_115_175)"/>
</g>
<g style="mix-blend-mode:multiply" opacity="0.16">
<path d="M39.1653 9.75555C38.0897 10.5559 35.9061 12.4033 35.3558 14.5697H34.4313C34.334 14.5686 34.2376 14.5868 34.1474 14.6232C34.0572 14.6596 33.9751 14.7135 33.9059 14.7818C33.8496 14.8375 33.8036 14.9028 33.7701 14.9747C33.845 13.7552 34.3071 12.5914 35.0892 11.6527C35.8713 10.714 36.9325 10.0494 38.1184 9.75555H39.1653Z" fill="url(#paint4_linear_115_175)"/>
</g>
<g style="mix-blend-mode:multiply" opacity="0.25">
<path d="M42.4856 11.1959V14.5707H35.7592C36.3188 14.5153 36.8804 14.4773 37.4403 14.4504C38.0001 14.4234 38.5618 14.4 39.1214 14.3912C39.683 14.374 40.2429 14.3761 40.8045 14.3703C41.3082 14.3761 41.8074 14.3761 42.3101 14.3874C42.3156 14.1678 42.3197 13.9479 42.329 13.7265C42.3385 13.4455 42.3481 13.1647 42.3655 12.8838C42.3932 12.3212 42.4302 11.7576 42.4856 11.1959Z" fill="url(#paint5_linear_115_175)"/>
</g>
<g style="mix-blend-mode:screen" opacity="0.7">
<path d="M43.1333 21.6077C43.1367 22.3502 42.9884 23.0855 42.6975 23.7686C42.6384 23.9062 42.5734 24.0416 42.5029 24.1736C42.522 24.122 42.585 23.9575 42.6792 23.7054C42.8251 23.2767 42.9206 22.8325 42.9638 22.3817C42.991 22.0831 42.9968 21.783 42.9811 21.4836C42.962 21.1525 42.916 20.8235 42.8436 20.4998C42.8061 20.3325 42.7596 20.1673 42.7041 20.005C42.6391 19.837 42.5741 19.6667 42.5092 19.4967C42.3634 19.1624 42.1841 18.8437 41.9742 18.5455C41.7697 18.2433 41.5333 17.9639 41.269 17.7123C41.0145 17.4682 40.7382 17.2476 40.4437 17.0535C40.1644 16.8721 39.8712 16.713 39.5668 16.5778C39.2926 16.4598 39.0097 16.3633 38.7205 16.2891C38.2804 16.18 37.8305 16.1154 37.3774 16.0962C37.045 16.071 36.8558 16.0562 36.8558 16.0562H37.5799C38.3238 16.0522 39.0608 16.1998 39.7458 16.4899C41.0778 17.0498 42.1374 18.1093 42.6973 19.4413C42.7713 19.6139 42.8358 19.7905 42.8905 19.9702C43.0527 20.5009 43.1345 21.0528 43.1333 21.6077Z" fill="url(#paint6_linear_115_175)"/>
</g>
<g style="mix-blend-mode:multiply" opacity="0.25">
<path d="M33.3233 27.1575H29.7585V23.5182C29.8024 23.822 29.8291 24.1227 29.8578 24.4277C29.8807 24.7314 29.9018 25.0352 29.9152 25.3369C29.9343 25.6406 29.9381 25.9446 29.9494 26.2483L29.9573 26.9588C30.1882 26.9626 30.4194 26.9626 30.6506 26.9684C30.9468 26.98 31.243 26.9837 31.5409 27.0029C32.135 27.0316 32.7291 27.0754 33.3233 27.1575Z" fill="url(#paint7_linear_115_175)"/>
</g>
<g style="mix-blend-mode:screen" opacity="0.7">
<path d="M33.9443 20.8474C33.3656 20.8016 32.7986 20.6596 32.2667 20.4273C30.943 19.8575 29.889 18.8007 29.3228 17.4756C29.2482 17.3048 29.1831 17.1301 29.1278 16.9522C28.9625 16.4196 28.8795 15.8648 28.8815 15.3071C28.8782 14.563 29.0284 13.8262 29.3228 13.1427C29.8923 11.8216 30.9456 10.7684 32.2667 10.1988C32.6523 10.03 33.0572 9.90936 33.4723 9.83966C33.2641 9.88974 33.0587 9.95094 32.857 10.023C31.489 10.5116 30.3571 11.5008 29.6897 12.7911C29.2484 13.6384 29.0406 14.5879 29.0878 15.5421C29.1026 16.0216 29.1856 16.4964 29.3343 16.9525C29.3782 17.0688 29.4202 17.1854 29.4623 17.3L29.4928 17.3859L29.5006 17.4071C29.5023 17.4106 29.5036 17.4145 29.5044 17.4184L29.5235 17.4605L29.596 17.6229C29.6925 17.8332 29.8029 18.0368 29.9265 18.2324C30.1607 18.6048 30.437 18.949 30.75 19.2582C31.0341 19.5349 31.3451 19.7826 31.6783 19.9976C31.9629 20.1781 32.2612 20.3359 32.5707 20.4693C32.8121 20.572 33.0612 20.6557 33.3156 20.7197C33.5229 20.7728 33.7327 20.8154 33.9443 20.8474Z" fill="url(#paint8_linear_115_175)"/>
</g>
<g style="mix-blend-mode:screen" opacity="0.7">
<path d="M38.1184 9.75555C36.9325 10.0494 35.8713 10.714 35.0892 11.6527C34.3072 12.5914 33.8451 13.7552 33.7702 14.9747C33.7621 14.9888 33.7551 15.0036 33.7493 15.0188L33.7646 14.9709C33.7588 14.8198 33.7588 14.6672 33.7588 14.5143C33.7702 14.3617 33.7873 14.2088 33.8027 14.0539C33.8278 13.9028 33.8618 13.7517 33.8906 13.6006C33.9288 13.4495 33.9805 13.3044 34.0243 13.1535C34.0747 13.0065 34.1371 12.8649 34.1981 12.7199C34.263 12.5786 34.3396 12.4428 34.4084 12.3033C34.4885 12.1678 34.5764 12.0399 34.6602 11.9061C34.7519 11.7802 34.8473 11.6558 34.943 11.5334C35.0461 11.415 35.1551 11.3024 35.2601 11.1876C35.3747 11.0808 35.4868 10.9738 35.6059 10.8705L35.9784 10.5859C36.1084 10.5 36.2401 10.4197 36.3738 10.3376C36.5133 10.2688 36.6491 10.1943 36.7884 10.1273L37.2203 9.9593C37.3714 9.91523 37.5182 9.8714 37.6673 9.83337C37.8164 9.80315 37.9675 9.77847 38.1184 9.75555Z" fill="url(#paint9_linear_115_175)"/>
</g>
<g style="mix-blend-mode:screen" opacity="0.7">
<path d="M38.3001 21.8943C38.3019 22.051 38.3019 22.2039 38.2981 22.3585C38.2885 22.5134 38.2694 22.6663 38.2523 22.8209C38.2256 22.9737 38.195 23.1266 38.1606 23.2795C38.1223 23.4306 38.0727 23.5795 38.0286 23.7283C37.9782 23.8774 37.9123 24.0187 37.8523 24.164C37.7876 24.3073 37.713 24.4448 37.6403 24.5844C37.5619 24.7199 37.4743 24.8498 37.3902 24.9836C37.2985 25.1115 37.2028 25.2354 37.1073 25.3598C37.0043 25.4785 36.8953 25.593 36.7903 25.7094C36.6757 25.8185 36.5636 25.9255 36.4445 26.0305L36.0717 26.3171C35.9418 26.4031 35.81 26.487 35.6763 26.569L35.2618 26.7848L34.8281 26.9586L34.3828 27.0885C34.2682 27.1115 34.1561 27.1344 34.0428 27.1535L34.068 27.1573L33.936 27.1727C33.9343 27.1747 33.9302 27.1747 33.9285 27.1747L33.9264 27.1573L33.9247 27.1402L33.9685 27.146C35.1492 26.8403 36.2021 26.1669 36.9745 25.223C37.747 24.2792 38.199 23.114 38.2651 21.8961V21.8941C38.3022 21.8032 38.3204 21.7057 38.3185 21.6075C38.3323 21.7033 38.3261 21.801 38.3001 21.8943Z" fill="url(#paint10_linear_115_175)"/>
</g>
</g>
<mask id="mask1_115_175" style="mask-type:luminance" maskUnits="userSpaceOnUse" x="44" y="9" width="15" height="19">
<path d="M59 9.75555H44.7482V27.1749H59V9.75555Z" fill="white"/>
</mask>
<g mask="url(#mask1_115_175)">
<path d="M58.3523 9.75555V14.5697H50.2981C50.2009 14.5686 50.1044 14.5868 50.0142 14.6232C49.924 14.6596 49.8419 14.7135 49.7727 14.7818C49.7164 14.8375 49.6704 14.9028 49.637 14.9747C49.7119 13.7552 50.174 12.5914 50.956 11.6527C51.7381 10.714 52.7993 10.0494 53.9852 9.75555H58.3523Z" fill="url(#paint11_linear_115_175)"/>
<path d="M54.1323 21.8971C54.0659 23.1227 53.6086 24.2948 52.8275 25.2416C52.0464 26.1884 50.9825 26.8601 49.7919 27.1583H45.6252V22.3451H53.4483C53.5478 22.3464 53.6466 22.3276 53.7387 22.2897C53.8267 22.2538 53.9066 22.2006 53.9736 22.1331C54.041 22.0652 54.0949 21.9851 54.1323 21.8971Z" fill="url(#paint12_linear_115_175)"/>
<path d="M59 21.6078C59.0035 22.3502 58.8552 23.0855 58.5643 23.7686C58.5051 23.9062 58.4402 24.0417 58.3696 24.1736C58.3676 24.1792 58.3656 24.1812 58.3656 24.185C58.365 24.1878 58.3636 24.1905 58.3618 24.1928C57.7634 25.324 56.7942 26.215 55.6166 26.7163C54.932 27.0115 54.1937 27.1617 53.4482 27.1576H49.7936L49.8356 27.1462C51.0164 26.8406 52.0692 26.1671 52.8416 25.2233C53.6141 24.2794 54.0661 23.1142 54.1322 21.8964V21.8944C54.2021 21.7126 54.2034 21.5116 54.136 21.3289C54.1342 21.3252 54.1322 21.3194 54.1302 21.3156C54.0939 21.2278 54.0407 21.1479 53.9736 21.0806C53.9048 21.0118 53.8228 20.9576 53.7325 20.9215C53.6422 20.8853 53.5454 20.8679 53.4482 20.8703H50.298C50.1414 20.8703 49.9847 20.8648 49.8298 20.8494C49.8243 20.8494 49.8185 20.8474 49.811 20.8474C49.2323 20.8016 48.6653 20.6596 48.1334 20.4273C46.8097 19.8575 45.7557 18.8008 45.1895 17.4756C45.1149 17.3049 45.0498 17.1302 44.9945 16.9523C44.8292 16.4196 44.7462 15.8649 44.7482 15.3072C44.7449 14.563 44.8951 13.8262 45.1895 13.1427C45.759 11.8217 46.8123 10.7684 48.1334 10.1988C48.5189 10.03 48.9239 9.9094 49.339 9.83971C49.3543 9.83568 49.3657 9.83391 49.3732 9.8319C49.377 9.83093 49.3809 9.83034 49.3848 9.83014C49.6866 9.77967 49.9921 9.7544 50.298 9.75458H53.9851C52.7992 10.0484 51.738 10.7131 50.956 11.6518C50.1739 12.5905 49.7118 13.7542 49.6369 14.9737C49.6289 14.9879 49.6219 15.0026 49.616 15.0178C49.5783 15.1092 49.5595 15.2073 49.5606 15.3062C49.5595 15.4097 49.5789 15.5124 49.6178 15.6084C49.6218 15.6191 49.627 15.6293 49.6331 15.6389C49.6661 15.7154 49.7134 15.7848 49.7727 15.8434C49.8416 15.912 49.9237 15.9661 50.0139 16.0026C50.1041 16.039 50.2007 16.057 50.298 16.0554H53.4482C54.1921 16.0515 54.9291 16.199 55.6141 16.4891C56.9461 17.049 58.0056 18.1086 58.5656 19.4406C58.6396 19.6132 58.7041 19.7898 58.7588 19.9695C58.9205 20.5004 59.0019 21.0527 59 21.6078Z" fill="url(#paint13_linear_115_175)"/>
<g style="mix-blend-mode:multiply" opacity="0.16">
<path d="M54.1322 21.8971C54.0657 23.1227 53.6085 24.2948 52.8274 25.2416C52.0463 26.1884 50.9824 26.8601 49.7918 27.1583H48.6302C49.605 26.6996 50.4654 26.0298 51.1493 25.1975C51.8332 24.3651 52.3234 23.3911 52.5843 22.3459H53.4477C53.5472 22.3472 53.646 22.3283 53.738 22.2905C53.8261 22.2546 53.906 22.2013 53.973 22.1338C54.0407 22.0658 54.0947 21.9854 54.1322 21.8971Z" fill="url(#paint14_linear_115_175)"/>
</g>
<g style="mix-blend-mode:multiply" opacity="0.16">
<path d="M55.0321 9.75555C53.9565 10.5559 51.7729 12.4033 51.2226 14.5697H50.2981C50.2009 14.5686 50.1044 14.5868 50.0142 14.6232C49.924 14.6596 49.8419 14.7135 49.7727 14.7818C49.7164 14.8375 49.6704 14.9028 49.637 14.9747C49.7119 13.7552 50.174 12.5914 50.956 11.6527C51.7381 10.714 52.7993 10.0494 53.9852 9.75555H55.0321Z" fill="url(#paint15_linear_115_175)"/>
</g>
<g style="mix-blend-mode:multiply" opacity="0.25">
<path d="M58.3524 11.1959V14.5707H51.626C52.1856 14.5153 52.7472 14.4773 53.3071 14.4504C53.867 14.4234 54.4286 14.4 54.9882 14.3912C55.5498 14.374 56.1097 14.3761 56.6713 14.3703C57.175 14.3761 57.6742 14.3761 58.1769 14.3874C58.1824 14.1678 58.1865 13.9479 58.1958 13.7265C58.2054 13.4455 58.2149 13.1647 58.2323 12.8838C58.26 12.3212 58.297 11.7576 58.3524 11.1959Z" fill="url(#paint16_linear_115_175)"/>
</g>
<g style="mix-blend-mode:screen" opacity="0.7">
<path d="M59.0001 21.6077C59.0035 22.3502 58.8553 23.0855 58.5644 23.7686C58.5052 23.9062 58.4402 24.0416 58.3697 24.1736C58.3888 24.122 58.4518 23.9575 58.546 23.7054C58.6919 23.2767 58.7874 22.8325 58.8306 22.3817C58.8578 22.0831 58.8636 21.783 58.848 21.4836C58.8288 21.1525 58.7828 20.8235 58.7104 20.4998C58.673 20.3325 58.6264 20.1673 58.5709 20.005C58.5059 19.837 58.441 19.6667 58.376 19.4967C58.2302 19.1624 58.0509 18.8437 57.841 18.5455C57.6366 18.2433 57.4001 17.9639 57.1359 17.7123C56.8813 17.4682 56.6051 17.2476 56.3105 17.0535C56.0312 16.8721 55.738 16.713 55.4336 16.5778C55.1594 16.4598 54.8765 16.3633 54.5874 16.2891C54.1473 16.18 53.6973 16.1154 53.2442 16.0962C52.9118 16.071 52.7227 16.0562 52.7227 16.0562H53.4467C54.1907 16.0522 54.9276 16.1998 55.6127 16.4899C56.9446 17.0498 58.0042 18.1093 58.5641 19.4413C58.6381 19.6139 58.7026 19.7905 58.7573 19.9702C58.9195 20.5009 59.0013 21.0528 59.0001 21.6077Z" fill="url(#paint17_linear_115_175)"/>
</g>
<g style="mix-blend-mode:multiply" opacity="0.25">
<path d="M49.19 27.1575H45.6252V23.5182C45.6691 23.822 45.6958 24.1227 45.7245 24.4277C45.7474 24.7314 45.7685 25.0352 45.7819 25.3369C45.801 25.6406 45.8048 25.9446 45.8161 26.2483L45.824 26.9588C46.0549 26.9626 46.2861 26.9626 46.5173 26.9684C46.8135 26.98 47.1097 26.9837 47.4076 27.0029C48.0017 27.0316 48.5958 27.0754 49.19 27.1575Z" fill="url(#paint18_linear_115_175)"/>
</g>
<g style="mix-blend-mode:screen" opacity="0.7">
<path d="M49.811 20.8474C49.2323 20.8016 48.6653 20.6596 48.1334 20.4273C46.8097 19.8575 45.7557 18.8007 45.1895 17.4756C45.1149 17.3048 45.0498 17.1301 44.9945 16.9522C44.8292 16.4196 44.7462 15.8648 44.7482 15.3071C44.7449 14.563 44.8951 13.8262 45.1895 13.1427C45.759 11.8216 46.8123 10.7684 48.1334 10.1988C48.5189 10.03 48.9239 9.90936 49.339 9.83966C49.1307 9.88974 48.9254 9.95094 48.7237 10.023C47.3557 10.5116 46.2238 11.5008 45.5564 12.7911C45.1151 13.6384 44.9073 14.5879 44.9545 15.5421C44.9693 16.0216 45.0523 16.4964 45.201 16.9525C45.2449 17.0688 45.2869 17.1854 45.329 17.3L45.3595 17.3859L45.3673 17.4071C45.369 17.4106 45.3703 17.4145 45.3711 17.4184L45.3902 17.4605L45.4627 17.6229C45.5592 17.8332 45.6696 18.0368 45.7932 18.2324C46.0274 18.6048 46.3037 18.949 46.6167 19.2582C46.9008 19.5349 47.2118 19.7826 47.545 19.9976C47.8296 20.1781 48.1279 20.3359 48.4373 20.4693C48.6788 20.572 48.9279 20.6557 49.1823 20.7197C49.3896 20.7728 49.5994 20.8154 49.811 20.8474Z" fill="url(#paint19_linear_115_175)"/>
</g>
<g style="mix-blend-mode:screen" opacity="0.7">
<path d="M53.9851 9.75555C52.7992 10.0494 51.738 10.714 50.9559 11.6527C50.1739 12.5914 49.7118 13.7552 49.6369 14.9747C49.6288 14.9888 49.6218 15.0036 49.616 15.0188L49.6313 14.9709C49.6255 14.8198 49.6255 14.6672 49.6255 14.5143C49.6369 14.3617 49.654 14.2088 49.6694 14.0539C49.6945 13.9028 49.7285 13.7517 49.7573 13.6006C49.7955 13.4495 49.8472 13.3044 49.891 13.1535C49.9414 13.0065 50.0038 12.8649 50.0648 12.7199C50.1297 12.5786 50.2063 12.4428 50.2751 12.3033C50.3552 12.1678 50.443 12.0399 50.5269 11.9061C50.6186 11.7802 50.714 11.6558 50.8097 11.5334C50.9128 11.415 51.0218 11.3024 51.1268 11.1876C51.2414 11.0808 51.3535 10.9738 51.4726 10.8705L51.8451 10.5859C51.9751 10.5 52.1068 10.4197 52.2405 10.3376C52.38 10.2688 52.5158 10.1943 52.6551 10.1273L53.087 9.9593C53.2381 9.91523 53.3849 9.8714 53.534 9.83337C53.6831 9.80315 53.8342 9.77847 53.9851 9.75555Z" fill="url(#paint20_linear_115_175)"/>
</g>
<g style="mix-blend-mode:screen" opacity="0.7">
<path d="M54.1668 21.8943C54.1686 22.051 54.1686 22.2039 54.1648 22.3585C54.1552 22.5134 54.1361 22.6663 54.119 22.8209C54.0923 22.9737 54.0617 23.1266 54.0273 23.2795C53.989 23.4306 53.9394 23.5795 53.8953 23.7283C53.8449 23.8774 53.779 24.0187 53.719 24.164C53.6543 24.3073 53.5797 24.4448 53.507 24.5844C53.4286 24.7199 53.341 24.8498 53.2569 24.9836C53.1652 25.1115 53.0695 25.2354 52.974 25.3598C52.871 25.4785 52.762 25.593 52.657 25.7094C52.5424 25.8185 52.4303 25.9255 52.3112 26.0305L51.9384 26.3171C51.8085 26.4031 51.6767 26.487 51.543 26.569L51.1285 26.7848L50.6948 26.9586L50.2495 27.0885C50.1349 27.1115 50.0228 27.1344 49.9095 27.1535L49.9347 27.1573L49.8027 27.1727C49.801 27.1747 49.7969 27.1747 49.7952 27.1747L49.7931 27.1573L49.7914 27.1402L49.8352 27.146C51.0159 26.8403 52.0688 26.1669 52.8412 25.223C53.6137 24.2792 54.0657 23.114 54.1318 21.8961V21.8941C54.1689 21.8032 54.1871 21.7057 54.1852 21.6075C54.199 21.7033 54.1928 21.801 54.1668 21.8943Z" fill="url(#paint21_linear_115_175)"/>
</g>
</g>
<mask id="mask2_115_175" style="mask-type:luminance" maskUnits="userSpaceOnUse" x="11" y="9" width="18" height="19">
<path d="M28.6765 9H11V27.6154H28.6765V9Z" fill="white"/>
</mask>
<g mask="url(#mask2_115_175)">
<path d="M28.6766 17.8383H21.9716L22.9538 13.453V13.4483L23.1986 12.3575L28.6766 17.8383Z" fill="url(#paint22_linear_115_175)"/>
<path d="M17.7086 17.8382H11L12.7378 16.1005C12.7378 16.0992 12.7384 16.098 12.7393 16.0971C12.7401 16.0963 12.7413 16.0957 12.7426 16.0957L19.8405 9.00024L22.187 11.3468L23.1977 12.3577L19.8405 15.7073L17.7086 17.8382Z" fill="url(#paint23_linear_115_175)"/>
<path d="M21.9712 17.8383L20.8296 16.6966L19.8406 15.7076L23.198 12.358L21.9712 17.8383Z" fill="url(#paint24_linear_115_175)"/>
<g style="mix-blend-mode:multiply" opacity="0.3">
<path d="M20.8296 16.6966L19.8406 15.7076L23.198 12.358L20.8296 16.6966Z" fill="url(#paint25_linear_115_175)"/>
</g>
<g style="mix-blend-mode:screen" opacity="0.4">
<path d="M17.5073 17.3535H12.171L22.5123 12.3575L19.4989 15.3633L17.5073 17.3535Z" fill="url(#paint26_linear_115_175)"/>
</g>
<g style="mix-blend-mode:screen" opacity="0.4">
<path d="M22.4863 17.5393L25.0124 14.7314L23.3963 13.0944L22.4863 17.5393Z" fill="url(#paint27_linear_115_175)"/>
</g>
<g style="mix-blend-mode:multiply" opacity="0.3">
<path d="M17.7086 17.8383H11C11.5599 17.7947 12.1175 17.7753 12.6773 17.7438C13.2349 17.7187 13.7951 17.6978 14.3524 17.6857C14.9125 17.6689 15.4717 17.6568 16.03 17.6494C16.5609 17.6396 17.0918 17.6396 17.6227 17.6348C18.0564 17.1935 18.5002 16.7644 18.9389 16.3282C19.4018 15.8749 19.8672 15.4255 20.3352 14.9803C20.8031 14.535 21.275 14.0922 21.7508 13.652L22.4709 13.0022C22.7109 12.7841 22.9532 12.5683 23.198 12.3575L19.8408 15.7071L17.7086 17.8383Z" fill="url(#paint28_linear_115_175)"/>
</g>
<g style="mix-blend-mode:multiply" opacity="0.3">
<path d="M28.6766 17.8383H21.9716L22.9538 13.453C22.9127 13.7512 22.8641 14.0471 22.8206 14.3451C22.7624 14.7402 22.6896 15.1331 22.6218 15.5288C22.5491 15.9217 22.4836 16.3143 22.4035 16.7069C22.3405 17.0172 22.2798 17.3275 22.2169 17.6388C22.6954 17.6365 23.1719 17.634 23.6496 17.6388C24.207 17.6388 24.7671 17.6534 25.3247 17.6655C25.8823 17.6776 26.4422 17.6995 27.0021 17.7287C27.2809 17.7383 27.5597 17.7624 27.8385 17.7771C28.1173 17.7917 28.3978 17.8113 28.6766 17.8383Z" fill="url(#paint29_linear_115_175)"/>
</g>
<g style="mix-blend-mode:multiply" opacity="0.3">
<path d="M12.6289 16.2261C12.6652 16.1826 12.7017 16.1415 12.738 16.1002C12.738 16.099 12.7385 16.0978 12.7394 16.0969C12.7403 16.096 12.7415 16.0955 12.7427 16.0954L19.8407 9L22.1872 11.3465C21.7701 10.9927 21.3702 10.6217 20.9604 10.2605C20.5872 9.91624 20.2162 9.57221 19.8478 9.22314C19.2977 9.80492 18.7418 10.3802 18.18 10.9491C17.5839 11.5576 16.9776 12.1537 16.3717 12.7501C15.7657 13.3465 15.15 13.9355 14.5269 14.5148C14.2143 14.8034 13.904 15.0941 13.5839 15.3779C13.2638 15.6617 12.9538 15.9499 12.6289 16.2261Z" fill="url(#paint30_linear_115_175)"/>
</g>
<path d="M28.6766 18.7772H21.9716L22.9538 23.1624V23.1672L23.1991 24.2587L28.6766 18.7772Z" fill="url(#paint31_linear_115_175)"/>
<path d="M17.7086 18.7772H11L12.7378 20.5149C12.7378 20.5162 12.7384 20.5174 12.7392 20.5184C12.7401 20.5193 12.7413 20.5199 12.7426 20.52L19.8405 27.6152L22.187 25.2687L23.199 24.2587L19.8418 20.9091L17.7086 18.7772Z" fill="url(#paint32_linear_115_175)"/>
<path d="M21.9712 18.7772L20.8296 19.9188L19.8406 20.9091L23.1988 24.2587L21.9712 18.7772Z" fill="url(#paint33_linear_115_175)"/>
<g style="mix-blend-mode:multiply" opacity="0.3">
<path d="M20.8296 19.9191L19.8406 20.9091L23.1988 24.2587L20.8296 19.9191Z" fill="url(#paint34_linear_115_175)"/>
</g>
<g style="mix-blend-mode:screen" opacity="0.4">
<path d="M17.5073 19.262H12.171L22.5123 24.2587L19.4989 21.2524L17.5073 19.262Z" fill="url(#paint35_linear_115_175)"/>
</g>
<g style="mix-blend-mode:screen" opacity="0.4">
<path d="M22.4863 19.0764L25.0124 21.8843L23.3963 23.5213L22.4863 19.0764Z" fill="url(#paint36_linear_115_175)"/>
</g>
<g style="mix-blend-mode:multiply" opacity="0.3">
<path d="M17.7086 18.7772H11C11.5599 18.821 12.1175 18.8404 12.6773 18.8719C13.2349 18.897 13.7951 18.9179 14.3524 18.93C14.9125 18.9468 15.4717 18.9589 16.03 18.9663C16.5609 18.9761 17.0918 18.9761 17.6227 18.9809C18.0564 19.4222 18.5002 19.8511 18.9389 20.2875C19.4018 20.7409 19.8672 21.1901 20.3352 21.6352C20.8031 22.0803 21.275 22.5231 21.7508 22.9637L22.4709 23.6135C22.7108 23.8318 22.9532 24.0467 23.198 24.2582L19.8408 20.9086L17.7086 18.7772Z" fill="url(#paint37_linear_115_175)"/>
</g>
<g style="mix-blend-mode:multiply" opacity="0.3">
<path d="M28.6766 18.7772H21.9716L22.9538 23.1624C22.9127 22.8642 22.8641 22.5685 22.8206 22.2704C22.7624 21.8752 22.6896 21.4826 22.6218 21.0866C22.5491 20.694 22.4836 20.3014 22.4035 19.9085C22.3405 19.5982 22.2798 19.2879 22.2169 18.9766C22.6954 18.9791 23.1719 18.9814 23.6496 18.9766C24.207 18.9766 24.7671 18.962 25.3247 18.9499C25.8823 18.9378 26.4422 18.9162 27.0021 18.887C27.2809 18.8774 27.5597 18.853 27.8385 18.8386C28.1173 18.8243 28.3978 18.8039 28.6766 18.7772Z" fill="url(#paint38_linear_115_175)"/>
</g>
<g style="mix-blend-mode:multiply" opacity="0.3">
<path d="M12.6289 20.3893C12.6652 20.4329 12.7017 20.4742 12.738 20.5152C12.738 20.5165 12.7385 20.5177 12.7394 20.5186C12.7403 20.5195 12.7415 20.5201 12.7427 20.5202L19.8407 27.6154L22.1872 25.2689C21.7701 25.623 21.3702 25.9937 20.9604 26.3552C20.5872 26.6992 20.2162 27.0435 19.8478 27.3925C19.2977 26.8108 18.7418 26.2354 18.18 25.6666C17.5839 25.0581 16.9776 24.4617 16.3717 23.8656C15.7657 23.2695 15.15 22.6801 14.5269 22.1006C14.2143 21.8122 13.904 21.5214 13.5839 21.2378C13.2638 20.9542 12.9538 20.6656 12.6289 20.3893Z" fill="url(#paint39_linear_115_175)"/>
</g>
</g>
</g>
<defs>
<filter id="filter0_d_115_175" x="0" y="0" width="76" height="46.6154" filterUnits="userSpaceOnUse" color-interpolation-filters="sRGB">
<feFlood flood-opacity="0" result="BackgroundImageFix"/>
<feColorMatrix in="SourceAlpha" type="matrix" values="0 0 0 0 0 0 0 0 0 0 0 0 0 0 0 0 0 0 127 0" result="hardAlpha"/>
<feOffset dx="3" dy="5"/>
<feGaussianBlur stdDeviation="7"/>
<feComposite in2="hardAlpha" operator="out"/>
<feColorMatrix type="matrix" values="0 0 0 0 0.347833 0 0 0 0 0.241667 0 0 0 0 1 0 0 0 0.54 0"/>
<feBlend mode="normal" in2="BackgroundImageFix" result="effect1_dropShadow_115_175"/>
<feBlend mode="normal" in="SourceGraphic" in2="effect1_dropShadow_115_175" result="shape"/>
</filter>
<linearGradient id="paint0_linear_115_175" x1="38.1278" y1="9.75555" x2="38.1278" y2="14.9747" gradientUnits="userSpaceOnUse">
<stop stop-color="#3461FF"/>
<stop offset="1" stop-color="#8454EB"/>
</linearGradient>
<linearGradient id="paint1_linear_115_175" x1="34.0121" y1="21.8971" x2="34.0121" y2="27.1583" gradientUnits="userSpaceOnUse">
<stop stop-color="#3461FF"/>
<stop offset="1" stop-color="#8454EB"/>
</linearGradient>
<linearGradient id="paint2_linear_115_175" x1="36.0074" y1="9.75458" x2="36.0074" y2="27.1576" gradientUnits="userSpaceOnUse">
<stop stop-color="#3461FF"/>
<stop offset="1" stop-color="#8454EB"/>
</linearGradient>
<linearGradient id="paint3_linear_115_175" x1="35.5145" y1="21.8971" x2="35.5145" y2="27.1583" gradientUnits="userSpaceOnUse">
<stop stop-color="#3461FF"/>
<stop offset="1" stop-color="#8454EB"/>
</linearGradient>
<linearGradient id="paint4_linear_115_175" x1="36.4677" y1="9.75555" x2="36.4677" y2="14.9747" gradientUnits="userSpaceOnUse">
<stop stop-color="#3461FF"/>
<stop offset="1" stop-color="#8454EB"/>
</linearGradient>
<linearGradient id="paint5_linear_115_175" x1="39.1224" y1="11.1959" x2="39.1224" y2="14.5707" gradientUnits="userSpaceOnUse">
<stop stop-color="#3461FF"/>
<stop offset="1" stop-color="#8454EB"/>
</linearGradient>
<linearGradient id="paint6_linear_115_175" x1="39.9946" y1="16.0561" x2="39.9946" y2="24.1736" gradientUnits="userSpaceOnUse">
<stop stop-color="#3461FF"/>
<stop offset="1" stop-color="#8454EB"/>
</linearGradient>
<linearGradient id="paint7_linear_115_175" x1="31.5409" y1="23.5182" x2="31.5409" y2="27.1575" gradientUnits="userSpaceOnUse">
<stop stop-color="#3461FF"/>
<stop offset="1" stop-color="#8454EB"/>
</linearGradient>
<linearGradient id="paint8_linear_115_175" x1="31.4129" y1="9.83966" x2="31.4129" y2="20.8474" gradientUnits="userSpaceOnUse">
<stop stop-color="#3461FF"/>
<stop offset="1" stop-color="#8454EB"/>
</linearGradient>
<linearGradient id="paint9_linear_115_175" x1="35.9338" y1="9.75555" x2="35.9338" y2="15.0188" gradientUnits="userSpaceOnUse">
<stop stop-color="#3461FF"/>
<stop offset="1" stop-color="#8454EB"/>
</linearGradient>
<linearGradient id="paint10_linear_115_175" x1="36.1252" y1="21.6075" x2="36.1252" y2="27.1747" gradientUnits="userSpaceOnUse">
<stop stop-color="#3461FF"/>
<stop offset="1" stop-color="#8454EB"/>
</linearGradient>
<linearGradient id="paint11_linear_115_175" x1="53.9946" y1="9.75555" x2="53.9946" y2="14.9747" gradientUnits="userSpaceOnUse">
<stop stop-color="#3461FF"/>
<stop offset="1" stop-color="#8454EB"/>
</linearGradient>
<linearGradient id="paint12_linear_115_175" x1="49.8788" y1="21.8971" x2="49.8788" y2="27.1583" gradientUnits="userSpaceOnUse">
<stop stop-color="#3461FF"/>
<stop offset="1" stop-color="#8454EB"/>
</linearGradient>
<linearGradient id="paint13_linear_115_175" x1="51.8741" y1="9.75458" x2="51.8741" y2="27.1576" gradientUnits="userSpaceOnUse">
<stop stop-color="#3461FF"/>
<stop offset="1" stop-color="#8454EB"/>
</linearGradient>
<linearGradient id="paint14_linear_115_175" x1="51.3812" y1="21.8971" x2="51.3812" y2="27.1583" gradientUnits="userSpaceOnUse">
<stop stop-color="#3461FF"/>
<stop offset="1" stop-color="#8454EB"/>
</linearGradient>
<linearGradient id="paint15_linear_115_175" x1="52.3346" y1="9.75555" x2="52.3346" y2="14.9747" gradientUnits="userSpaceOnUse">
<stop stop-color="#3461FF"/>
<stop offset="1" stop-color="#8454EB"/>
</linearGradient>
<linearGradient id="paint16_linear_115_175" x1="54.9892" y1="11.1959" x2="54.9892" y2="14.5707" gradientUnits="userSpaceOnUse">
<stop stop-color="#3461FF"/>
<stop offset="1" stop-color="#8454EB"/>
</linearGradient>
<linearGradient id="paint17_linear_115_175" x1="55.8614" y1="16.0561" x2="55.8614" y2="24.1736" gradientUnits="userSpaceOnUse">
<stop stop-color="#3461FF"/>
<stop offset="1" stop-color="#8454EB"/>
</linearGradient>
<linearGradient id="paint18_linear_115_175" x1="47.4076" y1="23.5182" x2="47.4076" y2="27.1575" gradientUnits="userSpaceOnUse">
<stop stop-color="#3461FF"/>
<stop offset="1" stop-color="#8454EB"/>
</linearGradient>
<linearGradient id="paint19_linear_115_175" x1="47.2796" y1="9.83966" x2="47.2796" y2="20.8474" gradientUnits="userSpaceOnUse">
<stop stop-color="#3461FF"/>
<stop offset="1" stop-color="#8454EB"/>
</linearGradient>
<linearGradient id="paint20_linear_115_175" x1="51.8005" y1="9.75555" x2="51.8005" y2="15.0188" gradientUnits="userSpaceOnUse">
<stop stop-color="#3461FF"/>
<stop offset="1" stop-color="#8454EB"/>
</linearGradient>
<linearGradient id="paint21_linear_115_175" x1="51.9919" y1="21.6075" x2="51.9919" y2="27.1747" gradientUnits="userSpaceOnUse">
<stop stop-color="#3461FF"/>
<stop offset="1" stop-color="#8454EB"/>
</linearGradient>
<linearGradient id="paint22_linear_115_175" x1="25.3241" y1="12.3575" x2="25.3241" y2="17.8383" gradientUnits="userSpaceOnUse">
<stop stop-color="#3461FF"/>
<stop offset="1" stop-color="#8454EB"/>
</linearGradient>
<linearGradient id="paint23_linear_115_175" x1="17.0989" y1="9.00024" x2="17.0989" y2="17.8382" gradientUnits="userSpaceOnUse">
<stop stop-color="#3461FF"/>
<stop offset="1" stop-color="#8454EB"/>
</linearGradient>
<linearGradient id="paint24_linear_115_175" x1="21.5193" y1="12.358" x2="21.5193" y2="17.8383" gradientUnits="userSpaceOnUse">
<stop stop-color="#3461FF"/>
<stop offset="1" stop-color="#8454EB"/>
</linearGradient>
<linearGradient id="paint25_linear_115_175" x1="21.5193" y1="12.358" x2="21.5193" y2="16.6966" gradientUnits="userSpaceOnUse">
<stop stop-color="#3461FF"/>
<stop offset="1" stop-color="#8454EB"/>
</linearGradient>
<linearGradient id="paint26_linear_115_175" x1="17.3417" y1="12.3575" x2="17.3417" y2="17.3535" gradientUnits="userSpaceOnUse">
<stop stop-color="#3461FF"/>
<stop offset="1" stop-color="#8454EB"/>
</linearGradient>
<linearGradient id="paint27_linear_115_175" x1="23.7494" y1="13.0944" x2="23.7494" y2="17.5393" gradientUnits="userSpaceOnUse">
<stop stop-color="#3461FF"/>
<stop offset="1" stop-color="#8454EB"/>
</linearGradient>
<linearGradient id="paint28_linear_115_175" x1="17.099" y1="12.3575" x2="17.099" y2="17.8383" gradientUnits="userSpaceOnUse">
<stop stop-color="#3461FF"/>
<stop offset="1" stop-color="#8454EB"/>
</linearGradient>
<linearGradient id="paint29_linear_115_175" x1="25.3241" y1="13.453" x2="25.3241" y2="17.8383" gradientUnits="userSpaceOnUse">
<stop stop-color="#3461FF"/>
<stop offset="1" stop-color="#8454EB"/>
</linearGradient>
<linearGradient id="paint30_linear_115_175" x1="17.4081" y1="9" x2="17.4081" y2="16.2261" gradientUnits="userSpaceOnUse">
<stop stop-color="#3461FF"/>
<stop offset="1" stop-color="#8454EB"/>
</linearGradient>
<linearGradient id="paint31_linear_115_175" x1="25.3241" y1="18.7772" x2="25.3241" y2="24.2587" gradientUnits="userSpaceOnUse">
<stop stop-color="#3461FF"/>
<stop offset="1" stop-color="#8454EB"/>
</linearGradient>
<linearGradient id="paint32_linear_115_175" x1="17.0995" y1="18.7772" x2="17.0995" y2="27.6152" gradientUnits="userSpaceOnUse">
<stop stop-color="#3461FF"/>
<stop offset="1" stop-color="#8454EB"/>
</linearGradient>
<linearGradient id="paint33_linear_115_175" x1="21.5197" y1="18.7772" x2="21.5197" y2="24.2587" gradientUnits="userSpaceOnUse">
<stop stop-color="#3461FF"/>
<stop offset="1" stop-color="#8454EB"/>
</linearGradient>
<linearGradient id="paint34_linear_115_175" x1="21.5197" y1="19.9191" x2="21.5197" y2="24.2587" gradientUnits="userSpaceOnUse">
<stop stop-color="#3461FF"/>
<stop offset="1" stop-color="#8454EB"/>
</linearGradient>
<linearGradient id="paint35_linear_115_175" x1="17.3417" y1="19.262" x2="17.3417" y2="24.2587" gradientUnits="userSpaceOnUse">
<stop stop-color="#3461FF"/>
<stop offset="1" stop-color="#8454EB"/>
</linearGradient>
<linearGradient id="paint36_linear_115_175" x1="23.7494" y1="19.0764" x2="23.7494" y2="23.5213" gradientUnits="userSpaceOnUse">
<stop stop-color="#3461FF"/>
<stop offset="1" stop-color="#8454EB"/>
</linearGradient>
<linearGradient id="paint37_linear_115_175" x1="17.099" y1="18.7772" x2="17.099" y2="24.2582" gradientUnits="userSpaceOnUse">
<stop stop-color="#3461FF"/>
<stop offset="1" stop-color="#8454EB"/>
</linearGradient>
<linearGradient id="paint38_linear_115_175" x1="25.3241" y1="18.7772" x2="25.3241" y2="23.1624" gradientUnits="userSpaceOnUse">
<stop stop-color="#3461FF"/>
<stop offset="1" stop-color="#8454EB"/>
</linearGradient>
<linearGradient id="paint39_linear_115_175" x1="17.4081" y1="20.3893" x2="17.4081" y2="27.6154" gradientUnits="userSpaceOnUse">
<stop stop-color="#3461FF"/>
<stop offset="1" stop-color="#8454EB"/>
</linearGradient>
</defs>
</svg>
