<svg width="687" height="485" viewBox="0 0 687 485" fill="none" xmlns="http://www.w3.org/2000/svg">
<path d="M441.296 49.3081H226.306C221.842 49.3081 218.224 52.9271 218.224 57.3914V381.129C218.224 385.593 221.842 389.212 226.306 389.212H441.296C445.76 389.212 449.379 385.593 449.379 381.129V57.3914C449.379 52.9271 445.76 49.3081 441.296 49.3081Z" fill="#F2F6FB"/>
<path d="M232.57 65.4851C234.69 65.4851 236.409 63.947 236.409 62.0497C236.409 60.1523 234.69 58.6143 232.57 58.6143C230.449 58.6143 228.731 60.1523 228.731 62.0497C228.731 63.947 230.449 65.4851 232.57 65.4851Z" fill="#FF5645"/>
<path d="M245.299 65.4851C247.308 65.4851 248.936 63.947 248.936 62.0497C248.936 60.1523 247.308 58.6143 245.299 58.6143C243.291 58.6143 241.662 60.1523 241.662 62.0497C241.662 63.947 243.291 65.4851 245.299 65.4851Z" fill="#FFCB3D"/>
<path d="M257.625 65.4851C259.522 65.4851 261.06 63.947 261.06 62.0497C261.06 60.1523 259.522 58.6143 257.625 58.6143C255.728 58.6143 254.19 60.1523 254.19 62.0497C254.19 63.947 255.728 65.4851 257.625 65.4851Z" fill="#3ABF7C"/>
<path d="M316.02 58.6143H351.986C352.656 58.6143 353.199 59.1571 353.199 59.8268V64.2726C353.199 64.9422 352.656 65.4851 351.986 65.4851H316.02C315.35 65.4851 314.808 64.9422 314.808 64.2726V59.8268C314.808 59.1571 315.35 58.6143 316.02 58.6143ZM418.666 58.6143H438.064C438.733 58.6143 439.276 59.1571 439.276 59.8268V64.2726C439.276 64.9422 438.733 65.4851 438.064 65.4851H418.666C417.996 65.4851 417.454 64.9422 417.454 64.2726V59.8268C417.454 59.1571 417.996 58.6143 418.666 58.6143ZM391.994 58.6143H410.988C411.657 58.6143 412.2 59.1571 412.2 59.8268V64.2726C412.2 64.9422 411.657 65.4851 410.988 65.4851H391.994C391.325 65.4851 390.782 64.9422 390.782 64.2726V59.8268C390.782 59.1571 391.325 58.6143 391.994 58.6143ZM289.752 166.245H378.658C379.105 166.245 379.466 166.607 379.466 167.053V173.933C379.466 174.38 379.105 174.742 378.658 174.742H289.752C289.306 174.742 288.944 174.38 288.944 173.933V167.053C288.944 166.607 289.306 166.245 289.752 166.245ZM273.588 152.487H394.015C394.461 152.487 394.823 152.849 394.823 153.296V160.176C394.823 160.623 394.461 160.984 394.015 160.984H273.588C273.141 160.984 272.779 160.623 272.779 160.176V153.296C272.779 152.849 273.141 152.487 273.588 152.487ZM232.368 197.23C232.368 196.339 233.095 195.616 233.985 195.616H434.426C435.319 195.616 436.043 196.339 436.043 197.23V328.338C436.043 329.229 435.316 329.952 434.426 329.952H233.985C233.092 329.952 232.368 329.229 232.368 328.338V197.23ZM233.632 340.308H326.071C326.792 340.308 327.053 340.383 327.317 340.524C327.58 340.665 327.787 340.871 327.928 341.135C328.069 341.398 328.144 341.66 328.144 342.38V369.796C328.144 370.517 328.069 370.778 327.928 371.042C327.787 371.305 327.58 371.512 327.317 371.653C327.053 371.794 326.792 371.869 326.071 371.869H233.632C232.911 371.869 232.65 371.794 232.386 371.653C232.123 371.512 231.916 371.305 231.775 371.042C231.634 370.778 231.559 370.517 231.559 369.796V342.38C231.559 341.66 231.634 341.398 231.775 341.135C231.916 340.871 232.123 340.665 232.386 340.524C232.65 340.383 232.911 340.308 233.632 340.308ZM341.531 340.308H433.971C434.691 340.308 434.953 340.383 435.216 340.524C435.479 340.665 435.686 340.871 435.827 341.135C435.968 341.398 436.043 341.66 436.043 342.38V369.796C436.043 370.517 435.968 370.778 435.827 371.042C435.686 371.305 435.479 371.512 435.216 371.653C434.953 371.794 434.691 371.869 433.971 371.869H341.531C340.811 371.869 340.549 371.794 340.286 371.653C340.022 371.512 339.816 371.305 339.675 371.042C339.534 370.778 339.459 370.517 339.459 369.796V342.38C339.459 341.66 339.534 341.398 339.675 341.135C339.816 340.871 340.022 340.665 340.286 340.524C340.549 340.383 340.811 340.308 341.531 340.308Z" fill="#E1E5F0"/>
<path d="M368.132 240.921C374.032 240.921 378.815 236.117 378.815 230.192C378.815 224.266 374.032 219.462 368.132 219.462C362.231 219.462 357.448 224.266 357.448 230.192C357.448 236.117 362.231 240.921 368.132 240.921Z" fill="#F2F6FB"/>
<path d="M334.003 142.33V140.714C336.251 140.714 338.459 140.42 340.588 139.847L341.009 141.408C338.743 142.018 336.393 142.33 334.003 142.33ZM347.531 138.682L346.716 137.286C348.636 136.165 350.401 134.794 351.965 133.212L353.114 134.349C351.451 136.031 349.573 137.49 347.531 138.682ZM357.383 128.714L355.978 127.916C357.075 125.985 357.913 123.917 358.468 121.758L360.033 122.16C359.443 124.459 358.551 126.66 357.383 128.714ZM360.875 115.107L359.259 115.128C359.23 112.881 358.908 110.677 358.307 108.554L359.862 108.113C360.502 110.372 360.845 112.718 360.875 115.107ZM357.051 101.623L355.665 102.456C354.52 100.551 353.127 98.803 351.525 97.2598L352.647 96.0955C354.35 97.7369 355.832 99.5961 357.051 101.623ZM346.959 91.9005L346.179 93.3162C344.236 92.2447 342.157 91.4333 339.991 90.9067L340.372 89.3357C342.679 89.8964 344.891 90.7601 346.959 91.9005ZM333.311 88.585L333.352 90.2011C331.107 90.2579 328.906 90.6082 326.791 91.2376L326.33 89.688C328.582 89.0182 330.924 88.6453 333.311 88.585ZM319.879 92.5836L320.729 93.9583C318.839 95.1285 317.109 96.5445 315.587 98.1659L314.409 97.0593C316.028 95.3346 317.868 93.8286 319.879 92.5836ZM310.287 102.801L311.713 103.563C310.667 105.52 309.883 107.609 309.384 109.784L307.809 109.422C308.339 107.108 309.174 104.884 310.287 102.801ZM307.149 116.493L308.764 116.432C308.85 118.675 309.229 120.871 309.886 122.98L308.343 123.461C307.643 121.217 307.24 118.879 307.149 116.493ZM311.321 129.873L312.684 129.005C313.878 130.88 315.316 132.592 316.957 134.093L315.865 135.286C314.121 133.689 312.591 131.868 311.321 129.873ZM321.659 139.333L322.402 137.898C324.372 138.918 326.47 139.675 328.651 140.146L328.31 141.726C325.989 141.225 323.755 140.419 321.659 139.333ZM350.922 305.89L336.9 305.954L336.939 305.89H275.697C271.903 305.89 270.46 303.282 272.471 300.066L314.323 233.158C316.335 229.942 319.665 229.896 321.763 233.063L352.862 280.384L363.863 262.76C365.637 259.918 368.579 259.874 370.436 262.663L395.907 300.906C397.763 303.694 396.572 305.71 393.218 305.606L374.592 305.783L368.711 305.81L368.76 305.89C368.76 305.89 365.687 305.89 361.891 305.89H350.922Z" fill="#3C41FF"/>
<path opacity="0.176986" d="M368.594 305.982C368.594 305.982 365.521 305.982 361.725 305.982H275.531C271.737 305.982 270.293 303.374 272.305 300.158L314.156 233.25C316.168 230.034 319.499 229.988 321.597 233.155L357.788 288.225" fill="#444444"/>
<path d="M578.696 437.712H537.274C536.304 437.712 535.456 437.013 535.456 436.173V435.614C535.456 434.774 536.264 434.075 537.274 434.075H578.696C579.666 434.075 580.515 434.774 580.515 435.614V436.173C580.515 437.013 579.707 437.712 578.696 437.712ZM483.527 434.075C484.531 434.075 485.345 434.889 485.345 435.893C485.345 436.898 484.531 437.712 483.527 437.712H417.656C416.651 437.712 415.837 436.898 415.837 435.893C415.837 434.889 416.651 434.075 417.656 434.075H483.527Z" fill="#9105C6"/>
<path d="M578.917 434.087C578.845 434.079 578.771 434.074 578.696 434.074H537.413L540.68 413.457L569.615 409.536L578.917 434.087ZM483.768 434.09C483.689 434.08 483.608 434.074 483.527 434.074H417.942C417.898 433.853 417.876 433.574 417.883 433.213C417.928 432.931 417.934 432.608 418.02 432.286C418.539 430.355 419.167 429.072 421.006 427.932C422.845 426.792 424.722 425.773 426.678 424.878C433.891 421.487 436.355 421.53 441.098 418.419C443.061 417.12 444.866 415.615 446.551 413.987C447.675 412.902 449.969 411.139 453.434 408.698L484.59 409.396L483.768 434.09Z" fill="#474961"/>
<path d="M527.619 186.408C530.695 192.397 539.02 210.98 546.452 248.808C547.064 251.947 547.652 255.002 548.215 257.969L548.272 257.9C558.457 296.282 565.527 323.152 569.481 338.51C573.543 354.284 567.91 354.037 570.99 367.308C572.766 374.959 578.716 381.111 578.664 389.078C578.656 390.336 578.687 392.852 578.755 396.626C578.878 403.367 573.953 409.139 567.278 410.077L540.316 413.867C533.022 414.892 526.279 409.81 525.254 402.516C525.244 402.449 525.235 402.381 525.227 402.314C524.499 396.495 524.131 393.036 524.122 391.936C524.102 389.658 524.074 387.583 524.03 385.693C522.477 379.335 520.858 372.718 519.555 367.384C517.797 364.668 515.729 360.913 514.099 354.84C513.027 350.844 510.59 335.291 506.787 308.181C506.714 307.817 506.575 306.696 506.37 304.818L501.047 285.224C500.825 287.513 500.599 289.828 500.37 292.164C500.839 324.636 500.827 342.878 500.333 346.889C498.778 359.515 494.126 362.991 493.99 366.958C493.857 370.844 494.448 376.508 495.57 385.02C495.714 386.11 495.831 389.587 495.92 395.45C495.921 395.518 495.922 395.586 495.922 395.654C495.922 401.558 492.087 406.565 486.772 408.321C483.429 411.365 478.046 409.049 463.91 409.146C463.91 409.146 461.735 409.165 458.863 408.992L455.359 408.992C453.285 408.992 451.311 408.515 449.549 407.661C447.878 407.193 446.495 406.577 445.725 405.768C445.082 405.073 444.676 404.285 444.676 404.285C444.484 403.855 444.346 403.432 444.247 403.032C443.13 401.35 442.38 399.393 442.121 397.269C441.664 393.522 441.344 391.026 441.161 389.781C440.002 381.899 445.037 374.978 445.731 367.155C446.934 353.585 441.391 354.613 443.218 338.427C444.98 322.815 448.315 304.793 453.222 284.362C456.06 252.185 459.795 216.03 463.91 203.88C463.979 203.663 466.545 195.052 470.256 188.972C470.369 189.094 470.487 189.212 470.609 189.324C471.073 189.76 471.535 190.076 471.996 190.31C472.919 190.86 473.684 191.049 473.684 191.049C473.684 191.049 473.722 191.048 473.761 191.088C473.761 191.088 498.537 197.285 523.12 190.226L523.195 190.184C523.195 190.184 523.953 189.969 524.856 189.387C525.271 189.138 525.759 188.765 526.209 188.353C526.772 187.802 527.237 187.139 527.619 186.408Z" fill="#8F4AFF"/>
<path opacity="0.176986" d="M475.557 191.483L488.493 239.186L501.035 285.353C500.817 287.6 500.595 289.872 500.37 292.164C500.839 324.636 500.827 342.878 500.333 346.889C498.778 359.515 494.126 362.991 493.99 366.958C493.857 370.844 494.448 376.508 495.57 385.02C495.714 386.11 495.831 389.587 495.92 395.45C495.921 395.518 495.922 395.586 495.922 395.654C495.922 401.558 492.087 406.565 486.772 408.321C483.429 411.365 478.046 409.049 463.91 409.146C463.91 409.146 461.735 409.165 458.863 408.992L455.359 408.992C453.285 408.992 451.311 408.515 449.549 407.661C447.878 407.193 446.495 406.577 445.725 405.768C445.082 405.073 444.676 404.285 444.676 404.285C444.484 403.855 444.346 403.432 444.247 403.032C443.13 401.35 442.38 399.393 442.121 397.269C441.664 393.522 441.344 391.026 441.161 389.781C440.002 381.899 445.037 374.978 445.731 367.155C446.934 353.585 441.391 354.613 443.218 338.427C444.98 322.815 448.315 304.793 453.222 284.362C456.06 252.185 459.795 216.03 463.91 203.88C463.979 203.663 466.545 195.052 470.256 188.972C470.369 189.094 470.487 189.212 470.609 189.324C471.073 189.76 471.535 190.076 471.996 190.31C472.919 190.86 473.684 191.049 473.684 191.049C473.684 191.049 473.722 191.048 473.761 191.088C473.761 191.088 474.393 191.246 475.557 191.483Z" fill="#444444"/>
<path d="M528.049 135.671C528.095 136.136 528.141 136.616 528.185 137.111L528.187 137.232L528.298 139.211C528.949 161.23 529.274 171.128 529.456 175.005C529.456 175.005 529.425 175.41 529.473 176.016C529.58 177.792 529.746 185.106 526.377 188.399C525.928 188.811 525.439 189.183 525.025 189.433C524.122 190.014 523.364 190.23 523.364 190.23L523.289 190.272C498.706 197.33 473.93 191.133 473.93 191.133C473.511 191.023 473.107 190.91 472.338 190.526C471.583 190.15 470.865 189.595 470.635 189.379C467.191 186.205 467.244 178.881 467.289 177.101C467.279 176.535 467.272 176.091 467.272 176.091C467.315 172.392 467.3 163.411 467.199 143.925C457.547 143.029 453.64 140.245 455.476 135.572C459.649 124.956 462.413 114.77 478.956 113.593C483.015 111.569 487.447 110.891 490.532 110.685C492.319 110.573 493.652 110.59 494.185 110.621C494.413 110.617 494.719 110.652 495.29 110.683C495.862 110.713 496.509 110.742 497.233 110.77C497.955 110.717 498.602 110.665 499.172 110.615C499.742 110.565 500.008 110.52 500.274 110.515C500.844 110.464 502.137 110.402 503.927 110.451C504.354 110.465 504.807 110.486 505.281 110.518C505.521 110.463 505.763 110.409 506.01 110.356C523.012 106.686 528.388 115.977 535.291 125.321C538.054 129.06 535.64 132.511 528.049 135.671Z" fill="#F0549E"/>
<path opacity="0.176986" d="M478.699 113.592C476.337 114.783 474.106 116.433 472.346 118.716C471.564 119.74 470.563 121.293 469.803 123.53C469.694 123.855 469.585 124.14 469.477 124.465C469.222 125.157 468.677 126.622 468.21 128.206C467.708 129.994 467.31 133.396 467.05 138.13L467.052 138.251L467.011 140.233C467.018 141.481 467.024 142.69 467.03 143.861C457.616 142.933 453.818 140.159 455.634 135.539C459.771 125.012 462.523 114.908 478.699 113.592Z" fill="#444444"/>
<path d="M525.257 234.543C524.92 234.805 524.721 234.921 524.721 234.921C519.416 234.031 527.001 214.38 529.262 208.818L510.22 140.693C522.041 138.193 529.839 135.469 533.613 132.519C543.879 173.833 549.427 200.331 550.255 212.013C550.318 212.383 550.357 212.78 550.371 213.204C550.592 220.002 548.333 230.406 543.595 244.415C543.557 244.497 531.233 250.549 522.563 245.433L525.257 234.543ZM473.401 75.0535C473.418 75.0309 473.435 75.0081 473.452 74.9849C476.999 71.0093 483.528 71.1268 486.469 71.761C486.826 71.8392 488.095 72.1351 489.932 72.4501C490.928 72.6361 491.732 72.7206 492.21 72.8115C498.173 73.6821 500.62 73.2079 503.465 75.1325C503.998 75.473 505.208 76.3317 506.186 77.8569C508.943 82.1699 507.638 87.2347 507.277 88.741C506.072 93.2472 503.124 95.782 502.197 96.8632C501.508 97.6807 500.551 98.5933 499.621 99.4178L500.522 112.462C500.531 112.745 500.42 113.032 500.182 113.162C499.155 113.844 497.686 114.624 495.842 115.093C492.517 115.977 489.629 115.512 487.997 115.083C487.671 115.014 487.417 114.699 487.406 114.376L486.918 105.822C486.564 105.914 486.187 106.01 485.785 106.111C482.233 107.038 482.447 106.938 482.197 106.993C479.598 107.37 477.436 107.062 477.042 106.939C475.608 106.666 474.208 105.3 473.057 103.106C471.495 100.179 470.295 95.7449 469.947 90.5471C469.863 89.8067 469.898 89.079 469.934 88.3512L470.53 81.1394C470.658 79.5273 471.189 77.9576 472.145 76.595C472.534 75.9857 472.911 75.497 473.359 75.0971C473.373 75.0825 473.387 75.0679 473.401 75.0535ZM455.511 139.532C456.796 141.852 460.692 143.315 467.199 143.918C467.27 157.551 467.299 166.042 467.295 171.18C457.59 183.133 451.097 181.268 451.097 181.268C446.574 181.464 443.116 179.407 441.811 178.618C430.426 171.751 408.814 133.535 405.086 126.841C400.165 126.166 395.572 124.873 391.305 122.961C384.5 119.912 381.757 117.018 383.078 114.281L417.953 116.533L418.049 116.467L448.294 148.302C451.464 144.934 453.617 142.183 455.511 139.532Z" fill="#F2A98A"/>
<path opacity="0.2" d="M455.641 139.532C456.926 141.852 460.823 143.315 467.33 143.918C467.4 157.551 467.429 166.042 467.425 171.18C457.72 183.133 451.227 181.268 451.227 181.268C446.704 181.464 443.246 179.407 441.941 178.618C430.556 171.751 408.944 133.535 405.217 126.841C400.296 126.166 395.702 124.873 391.435 122.961C384.63 119.912 381.888 117.018 383.209 114.281L418.083 116.533L418.179 116.467L448.424 148.302C451.594 144.934 453.747 142.183 455.641 139.532Z" fill="#8C2A00"/>
<path d="M486.263 105.964L492.217 104.064L487.346 111.507L486.263 105.964Z" fill="#482D1F"/>
<path d="M500.779 89.6358C500.822 88.6565 500.62 87.6512 500.093 86.7261C498.997 84.7821 496.692 83.5238 494.695 83.9641C493.572 84.2118 492.76 84.9799 492.671 85.0518C491.442 86.3044 491.049 87.7261 491.049 87.7261L490.852 88.6697C476.368 83.1438 473.56 76.1696 472.805 75.7298C473.035 75.4695 473.262 75.2495 473.403 75.0612C476.99 71.0898 483.641 71.2199 486.621 71.8584C487.019 71.9408 488.288 72.2368 490.164 72.5559C491.201 72.7461 492.005 72.8306 492.483 72.9215C498.566 73.8049 501.054 73.3348 503.939 75.2637C504.472 75.6042 505.723 76.4671 506.7 77.9923C509.749 82.6205 508.36 87.717 507.831 88.8806C507.461 89.6951 506.88 90.2029 506.88 90.2029C504.739 89.882 502.744 89.7399 500.779 89.6358ZM468.907 86.3396C468.508 86.2377 468.414 85.7066 468.711 85.4389C469.092 85.1351 469.754 84.846 470.561 84.8883C472.216 84.9751 473.934 86.1579 472.053 86.5449C470.948 86.7703 469.665 86.5412 468.907 86.3396ZM477.206 87.0578C476.806 86.956 476.713 86.4249 477.05 86.1593C477.431 85.8555 478.093 85.5664 478.941 85.6108C480.595 85.6976 482.312 86.9207 480.432 87.2674C479.245 87.529 477.964 87.2595 477.206 87.0578Z" fill="#482D1F"/>
<path d="M471.907 89.3297C471.831 90.0137 471.65 91.1375 471.226 91.5199C470.508 92.0894 469.726 90.0248 470.316 88.8011C470.545 88.287 470.832 88.2211 471.153 88.2783C471.633 88.3844 471.932 88.8453 471.907 89.3297ZM479.135 89.6276C479.139 90.3158 479.08 91.446 478.651 91.9091C478.01 92.5636 476.981 90.567 477.453 89.2966C477.642 88.7803 477.93 88.6741 478.253 88.691C478.738 88.7164 479.12 89.1411 479.135 89.6276Z" fill="#482D1F"/>
<path d="M475.392 97.7282C475.679 97.6623 476.375 97.4964 476.52 97.0588C476.524 96.9781 476.571 96.8591 476.535 96.7763C476.388 96.4853 475.895 96.6214 475.167 96.6236C473.871 96.6367 472.828 96.4606 472.828 96.4606C472.828 96.4606 473.068 97.2826 473.257 97.5354C473.629 98.1619 474.942 97.826 475.392 97.7282Z" fill="#482D1F"/>
<path d="M473.073 89.4718L473.08 89.4159L473.074 89.4436L473.073 89.4718ZM472.248 93.7029C472.148 94.1541 472.478 94.6196 472.934 94.7203C473.034 94.735 473.034 94.735 473.099 94.7434C473.777 94.8315 474.202 94.8733 474.933 94.9116C475.155 94.9233 475.346 94.752 475.357 94.5291C475.369 94.3062 475.198 94.116 474.975 94.1043C474.267 94.0672 473.862 94.0274 473.203 93.9418L473.073 93.9249C473.072 93.9231 473.038 93.8747 473.039 93.8671L473.873 89.5699L473.88 89.5141L474.005 87.1328C474.016 86.9099 473.845 86.7197 473.622 86.708C473.4 86.6963 473.209 86.8676 473.198 87.0905L473.074 89.4436L472.248 93.7029Z" fill="#482D1F"/>
<path d="M500.752 89.0121C500.812 90.2092 500.465 91.4692 499.822 92.4441C499.036 93.6752 498.047 94.2877 496.809 94.7088C496.597 94.7807 496.484 95.0102 496.556 95.2216C496.628 95.4329 496.857 95.546 497.069 95.4741C497.613 95.289 498.05 95.1009 498.566 94.7812C499.327 94.3103 499.987 93.6885 500.5 92.8842C501.235 91.7711 501.628 90.3411 501.559 88.9715C501.548 88.7486 501.358 88.5769 501.135 88.5882C500.912 88.5994 500.741 88.7892 500.752 89.0121Z" fill="#482D1F"/>
<path d="M531.631 232.523C531.695 232.195 532.013 231.98 532.342 232.044C532.67 232.108 532.885 232.427 532.821 232.755C532.418 234.819 532.055 236.413 531.205 239.955C530.36 243.479 529.999 245.061 529.601 247.103C529.537 247.432 529.219 247.646 528.89 247.582C528.562 247.518 528.347 247.2 528.411 246.871C528.814 244.807 529.177 243.213 530.027 239.672C530.872 236.147 531.233 234.565 531.631 232.523ZM539.827 230.745C539.911 230.421 540.242 230.226 540.566 230.311C540.89 230.395 541.085 230.726 541 231.05C540.423 233.27 540.015 235 539.135 238.862C538.253 242.736 537.842 244.475 537.261 246.71C537.177 247.034 536.846 247.228 536.522 247.144C536.198 247.06 536.003 246.729 536.088 246.405C536.665 244.185 537.073 242.455 537.953 238.593C538.835 234.719 539.246 232.98 539.827 230.745Z" fill="#482D1F"/>
<path d="M403.309 123.376C417.593 123.376 429.173 111.704 429.173 97.307C429.173 82.9097 417.593 71.2383 403.309 71.2383C389.025 71.2383 377.446 82.9097 377.446 97.307C377.446 111.704 389.025 123.376 403.309 123.376Z" fill="#474BFF"/>
<path d="M403.379 96.6985C400.526 96.6985 398.213 94.4136 398.213 91.5951C398.213 88.7766 400.526 86.4917 403.379 86.4917C406.233 86.4917 408.546 88.7766 408.546 91.5951C408.546 94.4136 406.233 96.6985 403.379 96.6985ZM403.379 99.2502C408.552 99.2502 412.744 103.391 412.744 108.5H394.015C394.015 103.391 398.207 99.2502 403.379 99.2502Z" fill="#F2F6FB"/>
<path d="M127.418 347.831V347.906C127.418 348.876 128.267 349.685 129.237 349.685H159.748L148.998 369.408C141.32 383.473 133.682 397.497 126.044 411.562L113.395 434.762C112.951 435.57 113.315 436.621 114.163 437.106L114.325 437.187C115.174 437.672 116.265 437.389 116.669 436.621L163.991 349.685H195.512L242.834 436.621C243.238 437.389 244.33 437.631 245.178 437.187L245.34 437.106C246.188 436.621 246.552 435.57 246.108 434.762L233.459 411.562C225.781 397.497 218.143 383.473 210.505 369.408L199.755 349.685H240.208C241.218 349.685 242.026 348.876 242.026 347.906V347.704C242.026 346.734 241.177 345.926 240.208 345.926H212.728C194.825 345.926 176.882 345.926 158.939 345.926H130.986L127.58 318.362C125.236 299.608 122.933 280.815 120.589 262.021L116.75 230.981C116.628 229.89 115.699 229.081 114.689 229.202L114.487 229.243C113.517 229.364 112.83 230.375 112.951 231.385L127.378 347.623C127.388 347.694 127.402 347.763 127.418 347.831Z" fill="#D8DEED"/>
<path d="M215.286 434.233C215.038 434.108 214.76 434.037 214.468 434.037H192.616L152.513 404.156L167.709 382.867L192.037 400.529C193.37 405.055 194.744 409.582 196.118 414.149C196.846 416.534 197.573 418.878 198.3 421.222C200.564 422.111 202.503 422.92 203.877 423.526C206.504 424.658 208.727 425.708 211.151 427.285C211.151 427.285 213.253 428.578 214.425 430.437C214.788 431.043 215.112 431.73 215.314 432.458C215.395 432.781 215.395 433.105 215.435 433.388C215.422 433.653 215.362 433.95 215.286 434.233ZM290.978 434.165C290.845 434.134 290.706 434.118 290.564 434.118H225.501C225.379 434.118 225.26 434.13 225.145 434.153L224.513 408.957L255.067 408.868C258.801 411.309 261.23 413.072 262.354 414.158C264.04 415.786 265.844 417.29 267.807 418.59C272.55 421.701 275.014 421.658 282.228 425.048C284.183 425.944 286.06 426.962 287.899 428.102C289.738 429.243 290.366 430.525 290.885 432.456C290.972 432.778 290.977 433.101 291.023 433.384C291.028 433.703 291.012 433.958 290.978 434.165Z" fill="#474961"/>
<path d="M191.144 437.349C191.104 437.324 191.065 437.296 191.026 437.268L150.453 407.036C149.645 406.43 149.483 405.258 150.089 404.449C150.695 403.641 151.867 403.479 152.676 404.086L192.815 433.994H214.667C215.678 433.994 216.526 434.843 216.526 435.853C216.526 436.863 215.678 437.712 214.667 437.712H192.239C191.828 437.712 191.45 437.578 191.144 437.349ZM225.7 434.075H290.763C291.767 434.075 292.581 434.889 292.581 435.893C292.581 436.898 291.767 437.712 290.763 437.712H225.7C224.695 437.712 223.881 436.898 223.881 435.893C223.881 434.889 224.695 434.075 225.7 434.075Z" fill="#FF5645"/>
<path d="M268.745 331.302C265.734 347.132 264.502 370.333 267.455 384.937C267.455 384.937 270.522 410.036 268.373 410.198C267.852 410.238 262.312 410.481 261.726 410.521C247.143 411.491 221.819 413.431 218.043 413.431C215.526 413.431 214.267 411.814 214.267 408.581L213.446 399.899V399.829C210.661 403.152 207.77 406.599 204.772 410.167C200.313 411.491 193.569 409.595 184.539 404.479C175.509 399.363 168.519 394.32 163.57 389.349C161.186 387.813 155.383 379.319 156.919 377.097L167.062 362.304L173.124 353.453C174.821 350.947 176.102 349.286 177.921 346.659C177.921 346.618 178.247 346.137 178.247 346.097C177.6 346.097 178.337 345.572 173.73 345.531C169.123 345.491 144.31 344.965 134.814 331.264C131.025 325.798 130.732 319.745 130.449 317.037C129.398 306.502 132.177 297.964 138.786 291.424C140.556 290.123 141.859 289.352 142.694 289.109C144.027 288.705 151.059 288.503 152.433 288.422L180.641 288.059C194.063 287.88 205.27 287.728 214.261 287.603L214.267 287.533L214.261 287.603C232.43 287.35 241.55 287.206 241.622 287.169C241.784 287.089 259.218 287.816 263.905 290.524C272.884 295.785 277.606 312.365 268.745 331.302Z" fill="#FFC855"/>
<path opacity="0.2" d="M268.657 331.461C265.658 347.288 264.436 370.43 267.383 385.007C267.383 385.007 270.45 410.106 268.302 410.268C267.781 410.308 262.24 410.551 261.654 410.591C247.072 411.561 221.747 413.501 217.971 413.501C215.454 413.501 214.195 411.884 214.195 408.651L213.375 399.983C248.19 358.433 266.412 336.017 268.042 332.736C268.254 332.31 268.459 331.885 268.657 331.461ZM214.179 287.801L214.195 287.603L214.179 287.801ZM229.442 287.583C229.434 287.583 229.426 287.583 229.419 287.583L228.843 287.482H228.908C229.087 287.516 229.265 287.549 229.442 287.583Z" fill="#8C2A00"/>
<path d="M196.576 319.138C194.582 322.154 192.482 325.085 187.383 332.06C182.268 339.059 180.161 341.999 178.148 345.045C177.902 345.418 178.004 345.919 178.376 346.165C178.749 346.411 179.25 346.309 179.496 345.937C181.49 342.92 183.59 339.99 188.688 333.014C193.804 326.016 195.91 323.076 197.924 320.03C198.17 319.657 198.068 319.156 197.695 318.91C197.323 318.663 196.822 318.766 196.576 319.138Z" fill="#482D1F"/>
<path d="M264.221 215.547C265.593 216.619 265.836 218.6 264.765 219.972C264.748 219.993 264.732 220.014 264.715 220.034L248.018 240.328C247.161 241.37 245.629 241.538 244.566 240.707C243.503 239.877 243.296 238.35 244.099 237.266L259.748 216.154C260.785 214.755 262.759 214.462 264.158 215.499C264.179 215.514 264.2 215.531 264.221 215.547Z" fill="#474961"/>
<path d="M260.766 219.745C264.283 222.493 269.318 221.926 272.012 218.478C273.306 216.821 271.505 213.367 271.952 208.243C272.056 207.047 272.887 205.112 274.444 202.44L274.444 202.44C274.556 202.248 274.491 202 274.298 201.888C274.204 201.833 274.092 201.818 273.987 201.847C265.906 204.087 261.001 206.313 259.273 208.525C256.58 211.973 257.248 216.996 260.766 219.745Z" fill="#F2F6FB"/>
<path d="M264.589 214.895C265.418 215.542 268.134 213.866 268.53 214.743C269.86 217.683 269.819 221.657 272 218.865C273.362 217.123 271.541 213.549 272.069 208.208C272.193 206.957 273.082 204.924 274.736 202.11L274.736 202.11C274.85 201.917 274.785 201.669 274.593 201.556C274.497 201.5 274.382 201.486 274.275 201.517C265.872 203.954 260.762 206.336 258.944 208.663C257.315 210.748 258.622 211.83 261.104 212.171C261.972 212.291 262.559 211.269 263.783 211.033C265.143 210.771 263.783 214.264 264.589 214.895Z" fill="#474BFF"/>
<path d="M185.784 215.568C195.83 219.055 202.192 229.368 200.315 240.272L191.881 287.91L145.212 288.745C142.54 288.265 140.656 287.147 139.56 285.39C137.916 282.755 138.364 279.415 138.588 278.129L147.01 231.026C149.091 219.073 160.361 211.026 172.301 212.918L173.117 209.076C173.21 208.639 173.639 208.361 174.076 208.453L185.934 210.974C186.371 211.067 186.649 211.497 186.557 211.933L185.784 215.568Z" fill="#FF4F03"/>
<path d="M176.117 195.499C175.268 204.122 174.812 208.477 174.75 208.563C174.686 208.652 178.347 209.443 185.735 210.936L186.391 207.6C186.563 207.665 186.741 207.73 186.923 207.797C190.341 209.112 190.137 208.994 190.381 209.071C192.938 209.713 195.12 209.635 195.523 209.587C198.913 209.286 202.764 203.034 204.386 194.072C204.535 193.342 204.563 192.614 204.631 191.885L204.828 184.645C204.881 183.028 204.529 181.417 203.737 180.016C203.403 179.415 203.07 178.855 202.698 178.417C198.439 172.913 190.78 174.057 189.409 174.243C189.247 174.245 189.086 174.289 188.925 174.292C187.396 174.682 186.017 174.423 184.562 174.408C183.915 174.419 183.399 174.954 183.37 175.601L183.349 185.95C183.325 186.92 180.526 184.707 179.433 184.645C177.491 184.517 175.374 187.544 174.681 189.537C173.911 191.693 174.595 193.864 175.872 195.256C175.953 195.341 176.034 195.422 176.117 195.499ZM202.843 267.054C203.701 266.762 204.556 266.469 205.41 266.174C211.943 263.921 218.372 261.623 225.349 259.07C227.7 258.234 228.708 257.816 230.395 257.145C235.892 254.942 256.577 246.474 257.567 245.685C261.052 244.191 258.764 231.777 258.764 227.242C252.991 229.781 245.054 233.034 234.955 236.999C232.917 238.049 231.447 239.413 230.395 240.55C228.678 240.679 214.944 243.069 202.29 245.185C202.637 245.126 202.984 245.067 203.332 245.008C203.25 241.778 202.654 236.848 200.089 231.495C200.727 234.288 200.835 237.258 200.316 240.271L199.359 245.674C191.957 246.902 185.303 247.962 182.178 248.318C182.001 247.806 180.61 241.774 178.005 230.221L153.919 236.998C154.471 240.317 155.798 245.638 157.898 252.959C161.048 263.941 162.264 272.142 170.504 274.545C172.424 275.107 174.914 275.02 180.441 273.684C185.643 272.425 190.476 271.042 195.125 269.583L191.889 287.856L191.872 287.857L191.882 287.911L236.21 287.294C238.55 287.221 235.823 285.622 228.031 282.497C220.238 279.372 212.296 276.715 204.202 274.525L203.959 266.675C203.587 266.802 203.215 266.928 202.843 267.054ZM148.66 225.78C154.582 228.344 160.315 228.643 165.859 226.676C171.403 224.708 174.22 220.291 174.31 213.424C169.47 211.951 164.388 212.352 159.064 214.627C153.741 216.902 150.273 220.62 148.66 225.78Z" fill="#DB9E75"/>
<path d="M185.764 210.693L182.363 205.838L186.395 207.602L185.764 210.693Z" fill="#482D1F"/>
<path d="M202.112 192.448C202.159 191.959 202.536 191.568 203.02 191.534C203.343 191.512 203.636 191.653 203.797 192.209C204.169 193.479 203.049 195.421 202.474 194.732C202.037 194.277 202.079 193.139 202.112 192.448ZM194.919 192.708C194.966 192.219 195.344 191.828 195.828 191.794C196.15 191.771 196.444 191.913 196.604 192.469C196.976 193.739 195.856 195.681 195.282 194.992C194.845 194.537 194.846 193.402 194.919 192.708Z" fill="#482D1F"/>
<path d="M197.504 200.711C197.217 200.65 196.514 200.456 196.362 200.021C196.357 199.941 196.308 199.823 196.343 199.739C196.487 199.486 197.02 199.57 197.751 199.6C199.049 199.631 200.089 199.437 200.089 199.437C200.089 199.437 199.823 200.266 199.635 200.481C199.277 201.155 197.956 200.801 197.504 200.711Z" fill="#482D1F"/>
<path d="M204.918 189.133C205.316 189.024 205.443 188.529 205.141 188.266C204.756 187.969 204.123 187.608 203.314 187.624C201.655 187.659 199.909 188.754 201.722 189.194C202.879 189.518 204.161 189.307 204.918 189.133ZM197.098 189.68C197.495 189.571 197.622 189.076 197.28 188.816C196.895 188.519 196.262 188.158 195.413 188.177C193.754 188.212 192.011 189.346 193.821 189.747C195.018 190.068 196.3 189.857 197.098 189.68ZM176.141 201.462C177.636 200.46 178.652 198.888 179.188 196.744C178.451 196.535 177.316 196.084 176.394 195.046C175.157 193.653 174.474 191.522 175.246 189.447C175.938 187.454 177.932 185.884 179.874 186.011C180.966 186.073 181.826 186.665 181.948 186.743C183.299 187.73 183.887 189.014 183.887 189.014L184.761 191.232C186.151 190.255 188.947 186.551 193.149 180.12C195.484 179.84 197.287 179.645 198.558 179.536C200.464 179.374 202.509 179.565 203.279 179.257C203.224 179.393 203.168 179.531 203.113 179.669C203.25 179.429 203.32 179.296 203.32 179.296C203.359 179.174 202.702 178.579 202.7 178.499C198.687 173.192 191.299 173.685 189.928 173.871C189.767 173.873 189.606 173.917 189.443 173.879C187.185 174.161 185.286 174.235 183.994 174.297C177.855 174.526 175.457 173.759 172.372 175.349C171.812 175.642 170.49 176.352 169.343 177.787C168.68 178.59 168.182 179.444 167.812 180.307C164.289 180.192 161.787 181.943 160.308 185.561C158.332 190.391 161.362 194.767 165.136 196.556C166.727 200.521 171.09 203.376 174.605 202.234C175.237 202.029 175.749 201.771 176.141 201.462Z" fill="#482D1F"/>
<path d="M200.039 192.931L200.033 192.873L200.038 192.902L200.039 192.931ZM200.818 197.153L200.824 197.198C200.854 197.638 200.582 198.067 200.148 198.171C200.068 198.185 200.023 198.191 199.979 198.197C199.554 198.255 199.248 198.28 198.15 198.357C197.927 198.372 197.734 198.205 197.719 197.982C197.703 197.759 197.871 197.566 198.094 197.551C199.173 197.475 199.47 197.45 199.87 197.396C199.912 197.39 199.953 197.384 199.995 197.378C199.986 197.379 200.016 197.33 200.018 197.27L199.238 193.019L199.231 192.96L199.145 190.576C199.137 190.353 199.312 190.165 199.535 190.157C199.758 190.149 199.945 190.324 199.953 190.547L200.038 192.902L200.818 197.153Z" fill="#482D1F"/>
<path d="M177.58 229.941L177.58 226.683C177.58 226.348 177.852 226.077 178.187 226.077C178.521 226.077 178.793 226.348 178.793 226.683L178.793 229.941C178.793 230.276 178.521 230.548 178.187 230.548C177.852 230.548 177.58 230.276 177.58 229.941Z" fill="#482D1F"/>
<path opacity="0.2" d="M200.101 231.495C200.795 232.91 201.479 234.75 202.153 237.015C202.826 239.279 203.214 241.944 203.316 245.01L199.355 245.657C199.715 243.697 199.963 242.294 200.101 241.446C200.361 239.848 200.643 238.437 200.643 237.329C200.643 235.343 200.463 233.399 200.101 231.495ZM195.123 269.582L203.957 266.676L204.202 274.524C218.627 278.848 228.732 282.444 234.518 285.312C235.683 285.89 236.407 286.303 236.689 286.551C236.808 286.662 236.901 286.757 236.969 286.838C237.135 287.036 236.969 287.24 236.443 287.277C236.093 287.302 221.235 287.499 191.871 287.87L195.123 269.582Z" fill="#8C2A00"/>
</svg>
