<svg width="1448" height="966" viewBox="0 0 1448 966" fill="none" xmlns="http://www.w3.org/2000/svg">
<g clip-path="url(#clip0_401_177)">
<rect width="1448" height="966" rx="50" fill="white"/>
<path d="M608.513 557.151H578.712V609.426H506.459V557.151H398.781V503.47L511.238 339.056H578.712V502.627H608.513V557.151ZM506.74 502.627V471.15C506.74 465.247 507.021 457.378 507.302 447.26C507.864 437.142 508.145 432.083 508.427 431.521H506.459C502.241 441.077 497.462 449.79 492.12 458.221L462.038 502.627H506.74Z" fill="#EEDCFC"/>
<path d="M823.024 474.803C823.024 522.582 814.871 557.713 799.127 579.916C783.102 602.119 758.643 613.361 725.468 613.361C693.137 613.361 668.958 601.838 652.371 578.511C636.065 555.184 627.912 520.614 627.912 474.803C627.912 426.743 635.784 391.612 652.09 369.128C668.115 346.644 692.574 335.402 725.749 335.402C757.799 335.402 782.259 347.206 798.565 370.533C814.59 393.86 823.024 428.43 823.024 474.803ZM700.446 474.803C700.446 505.438 702.414 526.516 706.069 537.758C710.005 549.281 716.19 554.903 725.187 554.903C734.183 554.903 740.65 549 744.586 537.196C748.24 525.392 750.208 504.594 750.208 474.803C750.208 444.731 748.24 423.933 744.586 411.848C740.65 399.762 734.464 393.86 725.468 393.86C716.471 393.86 710.005 399.762 706.35 411.286C702.133 422.809 700.446 443.887 700.446 474.803Z" fill="#EEDCFC"/>
<path d="M1052.44 557.151H1022.63V609.426H950.381V557.151H842.704V503.47L955.161 339.056H1022.63V502.627H1052.44V557.151ZM950.663 502.627V471.15C950.663 465.247 950.944 457.378 951.225 447.26C951.787 437.142 952.068 432.083 952.349 431.521H950.381C946.164 441.077 941.385 449.79 936.043 458.221L905.961 502.627H950.663Z" fill="#EEDCFC"/>
<path d="M846.359 576.544C846.359 576.544 848.889 572.609 849.452 568.393C850.014 564.177 846.078 560.243 842.704 557.713C839.331 555.184 831.178 548.439 836.238 545.347C841.299 542.256 868.288 534.105 874.755 529.046C881.221 523.987 881.221 514.712 879.534 510.778C877.847 506.562 859.573 490.542 824.992 490.542C790.412 490.542 748.803 507.405 742.618 507.686C736.433 507.967 736.714 496.444 736.714 496.444L735.87 490.542H712.817L709.162 496.444C709.162 496.444 710.568 504.314 704.101 505.157C697.635 505.719 665.585 488.575 642.531 479.581C628.474 473.96 606.545 470.025 599.798 470.025C589.396 470.025 573.933 478.176 570.559 491.104C567.185 504.033 578.712 530.17 581.524 536.634C584.335 543.099 586.303 546.471 584.897 549.844C583.492 553.216 580.118 565.583 579.274 568.955C578.712 572.328 578.712 578.511 579.274 579.073C579.837 579.635 589.396 588.067 590.239 588.348C591.082 588.629 595.862 589.472 593.894 584.975C596.143 587.505 597.268 591.439 599.236 588.348C601.204 584.975 599.236 570.361 599.236 563.053C599.236 555.746 611.325 546.471 612.449 545.909C613.574 545.347 623.414 545.909 625.944 545.909C628.474 545.909 631.848 542.536 625.944 540.007C620.04 537.478 614.698 538.883 610.2 538.602C605.702 538.321 598.392 536.915 601.485 527.36C602.89 523.144 603.453 516.961 603.734 511.059H604.015C616.666 523.706 647.03 536.634 647.03 536.634L666.71 549.844L727.155 565.021L772.138 556.87L784.789 545.347C784.789 545.347 784.227 536.353 796.878 536.353C803.345 536.353 812.622 535.229 814.309 534.105" fill="white"/>
<path d="M598.111 591.158C596.986 591.158 595.862 590.315 595.3 589.191C593.613 590.315 591.364 590.034 590.239 589.753C589.677 589.472 589.396 589.472 580.961 582.165C579.837 581.041 578.712 580.197 578.712 580.197C576.463 578.511 578.15 568.393 578.15 568.393C578.712 565.021 582.367 552.373 583.773 548.72C584.616 546.471 583.773 544.223 581.524 539.726C581.242 538.883 580.68 538.04 580.399 536.916L580.118 536.353C570.559 514.432 566.904 498.693 569.153 490.261C572.808 477.333 588.271 468.058 600.079 468.058C600.079 468.058 600.079 468.058 600.36 468.058C607.67 468.058 629.599 472.274 643.375 477.895C652.652 481.549 663.055 486.326 673.176 490.823C686.671 497.006 700.728 503.471 704.101 503.189C705.226 503.189 706.069 502.627 706.913 501.784C708.037 500.098 708.037 497.568 707.756 496.725C707.756 496.163 707.756 495.882 708.037 495.601L711.692 489.699C711.973 489.137 712.536 488.856 713.098 488.856H736.152C736.995 488.856 737.838 489.418 737.838 490.542L738.682 496.444C738.682 498.412 738.963 503.752 740.931 505.719C741.493 506.281 742.056 506.562 742.618 506.281C744.024 506.281 748.803 504.876 754.426 502.908C771.294 497.568 799.69 489.137 824.992 489.137C860.416 489.137 879.534 506 881.221 510.497C883.189 515.556 882.908 525.393 875.879 531.014C871.662 534.105 860.697 538.321 850.857 541.974C844.672 544.223 839.049 546.471 837.082 547.596C836.238 548.158 836.238 548.439 836.238 548.72C836.238 550.406 839.05 553.779 843.548 557.151C846.078 559.119 851.982 563.896 850.857 569.517C850.014 574.014 847.765 578.23 847.484 578.23C846.922 579.073 845.797 579.354 844.954 578.792C844.11 578.23 843.829 577.106 844.391 576.263C844.391 576.263 846.64 572.609 847.203 568.674C847.765 564.74 842.704 560.805 841.299 559.681C837.925 557.151 832.302 552.373 832.583 548.158C832.583 547.033 833.146 545.347 835.114 544.223C837.363 542.818 842.985 540.85 849.452 538.321C858.448 534.948 869.694 530.732 873.349 527.922C879.253 523.425 878.972 514.994 877.566 511.621C875.879 507.686 857.886 492.51 824.43 492.51C799.69 492.51 771.576 501.222 754.707 506.281C748.241 508.248 743.742 509.654 742.056 509.654C740.369 509.654 738.963 509.092 737.557 507.967C734.184 504.595 734.184 497.287 734.184 496.444L733.621 492.51H713.098L710.287 497.006C710.568 498.412 710.568 501.784 708.6 504.314C707.475 506 705.507 506.843 703.539 507.124C699.322 507.405 688.358 502.627 670.646 494.477C660.524 489.98 650.403 485.202 641.126 481.549C626.787 475.928 604.858 471.993 599.236 471.993C589.958 471.993 575.057 479.581 571.684 491.666C570.278 497.006 570.84 509.092 582.367 535.51L582.648 536.072C582.929 536.916 583.492 538.04 583.773 538.883C586.022 543.942 587.428 547.033 586.022 550.687C584.616 554.06 581.242 566.426 580.68 569.517C580.118 572.609 580.118 576.825 580.399 578.23C580.961 578.511 581.524 579.354 582.648 580.197C584.897 582.165 589.396 586.099 590.52 586.943C591.364 587.224 591.926 586.943 592.207 586.943C592.207 586.943 592.207 586.662 591.926 586.1C591.645 585.256 591.926 584.413 592.488 583.851C593.332 583.289 594.175 583.57 594.737 584.132C595.581 584.975 596.143 585.818 596.705 586.662C596.986 586.943 597.268 587.505 597.549 587.786C598.673 586.099 598.111 577.668 597.83 572.047C597.549 568.674 597.268 565.864 597.268 563.334C597.268 554.622 611.325 544.785 611.325 544.504C612.168 543.942 614.136 543.942 622.289 544.223C623.695 544.223 625.101 544.223 625.663 544.223C626.506 544.223 627.069 543.661 627.35 543.38C627.35 543.099 627.069 542.537 625.101 541.693C621.446 540.007 617.791 540.288 614.417 540.288C612.73 540.288 611.325 540.288 609.919 540.288C606.826 540.007 602.609 539.445 600.36 536.072C598.673 533.824 598.673 530.451 599.798 526.798C600.922 523.425 601.766 518.085 602.047 511.059C602.047 510.497 602.328 510.216 602.609 509.935C602.89 509.654 603.453 509.373 604.015 509.373H604.296C604.858 509.373 605.139 509.654 605.421 509.935C617.791 522.301 647.592 534.948 647.873 535.229L667.553 548.439L727.436 563.334L771.576 555.184L783.383 544.504C783.383 543.099 783.946 540.569 785.914 538.321C788.444 535.791 792.099 534.386 797.159 534.386C804.188 534.386 812.341 533.262 813.466 532.419C814.309 531.857 815.434 532.138 815.996 532.7C816.558 533.543 816.558 534.386 815.715 535.229C813.184 537.197 801.095 537.759 797.159 537.759C793.223 537.759 790.412 538.602 788.725 540.569C787.038 542.537 787.038 544.785 787.038 544.785C787.038 545.347 786.757 545.909 786.476 546.19L773.825 557.713C773.543 557.994 773.262 557.994 772.981 558.275L727.999 566.426C727.717 566.426 727.436 566.426 727.155 566.426L666.71 551.249C666.428 551.249 666.428 551.249 666.147 550.968L646.467 537.759C645.624 537.478 619.197 526.236 605.421 514.15C604.858 519.771 604.296 524.268 603.171 527.36C602.328 530.17 602.328 532.419 603.171 533.824C604.577 535.791 607.951 536.353 610.2 536.635C611.325 536.635 612.73 536.635 614.136 536.635C617.791 536.635 622.008 536.354 626.506 538.321C631.005 540.288 631.005 542.818 630.723 543.942C630.161 546.19 627.912 547.596 625.663 547.596C624.819 547.596 623.695 547.596 622.008 547.596C619.478 547.596 613.855 547.314 612.73 547.596C610.762 548.72 600.641 557.432 600.641 563.053C600.641 565.302 600.922 568.393 600.922 571.485C601.485 580.478 601.766 586.662 600.36 589.191C600.641 589.753 599.798 591.158 598.111 591.158Z" fill="#3B4B75"/>
<path d="M756.113 435.456C756.113 435.456 762.579 425.619 775.792 427.868C789.006 430.116 768.483 443.326 759.205 442.482L753.02 458.221L742.337 470.025L725.187 466.372L706.35 466.091L698.197 458.221L694.261 440.796C694.261 440.796 672.332 434.613 673.457 426.462C674.581 418.312 692.293 429.554 692.293 429.554C692.293 429.554 695.667 421.404 698.197 420.56C700.728 419.717 700.446 409.599 700.446 409.599L746.554 405.946L756.394 418.874V435.456H756.113Z" fill="white"/>
<path d="M742.618 471.712H742.337L725.187 468.058L706.632 467.777C706.069 467.777 705.788 467.496 705.507 467.215L697.354 459.346C697.073 459.065 696.792 458.783 696.792 458.502L693.137 442.201C688.357 440.796 670.926 434.894 672.051 426.182C672.332 423.652 673.738 422.809 674.862 422.247C679.361 420.279 687.795 424.495 692.012 427.025C693.418 423.933 695.667 419.717 698.197 418.874C698.76 418.312 699.322 413.815 699.041 409.6C699.041 408.756 699.603 407.913 700.727 407.632L746.835 403.979C747.397 403.979 747.959 404.26 748.522 404.541L758.362 417.469C758.643 417.75 758.643 418.031 758.643 418.593V430.678C762.017 427.868 768.202 424.214 776.917 425.9C782.259 426.744 782.821 429.554 782.54 431.24C781.696 436.862 768.764 443.888 761.173 444.169L755.269 458.783C755.269 459.064 754.988 459.065 754.988 459.346L744.305 471.15C743.461 471.431 742.899 471.712 742.618 471.712ZM707.194 463.842L725.468 464.123L742.055 467.777L751.895 456.816L758.08 441.358C758.362 440.515 759.205 440.234 759.767 440.234C765.952 440.796 778.042 433.77 778.604 430.397C778.604 429.835 777.198 429.273 775.792 428.992C763.985 427.025 758.081 435.737 757.799 436.018C757.237 436.58 756.675 436.862 755.831 436.862C754.988 436.58 754.426 436.018 754.426 435.175V419.155L745.429 407.351L702.133 411.005C702.133 415.221 701.571 421.123 698.76 421.966C697.916 422.247 695.386 426.182 693.98 430.116C693.699 430.678 693.418 430.959 692.856 431.24C692.293 431.522 691.731 431.24 691.45 430.959C686.67 427.868 678.798 424.214 675.987 425.338C675.706 425.338 675.425 425.619 675.144 426.463C674.581 431.522 688.076 437.143 694.823 438.829C695.386 439.11 695.948 439.391 695.948 440.234L699.884 457.097L707.194 463.842Z" fill="#3B4B75"/>
<path d="M821.619 619.545C810.654 618.139 799.409 617.015 788.444 615.891C784.789 615.61 781.134 615.329 777.48 615.048C772.981 614.767 768.483 614.486 763.704 614.205C758.362 613.924 753.301 613.642 748.241 613.642C725.187 613.08 701.571 613.642 678.236 615.61C674.582 615.891 670.927 616.172 667.272 616.453C663.336 616.734 659.119 617.296 655.183 617.577C641.407 618.982 627.912 620.669 614.979 622.636C614.979 622.636 593.613 614.767 594.175 578.792C594.737 542.818 633.816 536.354 647.873 536.635C658.275 536.635 704.664 548.439 731.935 549.001C759.205 549.563 790.693 544.223 806.718 544.785C822.743 545.347 842.704 562.21 842.704 583.57C842.704 604.368 824.43 619.826 821.619 619.545Z" fill="#D49DFF"/>
<path d="M614.98 624.322C614.699 624.322 614.417 624.322 614.417 624.322C613.574 624.041 591.926 615.329 592.488 578.792C593.051 543.942 628.756 534.667 647.873 534.667C652.09 534.667 661.649 536.353 673.738 538.883C692.294 542.536 715.628 546.752 731.935 547.033C746.835 547.314 763.141 545.909 777.48 544.504C789.288 543.38 799.409 542.536 806.718 542.817C823.868 543.38 844.673 561.648 844.673 583.289C844.673 597.903 836.238 610.551 828.366 617.577C826.398 619.544 823.306 621.512 821.338 621.231C810.092 619.825 798.846 618.42 788.444 617.577C784.789 617.296 781.135 617.015 777.48 616.734C772.981 616.453 768.483 616.172 763.985 615.891C758.924 615.61 753.583 615.329 748.522 615.329C726.593 614.767 702.977 615.329 678.518 617.296C674.863 617.577 671.208 617.858 667.553 618.139C663.617 618.42 659.4 618.982 655.464 619.263C641.969 620.669 628.474 622.355 614.98 624.322ZM647.592 538.04C629.88 538.04 596.424 546.471 595.862 578.511C595.3 610.27 612.168 619.263 614.98 620.669C628.193 618.701 641.688 617.015 654.902 615.61C658.838 615.329 663.055 614.766 666.991 614.485C670.646 614.204 674.301 613.923 677.955 613.642C702.415 611.956 726.031 611.113 748.241 611.675C753.301 611.675 758.643 611.956 763.704 612.237C768.202 612.518 772.7 612.799 777.48 613.08C781.135 613.361 784.789 613.642 788.444 613.923C799.128 614.767 810.092 616.172 821.619 617.577C824.43 617.015 840.737 602.681 840.737 583.008C840.737 563.053 821.9 546.752 806.437 546.19C799.409 545.909 789.288 546.752 777.761 547.876C763.423 549.282 747.116 550.687 731.935 550.406C715.066 550.125 691.731 545.628 672.895 541.974C661.368 540.007 651.528 538.04 647.592 538.04Z" fill="#3B4B75"/>
<path d="M812.06 597.341C786.195 597.341 747.96 593.969 708.881 586.943C647.311 575.701 595.581 589.472 595.019 589.753C594.175 590.034 593.051 589.472 592.769 588.629C592.488 587.786 593.051 586.661 593.894 586.38C594.456 586.099 647.03 572.328 709.162 583.57C772.138 595.093 828.085 595.655 840.455 591.158C841.299 590.877 842.423 591.439 842.705 592.283C842.986 593.126 842.705 594.25 841.58 594.531C836.801 596.498 826.117 597.341 812.06 597.341Z" fill="#3B4B75"/>
<path d="M593.05 584.694H592.769C592.488 584.694 585.741 582.446 584.897 577.106C584.054 572.328 584.897 565.302 584.897 564.739C584.897 563.896 585.46 563.615 586.303 563.615C587.146 563.615 587.709 564.458 587.428 565.02C587.428 565.02 586.865 572.328 587.428 576.544C587.99 580.197 593.613 582.165 593.613 582.165C594.175 582.446 594.737 583.008 594.456 583.851C594.175 584.132 593.613 584.694 593.05 584.694Z" fill="#3B4B75"/>
<path d="M844.954 580.197C844.672 580.197 844.11 579.916 843.829 579.635C843.267 579.073 843.548 578.23 844.11 577.668C845.235 576.825 845.516 571.485 844.954 566.988C844.954 566.145 845.516 565.583 846.078 565.583C846.922 565.583 847.484 566.145 847.484 566.707C847.765 569.236 848.327 577.387 845.516 579.635C845.516 580.197 845.235 580.197 844.954 580.197Z" fill="#3B4B75"/>
<path d="M725.468 461.032C724.625 461.032 723.781 460.189 723.781 459.345C723.5 450.914 722.657 437.423 722.376 433.77C721.251 433.77 719.283 433.489 718.158 433.77C717.315 436.58 715.628 448.103 714.504 458.221C714.504 459.064 713.66 459.908 712.536 459.626C711.692 459.626 710.849 458.502 711.13 457.659C714.222 431.802 715.347 431.24 715.909 430.678C717.596 429.273 723.781 430.116 724.625 430.397C725.749 430.959 726.03 431.24 727.436 459.064C727.436 460.189 726.593 461.032 725.468 461.032Z" fill="#3B4B75"/>
<path d="M710.287 446.979C710.568 448.665 707.194 448.384 703.258 448.947C699.322 449.509 696.23 450.914 695.949 449.509C695.667 447.822 698.198 443.888 702.134 443.325C706.07 442.482 710.005 445.574 710.287 446.979Z" fill="#FF9292"/>
<path d="M703.539 445.012C696.23 445.012 690.326 439.11 690.326 431.803C690.326 424.495 696.23 418.593 703.539 418.593C710.849 418.593 716.753 424.495 716.753 431.803C716.753 439.11 710.849 445.012 703.539 445.012ZM703.539 422.247C698.198 422.247 693.699 426.463 693.699 432.084C693.699 437.424 697.916 441.92 703.539 441.92C708.881 441.92 713.379 437.705 713.379 432.084C713.379 426.463 708.881 422.247 703.539 422.247Z" fill="#3B4B75"/>
<path d="M727.999 448.947C727.717 450.633 731.372 450.633 735.589 451.476C739.806 452.319 743.18 454.287 743.461 452.319C743.743 450.633 741.212 446.136 736.995 445.012C732.778 444.169 728.561 447.26 727.999 448.947Z" fill="#FF9292"/>
<path d="M736.714 446.698C736.433 446.698 736.152 446.698 735.871 446.698C732.216 446.417 729.123 445.012 726.593 442.201C724.344 439.672 722.938 436.299 723.219 432.646C723.5 425.338 729.686 419.717 737.276 419.998C744.586 420.279 750.209 426.744 749.928 434.051C749.647 437.705 748.241 440.796 745.429 443.325C743.18 445.574 740.088 446.698 736.714 446.698ZM727.155 432.927C727.155 435.456 727.999 437.986 729.686 439.953C731.372 441.92 733.903 443.044 736.433 443.044C738.963 443.044 741.493 442.201 743.461 440.515C745.429 438.829 746.554 436.299 746.554 433.77C746.835 428.43 742.618 423.933 737.276 423.652C731.935 423.652 727.436 427.587 727.155 432.927Z" fill="#3B4B75"/>
<path d="M703.539 394.423C703.539 394.423 696.229 390.769 690.325 395.828C684.421 400.606 681.329 412.129 687.233 416.064C693.137 419.998 694.261 420.56 697.916 420.56C701.852 420.841 701.009 417.188 705.507 414.658C710.005 412.129 714.785 412.41 716.19 415.22C717.596 418.031 717.877 421.404 721.532 420.56C725.187 419.717 723.781 413.534 727.717 412.972C731.653 412.41 732.497 415.22 736.714 415.502C740.931 415.783 740.088 413.815 743.461 416.907C746.835 419.998 749.084 418.031 749.927 420.56C750.771 423.09 753.02 426.744 754.707 429.554C756.394 432.365 756.394 435.456 756.394 435.456C756.394 435.456 762.86 428.992 767.077 427.868C767.077 427.868 764.547 423.933 767.077 420.56C769.607 417.188 772.981 412.972 769.045 409.88C765.109 407.07 762.298 410.443 761.173 407.351C760.049 404.259 758.362 387.115 746.554 387.115C734.746 387.115 734.465 395.547 729.123 394.423C723.781 393.017 723.219 384.586 717.596 387.115C711.973 389.645 716.472 398.919 711.973 398.638C706.913 398.076 708.881 395.547 703.539 394.423Z" fill="#3B4B75"/>
<path d="M756.113 454.286C755.832 451.757 760.33 445.574 759.206 444.45C758.081 443.325 754.145 446.417 752.458 448.384C750.771 450.071 748.522 455.411 743.743 456.254C738.963 457.097 734.184 457.94 731.372 458.221C728.561 458.783 725.469 459.345 725.469 459.345C725.469 459.345 723.219 462.718 718.44 462.718C713.661 462.718 712.817 460.189 712.817 459.064C712.817 457.94 712.817 457.94 712.817 457.94C712.817 457.94 706.351 457.378 702.415 453.724C698.479 450.071 694.262 445.855 694.543 443.044C694.543 443.044 692.013 449.79 692.294 454.849C692.575 459.907 692.575 463.842 692.294 466.653C692.013 469.463 690.607 475.365 692.294 477.614C693.981 479.581 694.262 482.391 694.543 485.483C694.824 488.575 704.664 494.196 712.255 495.882C720.127 497.849 719.283 498.692 723.782 498.973C728.561 499.255 729.967 497.006 733.34 495.882C736.714 494.758 741.212 493.352 745.43 489.98C749.647 486.607 753.301 479.862 752.458 473.96C751.615 468.058 756.113 465.81 756.113 462.156C756.113 459.064 756.394 457.097 756.113 454.286ZM719.565 475.927C718.159 475.927 717.034 474.522 717.034 472.555C717.034 470.587 718.159 469.182 719.565 469.182C720.97 469.182 722.095 470.587 722.095 472.555C722.095 474.522 720.97 475.927 719.565 475.927Z" fill="#3B4B75"/>
<path d="M717.596 464.404C715.628 464.404 713.942 463.842 712.817 462.437C710.849 460.469 711.13 457.94 711.13 457.659C711.13 456.535 711.973 455.973 713.098 455.973C713.941 455.973 714.785 456.816 714.785 457.659C714.785 457.659 714.785 459.064 715.628 459.907C716.191 460.469 717.034 460.751 718.159 460.751C722.095 460.751 724.063 459.345 724.063 459.064C724.063 458.221 724.906 457.378 725.749 457.378C726.874 457.378 727.436 458.221 727.717 459.064C727.717 459.626 727.717 460.751 726.593 461.594C724.625 463.561 721.532 464.404 717.596 464.404C717.877 464.404 717.596 464.404 717.596 464.404Z" fill="#3B4B75"/>
<path d="M788.444 615.89C784.789 615.609 781.135 615.328 777.48 615.047C772.981 614.766 768.483 614.485 763.704 614.204C763.704 614.204 774.106 602.119 771.013 576.824C767.921 551.53 761.173 547.876 759.487 547.876C757.8 547.876 756.394 547.876 756.394 547.876C756.394 547.876 756.675 543.098 761.455 542.536C766.234 541.974 768.202 543.66 772.419 542.536C776.636 541.412 790.131 541.131 797.722 570.079C805.032 598.746 788.444 615.89 788.444 615.89Z" fill="white"/>
<path d="M788.444 617.577C784.508 617.296 780.853 617.015 777.48 616.734C772.981 616.453 768.483 616.172 763.985 615.891C763.422 615.891 762.86 615.328 762.579 614.766C762.298 614.204 762.298 613.361 762.86 612.799C762.86 612.799 772.7 600.714 769.608 576.543C766.515 550.968 760.049 549.282 759.768 549.282C757.8 549.282 756.394 549.282 756.394 549.282C755.55 549.282 754.707 548.438 754.707 547.314C754.988 545.066 756.394 540.85 761.454 540.288C763.985 540.007 765.953 540.288 767.358 540.288C769.045 540.569 770.17 540.569 772.138 540.288C776.636 539.164 791.256 538.039 799.409 568.955C806.999 598.465 790.693 615.891 789.85 616.734C789.288 617.577 789.006 617.577 788.444 617.577ZM767.077 612.518C770.451 612.799 774.106 613.08 777.48 613.08C780.853 613.361 784.227 613.642 787.601 613.923C790.412 610.551 802.22 594.812 795.754 570.079C788.163 541.693 775.23 543.098 772.7 543.942C770.17 544.504 768.483 544.223 766.515 543.942C765.109 543.661 763.704 543.661 761.454 543.942C759.768 544.223 758.924 545.066 758.362 545.909C758.643 545.909 758.924 545.909 758.924 545.909C760.049 545.909 768.764 546.19 772.419 576.262C775.23 595.655 769.889 607.459 767.077 612.518Z" fill="#3B4B75"/>
<path d="M678.236 615.328C674.581 615.61 670.927 615.891 667.272 616.172C663.336 616.453 659.119 617.015 655.183 617.296C655.183 617.296 641.969 604.367 641.126 579.354C640.001 554.34 650.122 539.726 668.959 536.353C668.959 536.353 673.176 535.229 675.706 536.353C678.517 537.477 681.61 538.602 684.703 538.883C687.795 539.164 687.233 543.098 687.233 543.098C687.233 543.098 664.179 567.269 677.112 611.956L678.236 615.328Z" fill="white"/>
<path d="M655.183 619.263C654.621 619.263 654.339 618.982 654.058 618.701C653.496 618.139 640.564 604.93 639.439 579.635C638.314 554.06 648.436 538.602 668.678 534.667C668.959 534.667 673.457 533.262 676.55 534.667C679.642 536.072 682.454 536.915 684.984 537.196C686.39 537.478 687.233 538.04 688.077 538.883C689.482 540.569 689.201 543.099 688.92 543.38C688.92 543.661 688.639 543.942 688.358 544.223C688.077 544.504 666.147 568.112 678.799 611.113L679.923 614.766C680.205 615.329 679.923 615.891 679.642 616.172C679.361 616.734 678.799 617.015 678.237 617.015C674.582 617.296 670.927 617.577 667.272 617.858C663.336 618.42 659.4 618.701 655.183 619.263ZM672.895 537.478C671.489 537.478 670.083 537.759 669.521 538.04C650.966 541.693 641.969 555.465 643.094 579.354C643.937 600.433 653.777 612.799 656.026 615.61C659.681 615.329 663.617 614.766 667.272 614.485C670.083 614.204 673.176 613.923 675.987 613.642L675.425 612.237C663.055 570.079 682.173 545.909 685.546 542.255C685.546 541.693 685.546 541.131 685.265 540.85C685.265 540.85 684.984 540.569 684.703 540.569C681.891 540.288 678.518 539.445 675.144 537.759C674.301 537.759 673.738 537.478 672.895 537.478Z" fill="#3B4B75"/>
<path d="M590.52 563.053C590.52 563.053 590.802 564.739 590.52 568.112C590.239 571.485 591.926 582.446 594.175 584.975C596.424 587.504 597.549 591.439 599.517 588.348C601.485 584.975 599.517 570.36 599.517 563.053C599.517 555.746 611.606 546.471 612.731 545.909C613.855 545.347 623.695 545.909 626.225 545.909C628.756 545.909 632.129 542.536 626.225 540.007C620.321 537.477 614.98 538.883 610.482 538.602C605.983 538.321 598.674 536.915 601.766 527.36C603.172 523.144 603.734 516.961 604.015 511.059C604.578 503.47 604.296 496.725 604.296 496.725" fill="white"/>
<path d="M598.111 591.158C596.424 591.158 595.3 589.753 594.456 588.067C593.894 587.505 593.613 586.661 593.051 586.099C590.239 583.008 588.552 571.485 589.115 567.831C589.396 564.74 589.115 563.334 589.115 563.334C588.833 562.491 589.396 561.367 590.52 561.367C591.364 561.086 592.488 561.648 592.769 562.772C592.769 563.053 593.332 564.739 592.769 568.393C592.488 572.047 594.175 582.165 595.862 583.851C596.705 584.694 597.268 585.537 597.83 586.38C598.111 586.661 598.392 587.224 598.673 587.505C599.798 585.818 599.236 577.387 598.955 571.766C598.673 568.393 598.392 565.583 598.392 563.053C598.392 554.341 612.449 544.504 612.449 544.223C613.293 543.661 615.261 543.661 623.414 543.942C624.82 543.942 626.225 543.942 626.788 543.942C627.631 543.942 628.193 543.38 628.474 543.099C628.474 542.817 628.193 542.255 626.225 541.412C622.57 539.726 618.916 540.007 615.542 540.007C613.855 540.007 612.449 540.007 611.044 540.007C607.951 539.726 603.734 539.164 601.485 535.791C599.798 533.543 599.798 530.17 600.923 526.517C602.047 523.144 602.891 517.804 603.172 510.778C603.734 503.189 603.453 496.444 603.453 496.444C603.453 495.601 604.296 494.758 605.14 494.758C606.264 494.758 606.827 495.601 606.827 496.444C606.827 496.444 606.826 503.47 606.545 511.059C605.983 518.366 605.14 523.987 604.015 527.641C603.172 530.451 603.172 532.7 604.015 534.105C605.421 536.072 608.794 536.634 611.044 536.915C612.168 536.915 613.574 536.915 614.98 536.915C618.634 536.915 622.852 536.634 627.35 538.602C631.848 540.569 631.848 543.099 631.567 544.223C631.005 546.471 628.756 547.876 626.506 547.876C625.663 547.876 624.538 547.876 622.852 547.876C620.321 547.876 614.698 547.595 613.574 547.876C611.606 549.001 601.485 557.713 601.485 563.334C601.485 565.583 601.766 568.674 601.766 571.766C602.328 580.759 602.609 586.942 601.204 589.472C600.641 589.753 599.798 591.158 598.111 591.158Z" fill="#3B4B75"/>
<path d="M839.893 587.786C839.612 587.786 839.612 587.786 839.331 587.786C837.082 587.223 836.519 584.132 836.238 581.04C835.957 576.825 833.427 570.079 829.772 565.864C829.21 565.302 828.648 564.458 827.804 563.615C823.868 558.275 817.683 550.406 804.469 549.001C789.288 547.314 789.288 547.033 789.288 545.347C789.288 544.785 789.85 544.223 790.412 543.661C791.537 542.818 798.846 537.478 805.594 536.634C810.092 536.072 813.747 532.981 817.402 529.889C819.089 528.484 820.494 527.36 822.181 525.954C824.149 524.549 826.117 521.739 828.366 518.928C832.302 513.588 836.801 507.686 843.267 506C844.11 505.719 845.235 506.281 845.516 507.405C845.797 508.248 845.235 509.372 844.11 509.654C838.769 511.059 834.833 516.399 831.178 521.177C828.929 524.268 826.679 527.36 824.149 529.046C822.462 530.17 821.057 531.576 819.37 532.7C815.434 536.072 811.217 539.445 805.875 540.288C802.22 540.85 798.284 542.817 795.473 544.504C797.441 544.785 800.252 545.066 804.75 545.628C819.37 547.314 826.398 556.308 830.616 561.648C831.178 562.491 831.74 563.334 832.302 563.896C836.52 568.955 839.331 576.263 839.612 581.04C839.612 582.446 839.893 583.289 840.174 583.851C840.455 583.57 840.737 583.008 841.018 582.446C843.267 578.511 840.737 570.642 839.612 567.831C839.331 566.988 839.612 565.864 840.455 565.583C841.299 565.302 842.423 565.583 842.705 566.426C843.267 567.55 847.484 577.949 843.829 584.132C843.267 585.818 841.861 587.786 839.893 587.786Z" fill="#3B4B75"/>
<path d="M841.299 567.269C841.299 567.269 845.797 577.949 842.704 583.289C839.331 588.91 838.487 585.256 837.925 581.041C837.644 576.825 835.114 569.518 831.178 564.74C826.961 559.962 820.775 549.001 804.75 547.315C788.444 545.628 791.256 545.347 791.256 545.347C791.256 545.347 798.846 539.445 805.594 538.321C812.341 537.197 813.747 534.105 819.651 530.17" fill="white"/>
<path d="M839.893 587.786C839.612 587.786 839.612 587.786 839.331 587.786C837.082 587.224 836.519 584.132 836.238 581.041C835.957 576.825 833.427 570.08 829.772 565.864C829.21 565.302 828.647 564.459 827.804 563.615C823.868 558.275 817.683 550.406 804.469 549.001C789.288 547.314 789.288 547.033 789.288 545.347C789.288 544.785 789.85 544.223 790.412 543.661C791.537 542.818 798.846 537.478 805.594 536.635C809.811 536.072 811.779 534.386 814.59 532.138C815.715 531.014 817.121 529.889 819.089 528.765C819.932 528.203 821.057 528.484 821.619 529.327C822.181 530.17 821.9 531.295 821.057 531.857C819.37 532.981 817.964 534.105 816.84 535.229C813.747 537.759 811.498 539.726 806.156 540.569C802.501 541.131 798.565 543.099 795.754 544.785C797.722 545.066 800.533 545.347 805.032 545.909C819.651 547.596 826.68 556.589 830.897 561.929C831.459 562.772 832.021 563.615 832.583 564.178C836.801 569.236 839.612 576.544 839.893 581.322C839.893 582.727 840.174 583.57 840.455 584.132C840.737 583.851 841.018 583.289 841.299 582.727C843.548 578.792 841.018 570.923 839.893 568.112C839.612 567.269 839.893 566.145 840.737 565.864C841.58 565.583 842.705 565.864 842.986 566.707C843.548 567.831 847.765 578.23 844.11 584.413C843.267 585.818 841.861 587.786 839.893 587.786Z" fill="#3B4B75"/>
</g>
<defs>
<clipPath id="clip0_401_177">
<rect width="1448" height="966" rx="50" fill="white"/>
</clipPath>
</defs>
</svg>
